{
.appVersion = "1286";
copyright = "Copyright © 2021 by Ruby Ku. All rights reserved.";
date = "2021-12-30 13:29:51 +0000";
designer = "Ruby Ku";
familyName = "EBH Alternates";
featurePrefixes = (
{
automatic = 1;
code = "languagesystem DFLT dflt;\012";
name = Languagesystems;
}
);
features = (
{
automatic = 1;
code = "feature fina;\012";
name = aalt;
},
{
automatic = 1;
code = "lookupflag IgnoreMarks;\012sub space f i n i t space by space_f_i_n_i_t_space.liga;\012sub E x e t e r by E_x_e_t_e_r.liga;\012sub F i n i t by F_i_n_i_t.liga;\012sub space o n d space by space_o_n_d_space.liga;\012sub A m e n by A_m_e_n.liga;\012sub A two by A_two.liga;\012sub C two by C_two.liga;\012sub E two by E_two.liga;\012sub Eth two by Eth_two.liga;\012sub G two by G_two.liga;\012sub H one by H_one.liga;\012sub M two by M_two.liga;\012sub X two by X_two.liga;\012sub Y two by Y_two.liga;\012sub a two by a_two.liga;\012sub b b by b_b.liga;\012sub eth eth by eth_eth.liga;\012sub g two by g_two.liga;\012sub o o by o_o.liga;\012sub slash slash by slash_slash.liga;\012sub t t by t_t.liga;\012sub thorn thorn by thorn_thorn.liga;\012sub y three by y_three.liga;\012sub y two by y_two.liga;\012";
name = liga;
},
{
automatic = 1;
code = "sub a by a.fina;\012sub e by e.fina;\012sub f by f.fina;\012sub g by g.fina;\012sub h by h.fina;\012sub k by k.fina;\012sub l by l.fina;\012sub m by m.fina;\012sub n by n.fina;\012sub r by r.fina;\012sub s by s.fina;\012sub t by t.fina;\012sub u by u.fina;\012";
name = fina;
},
{
automatic = 1;
code = "lookupflag IgnoreMarks;\012sub t t e by t_t_e.fina;\012";
name = dlig;
}
);
fontMaster = (
{
alignmentZones = (
"{1000, 16}",
"{950, 9}",
"{500, 16}",
"{0, -16}",
"{-200, -15}"
);
ascender = 1000;
capHeight = 950;
descender = -450;
id = "C933835C-79FD-43B5-B38E-78217E13301A";
weightValue = 400;
xHeight = 500;
}
);
glyphs = (
{
glyphname = A;
lastChange = "2021-12-30 14:02:22 +0000";
layers = (
{
hints = (
{
horizontal = 1;
place = "{11, 13}";
type = Stem;
},
{
horizontal = 1;
place = "{452, 61}";
type = Stem;
},
{
horizontal = 1;
place = "{939, 15}";
type = Stem;
},
{
place = "{-26, 803}";
type = Stem;
},
{
horizontal = 1;
place = "{9, 7}";
type = Stem;
}
);
layerId = "C933835C-79FD-43B5-B38E-78217E13301A";
paths = (
{
closed = 1;
nodes = (
"585 6 OFFCURVE",
"616 7 OFFCURVE",
"638 9 CURVE SMOOTH",
"653 10 OFFCURVE",
"675 11 OFFCURVE",
"706 11 CURVE SMOOTH",
"753 11 OFFCURVE",
"777 12 OFFCURVE",
"777 15 CURVE SMOOTH",
"777 17 OFFCURVE",
"764 20 OFFCURVE",
"738 24 CURVE SMOOTH",
"697 31 OFFCURVE",
"651 172 OFFCURVE",
"584 428 CURVE SMOOTH",
"571 473 OFFCURVE",
"548 562 OFFCURVE",
"513 695 CURVE SMOOTH",
"478 828 OFFCURVE",
"461 907 OFFCURVE",
"460 933 CURVE SMOOTH",
"459 940 OFFCURVE",
"465 943 OFFCURVE",
"477 944 CURVE SMOOTH",
"489 945 OFFCURVE",
"496 945 OFFCURVE",
"497 945 CURVE SMOOTH",
"516 948 OFFCURVE",
"500 950 OFFCURVE",
"451 950 CURVE SMOOTH",
"444 950 OFFCURVE",
"435 950 OFFCURVE",
"424 951 CURVE SMOOTH",
"350 953 LINE SMOOTH",
"340 954 OFFCURVE",
"331 954 OFFCURVE",
"323 954 CURVE SMOOTH",
"279 954 LINE SMOOTH",
"230 954 OFFCURVE",
"201 953 OFFCURVE",
"190 940 CURVE SMOOTH",
"187 936 OFFCURVE",
"216 939 OFFCURVE",
"223 939 CURVE",
"242 942 OFFCURVE",
"253 942 OFFCURVE",
"255 940 CURVE SMOOTH",
"260 935 OFFCURVE",
"263 928 OFFCURVE",
"263 918 CURVE SMOOTH",
"263 901 OFFCURVE",
"253 873 OFFCURVE",
"252 865 CURVE SMOOTH",
"240 796 LINE SMOOTH",
"227 724 OFFCURVE",
"216 668 OFFCURVE",
"206 629 CURVE SMOOTH",
"171 494 OFFCURVE",
"148 394 OFFCURVE",
"135 330 CURVE SMOOTH",
"118 247 OFFCURVE",
"104 186 OFFCURVE",
"95 147 CURVE SMOOTH",
"85 108 OFFCURVE",
"76 79 OFFCURVE",
"67 62 CURVE SMOOTH",
"50 25 OFFCURVE",
"22 20 OFFCURVE",
"-16 17 CURVE SMOOTH",
"-21 16 OFFCURVE",
"-24 14 OFFCURVE",
"-26 13 CURVE",
"-26 12 OFFCURVE",
"-21 11 OFFCURVE",
"-11 11 CURVE SMOOTH",
"25 12 LINE",
"31 13 OFFCURVE",
"38 13 OFFCURVE",
"46 13 CURVE SMOOTH",
"74 13 OFFCURVE",
"101 12 OFFCURVE",
"128 9 CURVE SMOOTH",
"164 7 LINE SMOOTH",
"169 7 OFFCURVE",
"175 8 OFFCURVE",
"183 9 CURVE SMOOTH",
"192 10 OFFCURVE",
"206 10 OFFCURVE",
"223 9 CURVE SMOOTH",
"243 9 LINE SMOOTH",
"252 9 OFFCURVE",
"257 10 OFFCURVE",
"257 11 CURVE",
"249 14 LINE",
"227 18 LINE SMOOTH",
"198 21 OFFCURVE",
"180 24 OFFCURVE",
"180 35 CURVE SMOOTH",
"180 111 LINE SMOOTH",
"180 139 OFFCURVE",
"183 172 OFFCURVE",
"189 211 CURVE SMOOTH",
"190 223 OFFCURVE",
"194 241 OFFCURVE",
"195 264 CURVE SMOOTH",
"201 328 OFFCURVE",
"208 385 OFFCURVE",
"216 436 CURVE SMOOTH",
"219 451 OFFCURVE",
"221 453 OFFCURVE",
"254 453 CURVE SMOOTH",
"288 453 LINE SMOOTH",
"303 452 OFFCURVE",
"335 452 OFFCURVE",
"383 452 CURVE SMOOTH",
"432 453 LINE SMOOTH",
"457 453 OFFCURVE",
"474 450 OFFCURVE",
"478 439 CURVE SMOOTH",
"503 363 OFFCURVE",
"528 286 OFFCURVE",
"547 208 CURVE SMOOTH",
"569 124 OFFCURVE",
"580 67 OFFCURVE",
"580 37 CURVE SMOOTH",
"580 31 OFFCURVE",
"577 26 OFFCURVE",
"571 23 CURVE SMOOTH",
"559 16 OFFCURVE",
"536 10 OFFCURVE",
"536 9 CURVE SMOOTH",
"536 8 OFFCURVE",
"539 7 OFFCURVE",
"546 6 CURVE"
);
},
{
closed = 1;
nodes = (
"383 513 OFFCURVE",
"365 513 OFFCURVE",
"351 514 CURVE SMOOTH",
"257 515 LINE SMOOTH",
"237 515 OFFCURVE",
"233 516 OFFCURVE",
"233 524 CURVE SMOOTH",
"233 529 OFFCURVE",
"235 538 OFFCURVE",
"239 552 CURVE SMOOTH",
"251 603 LINE SMOOTH",
"256 625 OFFCURVE",
"262 660 OFFCURVE",
"270 708 CURVE SMOOTH",
"279 767 LINE",
"287 817 LINE SMOOTH",
"290 842 OFFCURVE",
"295 867 OFFCURVE",
"301 891 CURVE SMOOTH",
"309 923 OFFCURVE",
"315 941 OFFCURVE",
"322 937 CURVE SMOOTH",
"336 930 OFFCURVE",
"361 869 OFFCURVE",
"366 852 CURVE SMOOTH",
"371 833 OFFCURVE",
"381 804 OFFCURVE",
"394 765 CURVE SMOOTH",
"407 726 OFFCURVE",
"417 697 OFFCURVE",
"422 677 CURVE SMOOTH",
"431 641 LINE SMOOTH",
"448 580 OFFCURVE",
"458 541 OFFCURVE",
"461 525 CURVE SMOOTH",
"462 516 OFFCURVE",
"446 513 OFFCURVE",
"406 513 CURVE SMOOTH"
);
}
);
width = 739;
}
);
note = A;
unicode = 0041;
},
{
glyphname = Adieresis;
lastChange = "2021-12-30 14:02:22 +0000";
layers = (
{
hints = (
{
horizontal = 1;
place = "{9, 7}";
type = Stem;
},
{
horizontal = 1;
place = "{403, 40}";
type = Stem;
},
{
horizontal = 1;
place = "{939, 15}";
type = Stem;
},
{
horizontal = 1;
place = "{1003, 82}";
type = Stem;
},
{
place = "{241, 73}";
type = Stem;
},
{
place = "{382, 67}";
type = Stem;
},
{
horizontal = 1;
place = "{11, 13}";
type = Stem;
}
);
layerId = "C933835C-79FD-43B5-B38E-78217E13301A";
paths = (
{
closed = 1;
nodes = (
"587 6 LINE SMOOTH",
"616 6 OFFCURVE",
"637 7 OFFCURVE",
"652 9 CURVE SMOOTH",
"667 10 OFFCURVE",
"689 11 OFFCURVE",
"720 11 CURVE SMOOTH",
"752 11 LINE SMOOTH",
"778 11 OFFCURVE",
"791 12 OFFCURVE",
"791 14 CURVE SMOOTH",
"791 15 OFFCURVE",
"778 19 OFFCURVE",
"752 24 CURVE SMOOTH",
"714 31 OFFCURVE",
"671 191 OFFCURVE",
"661 230 CURVE SMOOTH",
"647 281 LINE SMOOTH",
"636 316 OFFCURVE",
"622 366 OFFCURVE",
"605 429 CURVE SMOOTH",
"600 451 OFFCURVE",
"593 480 OFFCURVE",
"583 515 CURVE SMOOTH",
"579 530 OFFCURVE",
"568 570 OFFCURVE",
"563 595 CURVE SMOOTH",
"557 624 OFFCURVE",
"545 667 OFFCURVE",
"528 723 CURVE SMOOTH",
"515 765 OFFCURVE",
"504 803 OFFCURVE",
"496 837 CURVE SMOOTH",
"489 864 LINE SMOOTH",
"482 891 OFFCURVE",
"477 914 OFFCURVE",
"474 933 CURVE SMOOTH",
"473 940 OFFCURVE",
"479 943 OFFCURVE",
"491 944 CURVE SMOOTH",
"503 945 OFFCURVE",
"510 945 OFFCURVE",
"511 945 CURVE SMOOTH",
"518 947 OFFCURVE",
"515 948 OFFCURVE",
"501 949 CURVE SMOOTH",
"487 950 OFFCURVE",
"475 950 OFFCURVE",
"465 950 CURVE SMOOTH",
"458 950 OFFCURVE",
"448 950 OFFCURVE",
"437 951 CURVE SMOOTH",
"356 953 LINE SMOOTH",
"344 954 OFFCURVE",
"335 954 OFFCURVE",
"327 954 CURVE SMOOTH",
"283 954 LINE SMOOTH",
"234 954 OFFCURVE",
"202 952 OFFCURVE",
"190 940 CURVE SMOOTH",
"187 936 OFFCURVE",
"216 939 OFFCURVE",
"223 939 CURVE",
"242 942 OFFCURVE",
"253 942 OFFCURVE",
"255 940 CURVE SMOOTH",
"260 935 OFFCURVE",
"263 928 OFFCURVE",
"263 918 CURVE SMOOTH",
"263 901 OFFCURVE",
"253 873 OFFCURVE",
"252 865 CURVE SMOOTH",
"240 796 LINE SMOOTH",
"227 724 OFFCURVE",
"216 668 OFFCURVE",
"206 629 CURVE SMOOTH",
"171 494 OFFCURVE",
"148 394 OFFCURVE",
"135 330 CURVE SMOOTH",
"132 315 OFFCURVE",
"130 304 OFFCURVE",
"128 297 CURVE SMOOTH",
"121 259 OFFCURVE",
"115 232 OFFCURVE",
"110 216 CURVE SMOOTH",
"105 197 OFFCURVE",
"102 181 OFFCURVE",
"99 168 CURVE SMOOTH",
"87 116 OFFCURVE",
"82 91 OFFCURVE",
"67 62 CURVE SMOOTH",
"50 25 OFFCURVE",
"23 21 OFFCURVE",
"-16 17 CURVE SMOOTH",
"-21 16 OFFCURVE",
"-24 14 OFFCURVE",
"-26 13 CURVE",
"-26 12 OFFCURVE",
"-21 11 OFFCURVE",
"-11 11 CURVE SMOOTH",
"25 12 LINE",
"31 13 OFFCURVE",
"38 13 OFFCURVE",
"46 13 CURVE SMOOTH",
"74 13 OFFCURVE",
"102 12 OFFCURVE",
"130 9 CURVE SMOOTH",
"167 7 LINE SMOOTH",
"172 7 OFFCURVE",
"179 8 OFFCURVE",
"187 9 CURVE SMOOTH",
"196 10 OFFCURVE",
"210 10 OFFCURVE",
"227 9 CURVE SMOOTH",
"247 9 LINE SMOOTH",
"256 9 OFFCURVE",
"261 10 OFFCURVE",
"261 11 CURVE",
"253 14 LINE",
"231 18 LINE SMOOTH",
"202 21 OFFCURVE",
"184 24 OFFCURVE",
"184 35 CURVE SMOOTH",
"184 111 LINE SMOOTH",
"184 139 OFFCURVE",
"187 172 OFFCURVE",
"193 211 CURVE SMOOTH",
"194 223 OFFCURVE",
"198 241 OFFCURVE",
"199 264 CURVE SMOOTH",
"202 294 OFFCURVE",
"206 326 OFFCURVE",
"211 359 CURVE SMOOTH",
"220 431 LINE SMOOTH",
"225 479 OFFCURVE",
"228 508 OFFCURVE",
"232 508 CURVE SMOOTH",
"233 508 OFFCURVE",
"239 500 OFFCURVE",
"248 484 CURVE SMOOTH",
"257 467 OFFCURVE",
"273 450 OFFCURVE",
"294 432 CURVE SMOOTH",
"315 414 OFFCURVE",
"346 404 OFFCURVE",
"387 403 CURVE SMOOTH",
"412 402 OFFCURVE",
"432 425 OFFCURVE",
"459 462 CURVE",
"463 466 OFFCURVE",
"476 489 OFFCURVE",
"478 478 CURVE SMOOTH",
"497 406 LINE SMOOTH",
"507 371 OFFCURVE",
"517 333 OFFCURVE",
"528 294 CURVE SMOOTH",
"538 254 OFFCURVE",
"546 225 OFFCURVE",
"551 208 CURVE SMOOTH",
"573 124 OFFCURVE",
"584 67 OFFCURVE",
"584 37 CURVE SMOOTH",
"584 31 OFFCURVE",
"581 26 OFFCURVE",
"575 23 CURVE SMOOTH",
"563 16 OFFCURVE",
"540 10 OFFCURVE",
"540 9 CURVE SMOOTH",
"540 8 OFFCURVE",
"543 7 OFFCURVE",
"550 6 CURVE"
);
},
{
closed = 1;
nodes = (
"391 443 OFFCURVE",
"388 443 OFFCURVE",
"386 444 CURVE",
"302 463 OFFCURVE",
"266 614 OFFCURVE",
"266 692 CURVE SMOOTH",
"266 732 OFFCURVE",
"273 763 OFFCURVE",
"290 830 CURVE SMOOTH",
"295 849 OFFCURVE",
"300 870 OFFCURVE",
"305 891 CURVE SMOOTH",
"313 923 OFFCURVE",
"319 941 OFFCURVE",
"326 937 CURVE SMOOTH",
"340 930 OFFCURVE",
"365 869 OFFCURVE",
"370 852 CURVE SMOOTH",
"375 833 OFFCURVE",
"385 804 OFFCURVE",
"398 765 CURVE SMOOTH",
"411 726 OFFCURVE",
"421 697 OFFCURVE",
"426 677 CURVE SMOOTH",
"435 641 LINE SMOOTH",
"447 587 OFFCURVE",
"457 548 OFFCURVE",
"465 525 CURVE SMOOTH",
"474 503 OFFCURVE",
"432 443 OFFCURVE",
"395 443 CURVE SMOOTH"
);
},
{
closed = 1;
nodes = (
"312 1003 OFFCURVE",
"314 1024 OFFCURVE",
"314 1042 CURVE SMOOTH",
"314 1071 OFFCURVE",
"300 1085 OFFCURVE",
"280 1085 CURVE SMOOTH",
"269 1085 OFFCURVE",
"261 1082 OFFCURVE",
"254 1076 CURVE SMOOTH",
"245 1067 OFFCURVE",
"241 1057 OFFCURVE",
"241 1048 CURVE SMOOTH",
"241 1024 OFFCURVE",
"267 1003 OFFCURVE",
"288 1003 CURVE SMOOTH"
);
},
{
closed = 1;
nodes = (
"438 1001 OFFCURVE",
"449 1029 OFFCURVE",
"449 1045 CURVE SMOOTH",
"449 1070 OFFCURVE",
"425 1084 OFFCURVE",
"401 1084 CURVE SMOOTH",
"390 1084 OFFCURVE",
"382 1079 OFFCURVE",
"382 1074 CURVE SMOOTH",
"382 1072 LINE",
"385 1049 LINE SMOOTH",
"386 1028 OFFCURVE",
"390 1016 OFFCURVE",
"399 1009 CURVE",
"408 1004 OFFCURVE",
"415 1001 OFFCURVE",
"420 1001 CURVE SMOOTH"
);
}
);
width = 753;
}
);
note = Adieresis;
unicode = 00C4;
},
{
glyphname = AE;
lastChange = "2021-12-30 14:02:22 +0000";
layers = (
{
hints = (
{
horizontal = 1;
place = "{17, 39}";
type = Stem;
},
{
horizontal = 1;
place = "{351, 48}";
type = Stem;
},
{
horizontal = 1;
place = "{477, 37}";
type = Stem;
},
{
horizontal = 1;
place = "{926, 42}";
type = Stem;
},
{
place = "{489, 116}";
type = Stem;
},
{
place = "{982, 8}";
type = Stem;
},
{
place = "{490, 111}";
type = Stem;
},
{
horizontal = 1;
place = "{932, 32}";
type = Stem;
},
{
horizontal = 1;
place = "{14, 10}";
type = Stem;
}
);
layerId = "C933835C-79FD-43B5-B38E-78217E13301A";
paths = (
{
closed = 1;
nodes = (
"967 -37 OFFCURVE",
"971 -21 OFFCURVE",
"978 12 CURVE SMOOTH",
"985 44 OFFCURVE",
"989 68 OFFCURVE",
"991 83 CURVE SMOOTH",
"998 129 LINE SMOOTH",
"1010 207 OFFCURVE",
"1015 246 OFFCURVE",
"1012 246 CURVE SMOOTH",
"1011 246 OFFCURVE",
"1009 243 OFFCURVE",
"1007 238 CURVE SMOOTH",
"1002 222 OFFCURVE",
"999 210 OFFCURVE",
"995 199 CURVE",
"984 152 OFFCURVE",
"974 130 OFFCURVE",
"934 109 CURVE SMOOTH",
"869 74 OFFCURVE",
"777 59 OFFCURVE",
"713 58 CURVE SMOOTH",
"643 56 LINE SMOOTH",
"616 56 OFFCURVE",
"611 60 OFFCURVE",
"610 83 CURVE SMOOTH",
"607 164 LINE",
"604 293 LINE SMOOTH",
"602 347 OFFCURVE",
"601 387 OFFCURVE",
"601 413 CURVE SMOOTH",
"601 433 OFFCURVE",
"602 453 OFFCURVE",
"603 473 CURVE SMOOTH",
"603 476 OFFCURVE",
"613 477 OFFCURVE",
"632 477 CURVE SMOOTH",
"668 477 OFFCURVE",
"725 473 OFFCURVE",
"802 466 CURVE SMOOTH",
"879 458 OFFCURVE",
"925 452 OFFCURVE",
"940 447 CURVE SMOOTH",
"961 440 OFFCURVE",
"963 434 OFFCURVE",
"970 406 CURVE SMOOTH",
"972 396 OFFCURVE",
"971 362 OFFCURVE",
"981 364 CURVE SMOOTH",
"990 367 OFFCURVE",
"990 476 OFFCURVE",
"990 493 CURVE SMOOTH",
"990 543 OFFCURVE",
"989 568 OFFCURVE",
"986 568 CURVE SMOOTH",
"983 568 OFFCURVE",
"982 565 OFFCURVE",
"982 559 CURVE SMOOTH",
"982 552 LINE SMOOTH",
"982 531 OFFCURVE",
"972 516 OFFCURVE",
"927 516 CURVE SMOOTH",
"852 515 LINE SMOOTH",
"807 514 OFFCURVE",
"771 513 OFFCURVE",
"744 514 CURVE SMOOTH",
"656 514 LINE SMOOTH",
"636 514 OFFCURVE",
"623 515 OFFCURVE",
"616 516 CURVE SMOOTH",
"602 519 OFFCURVE",
"606 537 OFFCURVE",
"606 542 CURVE SMOOTH",
"605 614 LINE SMOOTH",
"605 694 OFFCURVE",
"609 855 OFFCURVE",
"639 925 CURVE SMOOTH",
"641 930 OFFCURVE",
"653 932 OFFCURVE",
"674 932 CURVE SMOOTH",
"693 932 OFFCURVE",
"729 929 OFFCURVE",
"744 928 CURVE SMOOTH",
"767 926 LINE",
"818 926 OFFCURVE",
"855 923 OFFCURVE",
"890 904 CURVE SMOOTH",
"899 899 OFFCURVE",
"921 889 OFFCURVE",
"936 876 CURVE SMOOTH",
"941 872 OFFCURVE",
"946 867 OFFCURVE",
"953 862 CURVE SMOOTH",
"966 850 OFFCURVE",
"969 847 OFFCURVE",
"992 811 CURVE SMOOTH",
"995 806 OFFCURVE",
"997 804 OFFCURVE",
"998 804 CURVE SMOOTH",
"1001 804 OFFCURVE",
"1001 812 OFFCURVE",
"1001 824 CURVE SMOOTH",
"1000 923 LINE SMOOTH",
"1000 939 OFFCURVE",
"999 964 OFFCURVE",
"996 980 CURVE SMOOTH",
"995 984 OFFCURVE",
"993 986 OFFCURVE",
"990 986 CURVE SMOOTH",
"986 986 OFFCURVE",
"974 980 OFFCURVE",
"963 977 CURVE SMOOTH",
"946 972 OFFCURVE",
"927 969 OFFCURVE",
"908 969 CURVE SMOOTH",
"896 969 OFFCURVE",
"874 971 OFFCURVE",
"858 970 CURVE SMOOTH",
"720 966 LINE SMOOTH",
"669 965 OFFCURVE",
"632 964 OFFCURVE",
"607 964 CURVE SMOOTH",
"532 963 OFFCURVE",
"476 961 OFFCURVE",
"437 959 CURVE SMOOTH",
"261 949 LINE SMOOTH",
"240 948 OFFCURVE",
"230 945 OFFCURVE",
"230 939 CURVE SMOOTH",
"230 932 OFFCURVE",
"247 922 OFFCURVE",
"260 917 CURVE SMOOTH",
"276 910 OFFCURVE",
"284 906 OFFCURVE",
"295 893 CURVE",
"296 890 OFFCURVE",
"297 885 OFFCURVE",
"297 877 CURVE SMOOTH",
"297 857 OFFCURVE",
"288 817 OFFCURVE",
"270 758 CURVE SMOOTH",
"261 727 OFFCURVE",
"254 705 OFFCURVE",
"251 691 CURVE SMOOTH",
"177 401 LINE SMOOTH",
"116 162 OFFCURVE",
"78 32 OFFCURVE",
"43 24 CURVE",
"17 21 OFFCURVE",
"4 19 OFFCURVE",
"4 17 CURVE SMOOTH",
"4 15 OFFCURVE",
"15 14 OFFCURVE",
"38 14 CURVE SMOOTH",
"55 14 OFFCURVE",
"70 14 OFFCURVE",
"81 15 CURVE SMOOTH",
"96 16 OFFCURVE",
"139 16 OFFCURVE",
"211 16 CURVE SMOOTH",
"245 16 OFFCURVE",
"262 16 OFFCURVE",
"262 17 CURVE",
"246 19 LINE SMOOTH",
"209 22 OFFCURVE",
"200 28 OFFCURVE",
"192 59 CURVE SMOOTH",
"188 74 OFFCURVE",
"186 89 OFFCURVE",
"186 104 CURVE SMOOTH",
"186 137 OFFCURVE",
"192 161 OFFCURVE",
"207 218 CURVE SMOOTH",
"216 250 LINE SMOOTH",
"220 265 OFFCURVE",
"225 286 OFFCURVE",
"230 314 CURVE SMOOTH",
"233 327 OFFCURVE",
"239 361 OFFCURVE",
"246 385 CURVE SMOOTH",
"248 394 OFFCURVE",
"258 442 OFFCURVE",
"266 432 CURVE",
"302 398 LINE SMOOTH",
"310 390 OFFCURVE",
"344 353 OFFCURVE",
"378 351 CURVE SMOOTH",
"399 351 OFFCURVE",
"468 442 OFFCURVE",
"484 468 CURVE SMOOTH",
"488 476 OFFCURVE",
"490 454 OFFCURVE",
"490 415 CURVE SMOOTH",
"490 373 OFFCURVE",
"488 304 OFFCURVE",
"484 208 CURVE SMOOTH",
"480 116 OFFCURVE",
"474 39 OFFCURVE",
"451 28 CURVE SMOOTH",
"446 26 OFFCURVE",
"444 24 OFFCURVE",
"444 22 CURVE SMOOTH",
"444 17 OFFCURVE",
"470 14 OFFCURVE",
"523 14 CURVE SMOOTH",
"550 14 OFFCURVE",
"572 14 OFFCURVE",
"589 15 CURVE SMOOTH",
"646 16 OFFCURVE",
"691 17 OFFCURVE",
"722 17 CURVE SMOOTH",
"792 17 OFFCURVE",
"850 15 OFFCURVE",
"896 12 CURVE SMOOTH",
"941 8 OFFCURVE",
"964 2 OFFCURVE",
"964 -6 CURVE SMOOTH",
"964 -21 LINE SMOOTH",
"963 -32 OFFCURVE",
"964 -37 OFFCURVE",
"965 -37 CURVE SMOOTH"
);
},
{
closed = 1;
nodes = (
"353 399 OFFCURVE",
"320 490 OFFCURVE",
"314 515 CURVE SMOOTH",
"308 537 LINE SMOOTH",
"300 565 OFFCURVE",
"296 585 OFFCURVE",
"296 598 CURVE SMOOTH",
"296 603 OFFCURVE",
"296 606 OFFCURVE",
"297 608 CURVE",
"312 668 OFFCURVE",
"328 718 OFFCURVE",
"346 758 CURVE SMOOTH",
"399 879 OFFCURVE",
"435 940 OFFCURVE",
"454 940 CURVE SMOOTH",
"465 940 OFFCURVE",
"469 924 OFFCURVE",
"480 869 CURVE",
"486 799 OFFCURVE",
"489 718 OFFCURVE",
"489 626 CURVE SMOOTH",
"489 533 LINE SMOOTH",
"489 520 OFFCURVE",
"487 510 OFFCURVE",
"483 504 CURVE SMOOTH",
"468 479 OFFCURVE",
"417 399 OFFCURVE",
"386 399 CURVE SMOOTH"
);
}
);
width = 1080;
}
);
note = AE;
unicode = 00C6;
},
{
glyphname = B;
lastChange = "2021-12-30 14:02:22 +0000";
layers = (
{
hints = (
{
horizontal = 1;
place = "{9, 49}";
type = Stem;
},
{
horizontal = 1;
place = "{550, 42}";
type = Stem;
},
{
horizontal = 1;
place = "{931, 32}";
type = Stem;
},
{
place = "{110, 101}";
type = Stem;
},
{
place = "{569, 119}";
type = Stem;
},
{
place = "{509, 73}";
type = Stem;
},
{
horizontal = 1;
place = "{940, 21}";
type = Stem;
}
);
layerId = "C933835C-79FD-43B5-B38E-78217E13301A";
paths = (
{
closed = 1;
nodes = (
"213 9 LINE SMOOTH",
"278 9 OFFCURVE",
"331 11 OFFCURVE",
"372 14 CURVE SMOOTH",
"533 24 OFFCURVE",
"688 126 OFFCURVE",
"688 301 CURVE SMOOTH",
"688 369 OFFCURVE",
"662 434 OFFCURVE",
"613 483 CURVE SMOOTH",
"584 512 OFFCURVE",
"542 537 OFFCURVE",
"486 568 CURVE SMOOTH",
"461 581 OFFCURVE",
"451 588 OFFCURVE",
"456 588 CURVE SMOOTH",
"466 588 OFFCURVE",
"518 623 OFFCURVE",
"556 680 CURVE SMOOTH",
"573 707 OFFCURVE",
"582 741 OFFCURVE",
"582 782 CURVE SMOOTH",
"582 821 OFFCURVE",
"573 856 OFFCURVE",
"558 876 CURVE SMOOTH",
"517 934 OFFCURVE",
"444 963 OFFCURVE",
"340 963 CURVE SMOOTH",
"231 964 LINE SMOOTH",
"215 965 OFFCURVE",
"192 965 OFFCURVE",
"163 965 CURVE SMOOTH",
"110 964 LINE SMOOTH",
"81 963 OFFCURVE",
"55 962 OFFCURVE",
"34 962 CURVE SMOOTH",
"26 962 OFFCURVE",
"19 961 OFFCURVE",
"13 959 CURVE SMOOTH",
"-3 955 OFFCURVE",
"14 951 OFFCURVE",
"59 943 CURVE SMOOTH",
"85 938 LINE SMOOTH",
"103 934 OFFCURVE",
"112 901 OFFCURVE",
"112 839 CURVE SMOOTH",
"111 790 LINE",
"110 223 LINE",
"110 182 LINE SMOOTH",
"110 102 OFFCURVE",
"103 40 OFFCURVE",
"72 31 CURVE",
"48 27 LINE SMOOTH",
"-1 22 OFFCURVE",
"-19 15 OFFCURVE",
"-6 8 CURVE"
);
},
{
closed = 1;
nodes = (
"215 63 OFFCURVE",
"211 69 OFFCURVE",
"211 101 CURVE SMOOTH",
"211 283 LINE SMOOTH",
"211 384 OFFCURVE",
"212 450 OFFCURVE",
"213 481 CURVE SMOOTH",
"213 491 OFFCURVE",
"212 539 OFFCURVE",
"227 545 CURVE",
"241 548 OFFCURVE",
"261 549 OFFCURVE",
"288 550 CURVE SMOOTH",
"324 550 LINE",
"358 551 LINE SMOOTH",
"382 551 OFFCURVE",
"404 545 OFFCURVE",
"425 533 CURVE SMOOTH",
"534 468 OFFCURVE",
"569 382 OFFCURVE",
"569 270 CURVE SMOOTH",
"569 173 OFFCURVE",
"527 124 OFFCURVE",
"436 85 CURVE SMOOTH",
"385 64 OFFCURVE",
"333 55 OFFCURVE",
"249 58 CURVE"
);
},
{
closed = 1;
nodes = (
"214 592 OFFCURVE",
"211 598 OFFCURVE",
"211 637 CURVE SMOOTH",
"211 657 LINE SMOOTH",
"212 774 OFFCURVE",
"217 878 OFFCURVE",
"234 914 CURVE SMOOTH",
"240 925 OFFCURVE",
"252 931 OFFCURVE",
"271 931 CURVE SMOOTH",
"294 931 OFFCURVE",
"327 923 OFFCURVE",
"372 908 CURVE SMOOTH",
"451 883 OFFCURVE",
"509 814 OFFCURVE",
"509 737 CURVE SMOOTH",
"509 622 OFFCURVE",
"419 599 OFFCURVE",
"318 595 CURVE SMOOTH",
"305 595 OFFCURVE",
"291 594 OFFCURVE",
"275 593 CURVE SMOOTH",
"245 592 LINE SMOOTH"
);
}
);
width = 708;
}
);
note = B;
unicode = 0042;
},
{
glyphname = C;
lastChange = "2021-12-30 14:02:22 +0000";
layers = (
{
hints = (
{
horizontal = 1;
place = "{7, 30}";
type = Stem;
},
{
horizontal = 1;
place = "{926, 30}";
type = Stem;
},
{
place = "{106, 132}";
type = Stem;
},
{
place = "{586, 11}";
type = Stem;
},
{
horizontal = 1;
place = "{941, 17}";
type = Stem;
}
);
layerId = "C933835C-79FD-43B5-B38E-78217E13301A";
paths = (
{
closed = 1;
nodes = (
"584 -56 OFFCURVE",
"587 -36 OFFCURVE",
"590 3 CURVE SMOOTH",
"596 87 LINE SMOOTH",
"597 95 OFFCURVE",
"597 107 OFFCURVE",
"597 122 CURVE SMOOTH",
"597 133 OFFCURVE",
"596 139 OFFCURVE",
"595 139 CURVE SMOOTH",
"594 139 OFFCURVE",
"591 128 OFFCURVE",
"586 105 CURVE SMOOTH",
"577 58 OFFCURVE",
"508 49 OFFCURVE",
"396 45 CURVE SMOOTH",
"344 42 LINE SMOOTH",
"304 39 OFFCURVE",
"279 37 OFFCURVE",
"268 37 CURVE SMOOTH",
"247 37 OFFCURVE",
"241 40 OFFCURVE",
"241 48 CURVE SMOOTH",
"241 71 OFFCURVE",
"241 93 OFFCURVE",
"240 112 CURVE SMOOTH",
"239 168 OFFCURVE",
"238 210 OFFCURVE",
"238 239 CURVE SMOOTH",
"238 836 LINE",
"237 872 LINE SMOOTH",
"237 902 OFFCURVE",
"240 919 OFFCURVE",
"247 923 CURVE SMOOTH",
"251 925 OFFCURVE",
"257 926 OFFCURVE",
"266 926 CURVE SMOOTH",
"281 926 LINE SMOOTH",
"434 926 OFFCURVE",
"511 917 OFFCURVE",
"554 873 CURVE SMOOTH",
"563 863 OFFCURVE",
"570 848 OFFCURVE",
"575 828 CURVE SMOOTH",
"579 808 OFFCURVE",
"581 798 OFFCURVE",
"582 798 CURVE SMOOTH",
"584 798 OFFCURVE",
"586 808 OFFCURVE",
"589 829 CURVE SMOOTH",
"591 842 OFFCURVE",
"592 854 OFFCURVE",
"592 863 CURVE SMOOTH",
"591 888 LINE",
"590 893 OFFCURVE",
"590 899 OFFCURVE",
"590 908 CURVE SMOOTH",
"590 918 OFFCURVE",
"590 926 OFFCURVE",
"591 933 CURVE",
"592 968 LINE SMOOTH",
"592 978 OFFCURVE",
"591 983 OFFCURVE",
"590 983 CURVE SMOOTH",
"589 983 OFFCURVE",
"588 979 OFFCURVE",
"586 972 CURVE",
"571 955 OFFCURVE",
"545 952 OFFCURVE",
"505 952 CURVE SMOOTH",
"456 952 LINE SMOOTH",
"433 952 OFFCURVE",
"400 953 OFFCURVE",
"357 954 CURVE SMOOTH",
"146 958 LINE SMOOTH",
"102 959 OFFCURVE",
"74 958 OFFCURVE",
"23 950 CURVE",
"13 947 OFFCURVE",
"8 944 OFFCURVE",
"8 942 CURVE SMOOTH",
"8 941 OFFCURVE",
"11 941 OFFCURVE",
"18 941 CURVE SMOOTH",
"35 941 LINE SMOOTH",
"71 941 OFFCURVE",
"95 936 OFFCURVE",
"107 927 CURVE SMOOTH",
"108 926 OFFCURVE",
"109 907 OFFCURVE",
"109 868 CURVE SMOOTH",
"109 809 OFFCURVE",
"109 770 OFFCURVE",
"108 749 CURVE SMOOTH",
"104 455 LINE SMOOTH",
"103 420 OFFCURVE",
"103 376 OFFCURVE",
"103 322 CURVE SMOOTH",
"103 226 OFFCURVE",
"102 135 OFFCURVE",
"99 50 CURVE SMOOTH",
"99 39 OFFCURVE",
"97 31 OFFCURVE",
"92 26 CURVE SMOOTH",
"83 17 OFFCURVE",
"57 18 OFFCURVE",
"48 18 CURVE SMOOTH",
"31 16 OFFCURVE",
"22 14 OFFCURVE",
"22 12 CURVE SMOOTH",
"22 9 OFFCURVE",
"48 7 OFFCURVE",
"101 7 CURVE SMOOTH",
"518 7 LINE SMOOTH",
"524 7 OFFCURVE",
"533 7 OFFCURVE",
"546 8 CURVE SMOOTH",
"570 8 OFFCURVE",
"582 5 OFFCURVE",
"582 -47 CURVE SMOOTH",
"582 -53 OFFCURVE",
"582 -56 OFFCURVE",
"583 -56 CURVE SMOOTH"
);
}
);
width = 625;
}
);
note = C_two.liga;
unicode = 0043;
},
{
glyphname = D;
lastChange = "2021-12-30 14:02:22 +0000";
layers = (
{
hints = (
{
horizontal = 1;
place = "{11, 46}";
type = Stem;
},
{
horizontal = 1;
place = "{923, 35}";
type = Stem;
},
{
place = "{128, 123}";
type = Stem;
},
{
place = "{696, 118}";
type = Stem;
},
{
horizontal = 1;
place = "{924, 28}";
type = Stem;
}
);
layerId = "C933835C-79FD-43B5-B38E-78217E13301A";
paths = (
{
closed = 1;
nodes = (
"366 11 OFFCURVE",
"397 13 OFFCURVE",
"444 24 CURVE SMOOTH",
"618 62 OFFCURVE",
"771 196 OFFCURVE",
"801 362 CURVE SMOOTH",
"811 415 OFFCURVE",
"815 470 OFFCURVE",
"814 527 CURVE SMOOTH",
"813 611 OFFCURVE",
"779 694 OFFCURVE",
"724 787 CURVE SMOOTH",
"672 877 OFFCURVE",
"537 955 OFFCURVE",
"423 955 CURVE SMOOTH",
"398 955 OFFCURVE",
"366 956 OFFCURVE",
"329 957 CURVE SMOOTH",
"265 958 LINE SMOOTH",
"233 958 OFFCURVE",
"204 956 OFFCURVE",
"179 953 CURVE SMOOTH",
"149 951 LINE",
"114 952 LINE SMOOTH",
"88 952 OFFCURVE",
"57 946 OFFCURVE",
"22 935 CURVE",
"15 931 OFFCURVE",
"12 928 OFFCURVE",
"12 926 CURVE SMOOTH",
"12 923 OFFCURVE",
"17 922 OFFCURVE",
"26 922 CURVE SMOOTH",
"38 922 OFFCURVE",
"55 924 OFFCURVE",
"75 924 CURVE SMOOTH",
"106 924 OFFCURVE",
"122 918 OFFCURVE",
"123 907 CURVE SMOOTH",
"129 855 OFFCURVE",
"132 776 OFFCURVE",
"132 671 CURVE SMOOTH",
"126 70 LINE SMOOTH",
"125 38 OFFCURVE",
"97 33 OFFCURVE",
"49 28 CURVE SMOOTH",
"33 27 OFFCURVE",
"24 25 OFFCURVE",
"23 23 CURVE SMOOTH",
"19 15 OFFCURVE",
"39 12 OFFCURVE",
"82 12 CURVE SMOOTH",
"166 13 LINE",
"270 12 LINE SMOOTH",
"283 11 OFFCURVE",
"301 11 OFFCURVE",
"323 11 CURVE SMOOTH"
);
},
{
closed = 1;
nodes = (
"312 57 OFFCURVE",
"282 59 OFFCURVE",
"256 66 CURVE SMOOTH",
"242 69 OFFCURVE",
"236 79 OFFCURVE",
"236 108 CURVE SMOOTH",
"238 176 LINE",
"252 908 LINE SMOOTH",
"252 918 OFFCURVE",
"279 923 OFFCURVE",
"332 923 CURVE SMOOTH",
"377 922 LINE SMOOTH",
"442 918 OFFCURVE",
"470 915 OFFCURVE",
"507 894 CURVE SMOOTH",
"620 831 OFFCURVE",
"669 715 OFFCURVE",
"688 568 CURVE SMOOTH",
"693 530 OFFCURVE",
"696 494 OFFCURVE",
"696 460 CURVE SMOOTH",
"696 403 OFFCURVE",
"687 360 OFFCURVE",
"666 301 CURVE SMOOTH",
"609 141 OFFCURVE",
"482 57 OFFCURVE",
"339 57 CURVE SMOOTH"
);
}
);
width = 834;
}
);
note = D;
unicode = 0044;
},
{
glyphname = Eth;
lastChange = "2021-12-30 14:02:22 +0000";
layers = (
{
hints = (
{
horizontal = 1;
place = "{14, 39}";
type = Stem;
},
{
horizontal = 1;
place = "{451, 48}";
type = Stem;
},
{
horizontal = 1;
place = "{917, 40}";
type = Stem;
},
{
place = "{239, 131}";
type = Stem;
},
{
place = "{559, 18}";
type = Stem;
},
{
place = "{804, 132}";
type = Stem;
},
{
horizontal = 1;
place = "{919, 27}";
type = Stem;
},
{
place = "{240, 112}";
type = Stem;
},
{
horizontal = 1;
place = "{8, 20}";
type = Stem;
},
{
horizontal = 1;
place = "{457, 45}";
type = Stem;
}
);
layerId = "C933835C-79FD-43B5-B38E-78217E13301A";
paths = (
{
closed = 1;
nodes = (
"160 8 OFFCURVE",
"183 9 OFFCURVE",
"214 10 CURVE SMOOTH",
"324 15 LINE SMOOTH",
"332 16 OFFCURVE",
"344 16 OFFCURVE",
"359 16 CURVE SMOOTH",
"382 16 OFFCURVE",
"400 16 OFFCURVE",
"412 15 CURVE SMOOTH",
"465 14 LINE SMOOTH",
"645 14 OFFCURVE",
"767 75 OFFCURVE",
"871 229 CURVE SMOOTH",
"915 293 OFFCURVE",
"936 378 OFFCURVE",
"936 470 CURVE SMOOTH",
"936 565 OFFCURVE",
"913 660 OFFCURVE",
"872 735 CURVE SMOOTH",
"809 852 OFFCURVE",
"702 935 OFFCURVE",
"581 950 CURVE SMOOTH",
"546 955 OFFCURVE",
"508 957 OFFCURVE",
"467 957 CURVE SMOOTH",
"426 957 OFFCURVE",
"378 955 OFFCURVE",
"322 950 CURVE SMOOTH",
"271 947 LINE SMOOTH",
"263 946 OFFCURVE",
"251 946 OFFCURVE",
"234 946 CURVE SMOOTH",
"196 946 LINE SMOOTH",
"176 946 OFFCURVE",
"161 945 OFFCURVE",
"151 944 CURVE SMOOTH",
"98 937 OFFCURVE",
"72 930 OFFCURVE",
"72 925 CURVE SMOOTH",
"72 921 OFFCURVE",
"84 919 OFFCURVE",
"95 919 CURVE SMOOTH",
"130 919 OFFCURVE",
"170 917 OFFCURVE",
"215 914 CURVE SMOOTH",
"223 913 OFFCURVE",
"229 905 OFFCURVE",
"233 888 CURVE SMOOTH",
"236 871 OFFCURVE",
"238 851 OFFCURVE",
"239 827 CURVE SMOOTH",
"239 743 LINE SMOOTH",
"239 722 OFFCURVE",
"238 692 OFFCURVE",
"237 652 CURVE SMOOTH",
"236 564 LINE SMOOTH",
"236 535 OFFCURVE",
"236 513 OFFCURVE",
"237 499 CURVE",
"140 497 LINE SMOOTH",
"87 497 OFFCURVE",
"53 504 OFFCURVE",
"36 519 CURVE SMOOTH",
"24 528 OFFCURVE",
"21 541 OFFCURVE",
"18 562 CURVE SMOOTH",
"18 566 OFFCURVE",
"12 597 OFFCURVE",
"7 597 CURVE SMOOTH",
"2 597 OFFCURVE",
"0 564 OFFCURVE",
"0 499 CURVE SMOOTH",
"0 446 OFFCURVE",
"2 398 OFFCURVE",
"3 378 CURVE",
"5 372 OFFCURVE",
"7 369 OFFCURVE",
"8 369 CURVE SMOOTH",
"12 369 OFFCURVE",
"15 389 OFFCURVE",
"16 393 CURVE SMOOTH",
"20 412 OFFCURVE",
"24 423 OFFCURVE",
"27 426 CURVE",
"51 443 OFFCURVE",
"82 448 OFFCURVE",
"121 449 CURVE SMOOTH",
"238 453 LINE",
"239 405 OFFCURVE",
"240 370 OFFCURVE",
"240 348 CURVE SMOOTH",
"240 327 OFFCURVE",
"240 312 OFFCURVE",
"239 302 CURVE SMOOTH",
"238 273 LINE SMOOTH",
"236 197 OFFCURVE",
"233 126 OFFCURVE",
"202 55 CURVE SMOOTH",
"193 32 OFFCURVE",
"180 29 OFFCURVE",
"155 28 CURVE SMOOTH",
"137 28 OFFCURVE",
"120 25 OFFCURVE",
"104 19 CURVE SMOOTH",
"96 17 OFFCURVE",
"92 15 OFFCURVE",
"92 13 CURVE SMOOTH",
"92 10 OFFCURVE",
"110 8 OFFCURVE",
"145 8 CURVE SMOOTH"
);
},
{
closed = 1;
nodes = (
"357 53 OFFCURVE",
"352 60 OFFCURVE",
"352 130 CURVE SMOOTH",
"352 160 LINE",
"359 457 LINE",
"394 457 LINE SMOOTH",
"437 457 OFFCURVE",
"475 455 OFFCURVE",
"508 451 CURVE SMOOTH",
"541 446 OFFCURVE",
"558 439 OFFCURVE",
"559 429 CURVE SMOOTH",
"563 392 OFFCURVE",
"566 373 OFFCURVE",
"569 373 CURVE SMOOTH",
"574 373 OFFCURVE",
"577 413 OFFCURVE",
"577 492 CURVE SMOOTH",
"577 599 LINE",
"575 606 OFFCURVE",
"573 610 OFFCURVE",
"572 610 CURVE SMOOTH",
"571 610 OFFCURVE",
"569 603 OFFCURVE",
"568 588 CURVE SMOOTH",
"565 559 OFFCURVE",
"560 531 OFFCURVE",
"545 527 CURVE SMOOTH",
"485 508 OFFCURVE",
"422 503 OFFCURVE",
"360 502 CURVE",
"370 911 LINE SMOOTH",
"370 915 OFFCURVE",
"387 917 OFFCURVE",
"420 917 CURVE SMOOTH",
"457 917 OFFCURVE",
"493 915 OFFCURVE",
"508 914 CURVE SMOOTH",
"734 884 OFFCURVE",
"804 651 OFFCURVE",
"804 453 CURVE SMOOTH",
"804 389 OFFCURVE",
"798 329 OFFCURVE",
"785 274 CURVE SMOOTH",
"747 114 OFFCURVE",
"554 53 OFFCURVE",
"408 53 CURVE SMOOTH"
);
}
);
width = 960;
}
);
note = Eth;
unicode = 00D0;
},
{
glyphname = E;
lastChange = "2021-12-30 14:02:22 +0000";
layers = (
{
hints = (
{
horizontal = 1;
place = "{14, 50}";
type = Stem;
},
{
horizontal = 1;
place = "{452, 58}";
type = Stem;
},
{
horizontal = 1;
place = "{890, 61}";
type = Stem;
},
{
horizontal = 1;
place = "{997, -20}";
target = down;
type = TopGhost;
},
{
place = "{119, 113}";
type = Stem;
},
{
place = "{605, 18}";
type = Stem;
},
{
place = "{596, 16}";
type = Stem;
},
{
place = "{125, 114}";
type = Stem;
}
);
layerId = "C933835C-79FD-43B5-B38E-78217E13301A";
paths = (
{
closed = 1;
nodes = (
"615 -33 OFFCURVE",
"617 -21 OFFCURVE",
"620 3 CURVE SMOOTH",
"622 26 OFFCURVE",
"623 50 OFFCURVE",
"623 74 CURVE SMOOTH",
"626 161 LINE SMOOTH",
"628 189 OFFCURVE",
"628 203 OFFCURVE",
"627 203 CURVE",
"626 199 OFFCURVE",
"624 193 OFFCURVE",
"623 184 CURVE SMOOTH",
"616 149 OFFCURVE",
"611 127 OFFCURVE",
"606 116 CURVE SMOOTH",
"584 67 OFFCURVE",
"466 64 OFFCURVE",
"422 64 CURVE SMOOTH",
"235 63 LINE",
"233 100 OFFCURVE",
"232 139 OFFCURVE",
"232 179 CURVE SMOOTH",
"232 265 OFFCURVE",
"236 344 OFFCURVE",
"244 417 CURVE SMOOTH",
"248 455 OFFCURVE",
"248 452 OFFCURVE",
"281 454 CURVE SMOOTH",
"290 455 OFFCURVE",
"303 455 OFFCURVE",
"320 455 CURVE SMOOTH",
"337 455 OFFCURVE",
"350 455 OFFCURVE",
"359 454 CURVE SMOOTH",
"482 449 LINE SMOOTH",
"521 448 OFFCURVE",
"540 446 OFFCURVE",
"568 438 CURVE SMOOTH",
"587 433 OFFCURVE",
"613 413 OFFCURVE",
"618 413 CURVE SMOOTH",
"621 413 OFFCURVE",
"622 416 OFFCURVE",
"622 422 CURVE SMOOTH",
"622 427 OFFCURVE",
"622 430 OFFCURVE",
"621 433 CURVE",
"620 444 OFFCURVE",
"619 452 OFFCURVE",
"619 458 CURVE SMOOTH",
"619 478 OFFCURVE",
"621 492 OFFCURVE",
"622 503 CURVE SMOOTH",
"624 516 OFFCURVE",
"625 530 OFFCURVE",
"625 543 CURVE SMOOTH",
"625 577 OFFCURVE",
"624 594 OFFCURVE",
"623 594 CURVE SMOOTH",
"622 594 OFFCURVE",
"619 586 OFFCURVE",
"612 569 CURVE SMOOTH",
"605 552 OFFCURVE",
"597 539 OFFCURVE",
"588 530 CURVE SMOOTH",
"574 517 OFFCURVE",
"528 510 OFFCURVE",
"451 510 CURVE SMOOTH",
"423 510 OFFCURVE",
"379 511 OFFCURVE",
"319 514 CURVE SMOOTH",
"258 516 LINE SMOOTH",
"243 517 OFFCURVE",
"239 539 OFFCURVE",
"239 600 CURVE SMOOTH",
"241 745 LINE",
"240 826 LINE SMOOTH",
"240 867 OFFCURVE",
"245 890 OFFCURVE",
"265 890 CURVE SMOOTH",
"432 890 LINE SMOOTH",
"463 890 OFFCURVE",
"486 890 OFFCURVE",
"502 889 CURVE SMOOTH",
"534 887 OFFCURVE",
"577 871 OFFCURVE",
"596 834 CURVE",
"597 830 OFFCURVE",
"599 821 OFFCURVE",
"601 808 CURVE SMOOTH",
"602 794 OFFCURVE",
"604 787 OFFCURVE",
"605 787 CURVE SMOOTH",
"607 787 OFFCURVE",
"608 792 OFFCURVE",
"609 802 CURVE SMOOTH",
"611 820 OFFCURVE",
"612 839 OFFCURVE",
"612 860 CURVE SMOOTH",
"612 894 LINE SMOOTH",
"612 906 OFFCURVE",
"612 916 OFFCURVE",
"613 924 CURVE SMOOTH",
"613 928 OFFCURVE",
"614 935 OFFCURVE",
"615 944 CURVE SMOOTH",
"618 979 OFFCURVE",
"618 997 OFFCURVE",
"617 997 CURVE SMOOTH",
"616 997 OFFCURVE",
"615 992 OFFCURVE",
"612 981 CURVE",
"605 965 OFFCURVE",
"590 958 OFFCURVE",
"557 958 CURVE SMOOTH",
"480 957 LINE SMOOTH",
"470 957 OFFCURVE",
"439 956 OFFCURVE",
"387 954 CURVE SMOOTH",
"357 952 OFFCURVE",
"322 951 OFFCURVE",
"282 951 CURVE SMOOTH",
"138 952 LINE SMOOTH",
"46 952 OFFCURVE",
"0 949 OFFCURVE",
"0 943 CURVE SMOOTH",
"0 941 OFFCURVE",
"7 938 OFFCURVE",
"20 934 CURVE SMOOTH",
"26 933 OFFCURVE",
"36 931 OFFCURVE",
"51 930 CURVE SMOOTH",
"95 926 OFFCURVE",
"118 921 OFFCURVE",
"119 896 CURVE SMOOTH",
"121 851 OFFCURVE",
"123 796 OFFCURVE",
"125 731 CURVE SMOOTH",
"127 666 OFFCURVE",
"128 620 OFFCURVE",
"127 595 CURVE SMOOTH",
"119 203 LINE",
"119 157 LINE SMOOTH",
"119 90 OFFCURVE",
"118 53 OFFCURVE",
"116 48 CURVE SMOOTH",
"111 32 OFFCURVE",
"91 27 OFFCURVE",
"56 23 CURVE SMOOTH",
"44 22 OFFCURVE",
"35 20 OFFCURVE",
"29 19 CURVE SMOOTH",
"14 16 OFFCURVE",
"6 14 OFFCURVE",
"6 13 CURVE SMOOTH",
"6 12 OFFCURVE",
"8 12 OFFCURVE",
"11 12 CURVE SMOOTH",
"18 12 OFFCURVE",
"25 12 OFFCURVE",
"32 13 CURVE SMOOTH",
"84 15 OFFCURVE",
"131 16 OFFCURVE",
"172 16 CURVE SMOOTH",
"235 16 OFFCURVE",
"260 15 OFFCURVE",
"276 15 CURVE SMOOTH",
"289 14 OFFCURVE",
"315 14 OFFCURVE",
"355 14 CURVE SMOOTH",
"468 15 LINE SMOOTH",
"505 15 OFFCURVE",
"528 14 OFFCURVE",
"539 13 CURVE SMOOTH",
"594 8 OFFCURVE",
"604 5 OFFCURVE",
"605 -8 CURVE SMOOTH",
"607 -25 OFFCURVE",
"609 -33 OFFCURVE",
"612 -33 CURVE SMOOTH"
);
}
);
width = 668;
}
);
note = E;
unicode = 0045;
},
{
glyphname = F;
lastChange = "2021-12-30 14:02:22 +0000";
layers = (
{
hints = (
{
horizontal = 1;
place = "{3, 11}";
type = Stem;
},
{
horizontal = 1;
place = "{422, 42}";
type = Stem;
},
{
horizontal = 1;
place = "{920, 34}";
type = Stem;
},
{
place = "{128, 110}";
type = Stem;
},
{
place = "{548, 17}";
type = Stem;
},
{
place = "{124, 109}";
type = Stem;
}
);
layerId = "C933835C-79FD-43B5-B38E-78217E13301A";
paths = (
{
closed = 1;
nodes = (
"67 2 LINE SMOOTH",
"91 5 OFFCURVE",
"111 6 OFFCURVE",
"128 5 CURVE SMOOTH",
"264 3 LINE SMOOTH",
"306 3 OFFCURVE",
"327 4 OFFCURVE",
"327 7 CURVE SMOOTH",
"327 9 OFFCURVE",
"315 11 OFFCURVE",
"292 14 CURVE SMOOTH",
"251 21 OFFCURVE",
"245 62 OFFCURVE",
"242 147 CURVE SMOOTH",
"241 168 LINE SMOOTH",
"239 212 OFFCURVE",
"238 249 OFFCURVE",
"238 278 CURVE SMOOTH",
"240 396 LINE SMOOTH",
"241 420 OFFCURVE",
"260 422 OFFCURVE",
"303 422 CURVE SMOOTH",
"434 423 LINE SMOOTH",
"443 423 OFFCURVE",
"451 423 OFFCURVE",
"456 424 CURVE",
"488 425 LINE SMOOTH",
"533 425 OFFCURVE",
"550 414 OFFCURVE",
"553 368 CURVE SMOOTH",
"554 356 OFFCURVE",
"555 350 OFFCURVE",
"556 350 CURVE SMOOTH",
"559 350 OFFCURVE",
"560 364 OFFCURVE",
"561 392 CURVE SMOOTH",
"562 420 OFFCURVE",
"562 436 OFFCURVE",
"562 440 CURVE SMOOTH",
"565 499 LINE SMOOTH",
"565 510 OFFCURVE",
"564 515 OFFCURVE",
"562 515 CURVE SMOOTH",
"560 515 OFFCURVE",
"555 503 OFFCURVE",
"548 480 CURVE SMOOTH",
"545 469 OFFCURVE",
"510 464 OFFCURVE",
"441 464 CURVE SMOOTH",
"397 464 OFFCURVE",
"352 466 OFFCURVE",
"307 470 CURVE SMOOTH",
"262 474 OFFCURVE",
"239 478 OFFCURVE",
"238 481 CURVE",
"235 524 OFFCURVE",
"233 567 OFFCURVE",
"233 609 CURVE SMOOTH",
"233 684 OFFCURVE",
"236 755 OFFCURVE",
"243 822 CURVE SMOOTH",
"249 888 OFFCURVE",
"256 921 OFFCURVE",
"263 920 CURVE",
"344 920 LINE SMOOTH",
"394 920 OFFCURVE",
"434 919 OFFCURVE",
"465 916 CURVE SMOOTH",
"560 907 OFFCURVE",
"586 877 OFFCURVE",
"616 795 CURVE SMOOTH",
"622 776 OFFCURVE",
"625 766 OFFCURVE",
"626 766 CURVE SMOOTH",
"627 766 OFFCURVE",
"627 771 OFFCURVE",
"627 781 CURVE SMOOTH",
"626 817 LINE SMOOTH",
"626 828 OFFCURVE",
"621 864 OFFCURVE",
"621 947 CURVE",
"624 956 OFFCURVE",
"617 961 OFFCURVE",
"602 961 CURVE SMOOTH",
"596 961 OFFCURVE",
"586 960 OFFCURVE",
"573 959 CURVE SMOOTH",
"563 957 OFFCURVE",
"553 956 OFFCURVE",
"544 956 CURVE SMOOTH",
"494 957 LINE SMOOTH",
"466 958 OFFCURVE",
"442 959 OFFCURVE",
"421 959 CURVE SMOOTH",
"369 958 LINE SMOOTH",
"336 957 OFFCURVE",
"278 955 OFFCURVE",
"194 954 CURVE SMOOTH",
"75 952 OFFCURVE",
"11 950 OFFCURVE",
"2 948 CURVE SMOOTH",
"-13 945 OFFCURVE",
"-21 943 OFFCURVE",
"-21 940 CURVE SMOOTH",
"-21 938 OFFCURVE",
"-15 936 OFFCURVE",
"-4 935 CURVE SMOOTH",
"7 934 OFFCURVE",
"14 933 OFFCURVE",
"17 932 CURVE",
"58 926 OFFCURVE",
"84 920 OFFCURVE",
"93 915 CURVE SMOOTH",
"105 908 OFFCURVE",
"114 882 OFFCURVE",
"119 838 CURVE SMOOTH",
"124 793 OFFCURVE",
"126 740 OFFCURVE",
"126 679 CURVE SMOOTH",
"126 636 LINE SMOOTH",
"125 588 OFFCURVE",
"124 552 OFFCURVE",
"124 529 CURVE SMOOTH",
"124 513 OFFCURVE",
"124 492 OFFCURVE",
"125 467 CURVE SMOOTH",
"127 291 LINE SMOOTH",
"128 266 OFFCURVE",
"128 246 OFFCURVE",
"128 229 CURVE SMOOTH",
"129 164 LINE SMOOTH",
"129 85 OFFCURVE",
"121 27 OFFCURVE",
"90 15 CURVE",
"53 6 OFFCURVE",
"38 1 OFFCURVE",
"47 1 CURVE SMOOTH"
);
}
);
width = 657;
}
);
note = F;
unicode = 0046;
},
{
glyphname = G;
lastChange = "2021-12-30 14:02:22 +0000";
layers = (
{
hints = (
{
horizontal = 1;
place = "{28, 45}";
type = Stem;
},
{
horizontal = 1;
place = "{436, 44}";
type = Stem;
},
{
horizontal = 1;
place = "{913, 46}";
type = Stem;
},
{
place = "{116, 112}";
type = Stem;
},
{
place = "{571, 98}";
type = Stem;
},
{
place = "{122, 118}";
type = Stem;
},
{
horizontal = 1;
place = "{941, 15}";
type = Stem;
}
);
layerId = "C933835C-79FD-43B5-B38E-78217E13301A";
paths = (
{
closed = 1;
nodes = (
"683 19 OFFCURVE",
"707 22 OFFCURVE",
"707 29 CURVE SMOOTH",
"707 31 OFFCURVE",
"704 33 OFFCURVE",
"699 36 CURVE",
"668 39 OFFCURVE",
"660 75 OFFCURVE",
"660 124 CURVE SMOOTH",
"661 167 LINE SMOOTH",
"661 192 OFFCURVE",
"662 213 OFFCURVE",
"664 232 CURVE SMOOTH",
"667 275 LINE",
"672 396 LINE SMOOTH",
"673 435 OFFCURVE",
"679 445 OFFCURVE",
"699 466 CURVE",
"702 474 OFFCURVE",
"704 479 OFFCURVE",
"704 481 CURVE SMOOTH",
"704 485 OFFCURVE",
"701 487 OFFCURVE",
"696 487 CURVE SMOOTH",
"688 487 OFFCURVE",
"672 483 OFFCURVE",
"660 483 CURVE SMOOTH",
"603 484 LINE SMOOTH",
"574 484 OFFCURVE",
"535 483 OFFCURVE",
"484 482 CURVE SMOOTH",
"407 480 LINE SMOOTH",
"384 480 OFFCURVE",
"362 492 OFFCURVE",
"358 492 CURVE SMOOTH",
"343 492 OFFCURVE",
"342 444 OFFCURVE",
"342 434 CURVE SMOOTH",
"342 394 OFFCURVE",
"349 336 OFFCURVE",
"354 315 CURVE",
"355 304 OFFCURVE",
"356 298 OFFCURVE",
"357 298 CURVE SMOOTH",
"358 298 OFFCURVE",
"359 305 OFFCURVE",
"361 318 CURVE SMOOTH",
"368 369 OFFCURVE",
"374 407 OFFCURVE",
"393 420 CURVE SMOOTH",
"408 431 OFFCURVE",
"435 436 OFFCURVE",
"474 436 CURVE SMOOTH",
"522 436 OFFCURVE",
"570 427 OFFCURVE",
"570 418 CURVE SMOOTH",
"571 262 LINE SMOOTH",
"571 216 OFFCURVE",
"570 181 OFFCURVE",
"568 158 CURVE SMOOTH",
"568 136 OFFCURVE",
"573 102 OFFCURVE",
"544 97 CURVE SMOOTH",
"458 80 OFFCURVE",
"355 73 OFFCURVE",
"267 73 CURVE SMOOTH",
"241 73 OFFCURVE",
"228 146 OFFCURVE",
"228 293 CURVE SMOOTH",
"228 335 OFFCURVE",
"229 394 OFFCURVE",
"232 470 CURVE SMOOTH",
"234 537 LINE SMOOTH",
"238 652 OFFCURVE",
"240 738 OFFCURVE",
"240 795 CURVE SMOOTH",
"240 830 LINE SMOOTH",
"240 854 OFFCURVE",
"241 875 OFFCURVE",
"242 894 CURVE SMOOTH",
"243 911 OFFCURVE",
"249 915 OFFCURVE",
"274 915 CURVE SMOOTH",
"285 915 OFFCURVE",
"294 915 OFFCURVE",
"301 914 CURVE",
"365 913 LINE",
"439 913 LINE SMOOTH",
"519 913 OFFCURVE",
"565 906 OFFCURVE",
"626 871 CURVE SMOOTH",
"655 855 OFFCURVE",
"657 843 OFFCURVE",
"661 800 CURVE",
"663 796 OFFCURVE",
"665 794 OFFCURVE",
"666 794 CURVE SMOOTH",
"671 794 OFFCURVE",
"674 813 OFFCURVE",
"677 850 CURVE SMOOTH",
"680 887 OFFCURVE",
"681 925 OFFCURVE",
"681 964 CURVE SMOOTH",
"681 975 OFFCURVE",
"680 981 OFFCURVE",
"676 981 CURVE SMOOTH",
"672 981 OFFCURVE",
"641 969 OFFCURVE",
"608 961 CURVE SMOOTH",
"581 955 OFFCURVE",
"546 952 OFFCURVE",
"501 952 CURVE SMOOTH",
"474 952 OFFCURVE",
"437 953 OFFCURVE",
"389 956 CURVE SMOOTH",
"353 958 OFFCURVE",
"321 959 OFFCURVE",
"294 959 CURVE SMOOTH",
"140 957 LINE",
"104 957 LINE SMOOTH",
"97 957 OFFCURVE",
"81 957 OFFCURVE",
"54 956 CURVE SMOOTH",
"27 955 OFFCURVE",
"13 954 OFFCURVE",
"13 951 CURVE SMOOTH",
"13 944 OFFCURVE",
"58 941 OFFCURVE",
"62 941 CURVE SMOOTH",
"97 940 OFFCURVE",
"117 937 OFFCURVE",
"116 925 CURVE",
"120 858 OFFCURVE",
"122 792 OFFCURVE",
"122 726 CURVE SMOOTH",
"122 659 OFFCURVE",
"121 593 OFFCURVE",
"119 527 CURVE SMOOTH",
"118 482 OFFCURVE",
"116 416 OFFCURVE",
"116 327 CURVE SMOOTH",
"116 180 LINE SMOOTH",
"116 124 OFFCURVE",
"114 84 OFFCURVE",
"99 53 CURVE SMOOTH",
"94 41 OFFCURVE",
"81 38 OFFCURVE",
"58 37 CURVE SMOOTH",
"45 36 OFFCURVE",
"35 34 OFFCURVE",
"29 33 CURVE SMOOTH",
"13 30 OFFCURVE",
"5 28 OFFCURVE",
"5 26 CURVE SMOOTH",
"5 25 OFFCURVE",
"11 24 OFFCURVE",
"23 24 CURVE SMOOTH",
"52 24 OFFCURVE",
"84 26 OFFCURVE",
"105 27 CURVE SMOOTH",
"155 29 LINE SMOOTH",
"189 29 OFFCURVE",
"250 29 OFFCURVE",
"339 28 CURVE SMOOTH",
"428 27 OFFCURVE",
"485 26 OFFCURVE",
"511 24 CURVE SMOOTH",
"560 21 OFFCURVE",
"601 19 OFFCURVE",
"635 19 CURVE SMOOTH"
);
}
);
width = 745;
}
);
note = G_two.liga;
unicode = 0047;
},
{
glyphname = H;
lastChange = "2021-12-30 14:02:15 +0000";
layers = (
{
hints = (
{
horizontal = 1;
place = "{7, 11}";
type = Stem;
},
{
horizontal = 1;
place = "{458, 63}";
type = Stem;
},
{
horizontal = 1;
place = "{940, 17}";
type = Stem;
},
{
place = "{115, 97}";
type = Stem;
},
{
place = "{614, 93}";
type = Stem;
},
{
place = "{605, 100}";
type = Stem;
},
{
horizontal = 1;
place = "{930, 24}";
type = Stem;
}
);
layerId = "C933835C-79FD-43B5-B38E-78217E13301A";
paths = (
{
closed = 1;
nodes = (
"661 8 LINE SMOOTH",
"739 8 OFFCURVE",
"778 10 OFFCURVE",
"778 14 CURVE SMOOTH",
"778 15 OFFCURVE",
"768 17 OFFCURVE",
"749 20 CURVE SMOOTH",
"722 22 OFFCURVE",
"714 26 OFFCURVE",
"714 55 CURVE SMOOTH",
"709 225 LINE SMOOTH",
"708 272 OFFCURVE",
"707 322 OFFCURVE",
"707 377 CURVE SMOOTH",
"707 490 LINE SMOOTH",
"707 528 OFFCURVE",
"707 556 OFFCURVE",
"706 575 CURVE SMOOTH",
"705 663 LINE SMOOTH",
"705 722 OFFCURVE",
"707 772 OFFCURVE",
"711 812 CURVE SMOOTH",
"713 833 LINE SMOOTH",
"716 890 OFFCURVE",
"721 925 OFFCURVE",
"749 930 CURVE SMOOTH",
"778 936 OFFCURVE",
"793 940 OFFCURVE",
"793 943 CURVE SMOOTH",
"793 950 OFFCURVE",
"745 954 OFFCURVE",
"680 954 CURVE SMOOTH",
"638 954 OFFCURVE",
"601 953 OFFCURVE",
"568 951 CURVE SMOOTH",
"561 951 OFFCURVE",
"558 950 OFFCURVE",
"558 947 CURVE SMOOTH",
"558 943 OFFCURVE",
"568 937 OFFCURVE",
"579 932 CURVE SMOOTH",
"596 922 OFFCURVE",
"606 915 OFFCURVE",
"609 912 CURVE",
"609 887 OFFCURVE",
"608 854 OFFCURVE",
"607 811 CURVE SMOOTH",
"606 754 OFFCURVE",
"605 712 OFFCURVE",
"605 685 CURVE SMOOTH",
"604 538 LINE",
"607 534 OFFCURVE",
"579 530 OFFCURVE",
"522 527 CURVE SMOOTH",
"465 523 OFFCURVE",
"406 521 OFFCURVE",
"347 521 CURVE SMOOTH",
"264 521 OFFCURVE",
"206 526 OFFCURVE",
"207 535 CURVE SMOOTH",
"209 564 OFFCURVE",
"210 595 OFFCURVE",
"210 627 CURVE SMOOTH",
"213 693 LINE",
"220 771 LINE",
"222 805 LINE SMOOTH",
"225 855 OFFCURVE",
"229 892 OFFCURVE",
"233 915 CURVE SMOOTH",
"237 935 OFFCURVE",
"243 939 OFFCURVE",
"256 943 CURVE SMOOTH",
"266 946 OFFCURVE",
"273 949 OFFCURVE",
"278 954 CURVE",
"278 957 OFFCURVE",
"270 959 OFFCURVE",
"253 959 CURVE SMOOTH",
"244 959 OFFCURVE",
"229 958 OFFCURVE",
"206 957 CURVE SMOOTH",
"195 957 OFFCURVE",
"164 954 OFFCURVE",
"151 955 CURVE SMOOTH",
"85 957 LINE SMOOTH",
"45 957 OFFCURVE",
"17 957 OFFCURVE",
"22 949 CURVE SMOOTH",
"27 941 OFFCURVE",
"33 940 OFFCURVE",
"42 940 CURVE SMOOTH",
"51 940 OFFCURVE",
"59 938 OFFCURVE",
"64 935 CURVE SMOOTH",
"91 920 OFFCURVE",
"97 878 OFFCURVE",
"100 817 CURVE SMOOTH",
"106 694 LINE SMOOTH",
"111 598 OFFCURVE",
"114 527 OFFCURVE",
"115 482 CURVE SMOOTH",
"115 436 LINE SMOOTH",
"115 215 OFFCURVE",
"103 82 OFFCURVE",
"79 39 CURVE SMOOTH",
"74 31 OFFCURVE",
"54 26 OFFCURVE",
"19 23 CURVE",
"13 21 OFFCURVE",
"10 19 OFFCURVE",
"10 17 CURVE SMOOTH",
"10 14 OFFCURVE",
"28 12 OFFCURVE",
"65 12 CURVE SMOOTH",
"124 13 LINE",
"131 14 OFFCURVE",
"140 14 OFFCURVE",
"150 14 CURVE SMOOTH",
"165 15 OFFCURVE",
"184 14 OFFCURVE",
"200 14 CURVE SMOOTH",
"237 14 LINE SMOOTH",
"283 14 OFFCURVE",
"306 15 OFFCURVE",
"306 17 CURVE SMOOTH",
"306 18 OFFCURVE",
"295 20 OFFCURVE",
"274 23 CURVE",
"255 28 OFFCURVE",
"223 25 OFFCURVE",
"221 44 CURVE SMOOTH",
"215 108 OFFCURVE",
"212 186 OFFCURVE",
"212 278 CURVE SMOOTH",
"213 450 LINE SMOOTH",
"213 457 OFFCURVE",
"236 458 OFFCURVE",
"279 458 CURVE SMOOTH",
"328 458 LINE SMOOTH",
"350 458 OFFCURVE",
"376 457 OFFCURVE",
"405 456 CURVE SMOOTH",
"432 455 OFFCURVE",
"452 454 OFFCURVE",
"467 454 CURVE SMOOTH",
"494 454 OFFCURVE",
"516 455 OFFCURVE",
"534 456 CURVE SMOOTH",
"604 460 LINE SMOOTH",
"611 460 OFFCURVE",
"614 434 OFFCURVE",
"614 383 CURVE SMOOTH",
"614 328 OFFCURVE",
"611 260 OFFCURVE",
"605 181 CURVE SMOOTH",
"598 101 OFFCURVE",
"592 54 OFFCURVE",
"587 39 CURVE SMOOTH",
"582 22 OFFCURVE",
"575 18 OFFCURVE",
"559 18 CURVE SMOOTH",
"524 19 LINE",
"509 11 OFFCURVE",
"529 7 OFFCURVE",
"583 7 CURVE SMOOTH"
);
}
);
width = 828;
}
);
note = H;
unicode = 0048;
},
{
glyphname = I;
lastChange = "2021-12-30 14:02:15 +0000";
layers = (
{
hints = (
{
horizontal = 1;
place = "{10, 8}";
type = Stem;
},
{
horizontal = 1;
place = "{942, 12}";
type = Stem;
},
{
place = "{151, 92}";
type = Stem;
},
{
place = "{154, 100}";
type = Stem;
}
);
layerId = "C933835C-79FD-43B5-B38E-78217E13301A";
paths = (
{
closed = 1;
nodes = (
"151 15 LINE",
"245 14 LINE SMOOTH",
"264 14 OFFCURVE",
"279 14 OFFCURVE",
"290 15 CURVE SMOOTH",
"301 15 OFFCURVE",
"306 16 OFFCURVE",
"306 17 CURVE",
"304 18 OFFCURVE",
"294 20 OFFCURVE",
"277 23 CURVE SMOOTH",
"259 26 OFFCURVE",
"250 30 OFFCURVE",
"249 37 CURVE SMOOTH",
"247 80 LINE SMOOTH",
"244 112 OFFCURVE",
"243 142 OFFCURVE",
"243 171 CURVE SMOOTH",
"243 232 OFFCURVE",
"245 329 OFFCURVE",
"250 461 CURVE SMOOTH",
"253 540 OFFCURVE",
"254 593 OFFCURVE",
"254 620 CURVE SMOOTH",
"254 714 OFFCURVE",
"257 802 OFFCURVE",
"262 885 CURVE SMOOTH",
"262 897 OFFCURVE",
"260 942 OFFCURVE",
"288 942 CURVE SMOOTH",
"301 942 OFFCURVE",
"315 947 OFFCURVE",
"315 951 CURVE SMOOTH",
"315 954 OFFCURVE",
"310 955 OFFCURVE",
"299 955 CURVE SMOOTH",
"286 955 OFFCURVE",
"270 954 OFFCURVE",
"250 953 CURVE SMOOTH",
"213 952 LINE SMOOTH",
"201 952 OFFCURVE",
"192 952 OFFCURVE",
"185 953 CURVE SMOOTH",
"173 954 OFFCURVE",
"156 954 OFFCURVE",
"133 954 CURVE SMOOTH",
"87 954 OFFCURVE",
"64 952 OFFCURVE",
"64 949 CURVE SMOOTH",
"64 946 OFFCURVE",
"79 944 OFFCURVE",
"108 942 CURVE SMOOTH",
"145 939 OFFCURVE",
"156 907 OFFCURVE",
"156 856 CURVE SMOOTH",
"155 823 LINE SMOOTH",
"154 816 OFFCURVE",
"154 807 OFFCURVE",
"154 796 CURVE SMOOTH",
"154 593 OFFCURVE",
"153 441 OFFCURVE",
"150 339 CURVE SMOOTH",
"149 307 OFFCURVE",
"150 282 OFFCURVE",
"150 265 CURVE SMOOTH",
"151 254 OFFCURVE",
"151 236 OFFCURVE",
"151 213 CURVE SMOOTH",
"151 157 OFFCURVE",
"147 98 OFFCURVE",
"136 43 CURVE SMOOTH",
"131 22 OFFCURVE",
"123 19 OFFCURVE",
"102 18 CURVE SMOOTH",
"97 18 OFFCURVE",
"84 17 OFFCURVE",
"73 14 CURVE SMOOTH",
"58 9 OFFCURVE",
"71 8 OFFCURVE",
"114 13 CURVE SMOOTH"
);
}
);
width = 371;
}
);
note = I;
unicode = 0049;
},
{
glyphname = J;
lastChange = "2021-12-30 14:02:22 +0000";
layers = (
{
hints = (
{
horizontal = 1;
place = "{937, 18}";
type = Stem;
},
{
place = "{119, 96}";
type = Stem;
}
);
layerId = "C933835C-79FD-43B5-B38E-78217E13301A";
paths = (
{
closed = 1;
nodes = (
"36 -134 OFFCURVE",
"125 -49 OFFCURVE",
"145 -27 CURVE SMOOTH",
"177 8 OFFCURVE",
"196 41 OFFCURVE",
"202 72 CURVE SMOOTH",
"211 121 OFFCURVE",
"214 171 OFFCURVE",
"214 243 CURVE SMOOTH",
"214 329 LINE SMOOTH",
"215 368 OFFCURVE",
"215 427 OFFCURVE",
"215 505 CURVE SMOOTH",
"215 602 OFFCURVE",
"216 675 OFFCURVE",
"217 724 CURVE SMOOTH",
"217 787 LINE SMOOTH",
"217 822 OFFCURVE",
"219 850 OFFCURVE",
"223 873 CURVE SMOOTH",
"225 892 OFFCURVE",
"226 933 OFFCURVE",
"243 937 CURVE SMOOTH",
"269 943 OFFCURVE",
"282 947 OFFCURVE",
"282 950 CURVE SMOOTH",
"282 953 OFFCURVE",
"275 954 OFFCURVE",
"262 955 CURVE SMOOTH",
"247 955 OFFCURVE",
"229 954 OFFCURVE",
"209 953 CURVE SMOOTH",
"172 952 LINE",
"70 953 LINE SMOOTH",
"35 953 OFFCURVE",
"17 951 OFFCURVE",
"17 948 CURVE SMOOTH",
"17 947 OFFCURVE",
"21 945 OFFCURVE",
"28 942 CURVE",
"49 937 OFFCURVE",
"91 936 OFFCURVE",
"103 920 CURVE SMOOTH",
"120 895 OFFCURVE",
"121 889 OFFCURVE",
"124 862 CURVE SMOOTH",
"125 844 OFFCURVE",
"126 817 OFFCURVE",
"126 780 CURVE SMOOTH",
"126 749 OFFCURVE",
"125 702 OFFCURVE",
"124 639 CURVE SMOOTH",
"119 359 LINE",
"119 227 LINE SMOOTH",
"119 113 OFFCURVE",
"118 30 OFFCURVE",
"39 -60 CURVE SMOOTH",
"15 -89 OFFCURVE",
"4 -105 OFFCURVE",
"0 -129 CURVE",
"0 -132 OFFCURVE",
"1 -134 OFFCURVE",
"4 -134 CURVE SMOOTH"
);
}
);
width = 322;
}
);
note = J;
unicode = 004A;
},
{
glyphname = K;
lastChange = "2021-12-30 14:02:22 +0000";
layers = (
{
hints = (
{
horizontal = 1;
place = "{10, 10}";
type = Stem;
},
{
horizontal = 1;
place = "{478, 94}";
type = Stem;
},
{
horizontal = 1;
place = "{939, 12}";
type = Stem;
},
{
place = "{84, 74}";
type = Stem;
},
{
place = "{74, 80}";
type = Stem;
},
{
horizontal = 1;
place = "{12, 12}";
type = Stem;
},
{
horizontal = 1;
place = "{943, 9}";
type = Stem;
}
);
layerId = "C933835C-79FD-43B5-B38E-78217E13301A";
paths = (
{
closed = 1;
nodes = (
"591 10 OFFCURVE",
"661 12 OFFCURVE",
"729 18 CURVE SMOOTH",
"748 20 OFFCURVE",
"757 22 OFFCURVE",
"757 24 CURVE SMOOTH",
"757 26 OFFCURVE",
"742 28 OFFCURVE",
"713 31 CURVE SMOOTH",
"689 33 OFFCURVE",
"683 44 OFFCURVE",
"665 59 CURVE SMOOTH",
"637 83 OFFCURVE",
"602 125 OFFCURVE",
"542 198 CURVE SMOOTH",
"502 247 OFFCURVE",
"474 280 OFFCURVE",
"458 299 CURVE SMOOTH",
"266 524 LINE SMOOTH",
"258 533 OFFCURVE",
"252 541 OFFCURVE",
"252 548 CURVE SMOOTH",
"252 556 OFFCURVE",
"259 564 OFFCURVE",
"284 588 CURVE SMOOTH",
"637 921 LINE SMOOTH",
"642 926 OFFCURVE",
"651 931 OFFCURVE",
"664 937 CURVE SMOOTH",
"677 942 OFFCURVE",
"683 946 OFFCURVE",
"683 947 CURVE SMOOTH",
"683 949 OFFCURVE",
"677 950 OFFCURVE",
"664 950 CURVE SMOOTH",
"637 949 LINE SMOOTH",
"581 950 OFFCURVE",
"545 951 OFFCURVE",
"528 951 CURVE SMOOTH",
"479 951 OFFCURVE",
"455 949 OFFCURVE",
"455 945 CURVE SMOOTH",
"455 943 OFFCURVE",
"460 941 OFFCURVE",
"470 939 CURVE",
"514 939 OFFCURVE",
"520 938 OFFCURVE",
"517 922 CURVE SMOOTH",
"516 915 OFFCURVE",
"512 907 OFFCURVE",
"507 899 CURVE SMOOTH",
"495 883 OFFCURVE",
"451 838 OFFCURVE",
"376 767 CURVE SMOOTH",
"353 746 OFFCURVE",
"330 722 OFFCURVE",
"305 696 CURVE SMOOTH",
"224 613 OFFCURVE",
"181 572 OFFCURVE",
"165 572 CURVE SMOOTH",
"161 572 OFFCURVE",
"159 575 OFFCURVE",
"159 581 CURVE SMOOTH",
"158 627 LINE SMOOTH",
"158 701 OFFCURVE",
"160 853 OFFCURVE",
"186 922 CURVE SMOOTH",
"189 930 OFFCURVE",
"200 936 OFFCURVE",
"218 940 CURVE SMOOTH",
"236 943 OFFCURVE",
"245 945 OFFCURVE",
"245 946 CURVE SMOOTH",
"245 947 OFFCURVE",
"239 948 OFFCURVE",
"227 949 CURVE",
"130 949 LINE SMOOTH",
"119 949 OFFCURVE",
"102 950 OFFCURVE",
"81 951 CURVE SMOOTH",
"35 952 LINE SMOOTH",
"21 952 OFFCURVE",
"11 952 OFFCURVE",
"4 951 CURVE SMOOTH",
"-5 950 OFFCURVE",
"-10 949 OFFCURVE",
"-10 948 CURVE SMOOTH",
"-10 947 OFFCURVE",
"-1 945 OFFCURVE",
"16 943 CURVE SMOOTH",
"33 941 OFFCURVE",
"45 940 OFFCURVE",
"50 939 CURVE SMOOTH",
"78 936 OFFCURVE",
"83 836 OFFCURVE",
"83 814 CURVE SMOOTH",
"84 629 LINE SMOOTH",
"84 573 OFFCURVE",
"83 531 OFFCURVE",
"82 503 CURVE SMOOTH",
"66 79 LINE SMOOTH",
"64 40 OFFCURVE",
"63 28 OFFCURVE",
"4 24 CURVE",
"-11 21 OFFCURVE",
"-1 18 OFFCURVE",
"35 16 CURVE SMOOTH",
"70 13 OFFCURVE",
"111 12 OFFCURVE",
"156 12 CURVE SMOOTH",
"201 12 OFFCURVE",
"224 13 OFFCURVE",
"224 15 CURVE",
"220 16 OFFCURVE",
"214 17 OFFCURVE",
"206 18 CURVE SMOOTH",
"182 21 OFFCURVE",
"177 30 OFFCURVE",
"169 59 CURVE SMOOTH",
"158 100 OFFCURVE",
"154 163 OFFCURVE",
"154 204 CURVE SMOOTH",
"154 287 LINE SMOOTH",
"154 430 OFFCURVE",
"160 492 OFFCURVE",
"171 475 CURVE",
"284 331 OFFCURVE",
"398 187 OFFCURVE",
"521 52 CURVE SMOOTH",
"532 41 OFFCURVE",
"538 34 OFFCURVE",
"538 30 CURVE SMOOTH",
"538 26 OFFCURVE",
"528 23 OFFCURVE",
"513 22 CURVE SMOOTH",
"481 18 LINE",
"474 16 OFFCURVE",
"470 15 OFFCURVE",
"470 14 CURVE SMOOTH",
"470 11 OFFCURVE",
"487 10 OFFCURVE",
"522 10 CURVE SMOOTH"
);
}
);
width = 697;
}
);
note = K;
unicode = 004B;
},
{
glyphname = L;
lastChange = "2021-12-30 14:02:22 +0000";
layers = (
{
hints = (
{
horizontal = 1;
place = "{-27, 21}";
target = up;
type = BottomGhost;
},
{
horizontal = 1;
place = "{25, 33}";
type = Stem;
},
{
horizontal = 1;
place = "{936, 23}";
type = Stem;
},
{
place = "{122, 116}";
type = Stem;
},
{
place = "{581, 25}";
type = Stem;
}
);
layerId = "C933835C-79FD-43B5-B38E-78217E13301A";
paths = (
{
closed = 1;
nodes = (
"594 -27 OFFCURVE",
"598 -6 OFFCURVE",
"603 37 CURVE SMOOTH",
"609 89 LINE SMOOTH",
"613 116 OFFCURVE",
"617 148 OFFCURVE",
"621 185 CURVE SMOOTH",
"625 217 OFFCURVE",
"627 243 OFFCURVE",
"627 262 CURVE SMOOTH",
"627 269 OFFCURVE",
"627 272 OFFCURVE",
"626 272 CURVE SMOOTH",
"623 272 OFFCURVE",
"618 247 OFFCURVE",
"614 211 CURVE SMOOTH",
"603 125 OFFCURVE",
"592 107 OFFCURVE",
"504 87 CURVE SMOOTH",
"417 64 OFFCURVE",
"346 58 OFFCURVE",
"256 58 CURVE SMOOTH",
"236 58 OFFCURVE",
"232 61 OFFCURVE",
"232 135 CURVE SMOOTH",
"232 162 OFFCURVE",
"234 234 OFFCURVE",
"237 352 CURVE SMOOTH",
"240 467 LINE SMOOTH",
"244 676 OFFCURVE",
"250 833 OFFCURVE",
"258 937 CURVE SMOOTH",
"258 942 OFFCURVE",
"262 947 OFFCURVE",
"271 950 CURVE SMOOTH",
"288 957 OFFCURVE",
"321 962 OFFCURVE",
"321 963 CURVE SMOOTH",
"321 964 OFFCURVE",
"318 965 OFFCURVE",
"313 966 CURVE",
"281 966 OFFCURVE",
"254 965 OFFCURVE",
"232 963 CURVE SMOOTH",
"186 961 LINE",
"81 958 LINE SMOOTH",
"25 956 OFFCURVE",
"-3 954 OFFCURVE",
"-3 951 CURVE SMOOTH",
"-3 949 OFFCURVE",
"8 947 OFFCURVE",
"29 944 CURVE SMOOTH",
"50 941 OFFCURVE",
"71 939 OFFCURVE",
"93 936 CURVE SMOOTH",
"120 931 OFFCURVE",
"129 800 OFFCURVE",
"129 775 CURVE SMOOTH",
"129 671 OFFCURVE",
"128 571 OFFCURVE",
"126 475 CURVE SMOOTH",
"119 165 LINE SMOOTH",
"118 129 OFFCURVE",
"116 104 OFFCURVE",
"115 90 CURVE SMOOTH",
"112 62 OFFCURVE",
"106 47 OFFCURVE",
"86 43 CURVE",
"78 38 OFFCURVE",
"68 35 OFFCURVE",
"55 33 CURVE SMOOTH",
"21 25 LINE SMOOTH",
"12 23 OFFCURVE",
"8 21 OFFCURVE",
"8 19 CURVE SMOOTH",
"8 16 OFFCURVE",
"23 14 OFFCURVE",
"52 14 CURVE SMOOTH",
"81 14 OFFCURVE",
"123 16 OFFCURVE",
"176 19 CURVE SMOOTH",
"212 21 LINE SMOOTH",
"270 24 OFFCURVE",
"319 25 OFFCURVE",
"359 25 CURVE SMOOTH",
"475 24 LINE",
"540 25 LINE SMOOTH",
"567 25 OFFCURVE",
"581 23 OFFCURVE",
"581 19 CURVE SMOOTH",
"584 -12 OFFCURVE",
"587 -27 OFFCURVE",
"590 -27 CURVE SMOOTH"
);
}
);
width = 627;
}
);
note = L;
unicode = 004C;
},
{
glyphname = M;
lastChange = "2021-12-30 14:02:22 +0000";
layers = (
{
hints = (
{
horizontal = 1;
place = "{17, 13}";
type = Stem;
},
{
horizontal = 1;
place = "{939, 10}";
type = Stem;
},
{
place = "{38, 75}";
type = Stem;
},
{
place = "{726, 114}";
type = Stem;
},
{
place = "{39, 71}";
type = Stem;
},
{
horizontal = 1;
place = "{11, 7}";
type = Stem;
},
{
place = "{712, 114}";
type = Stem;
},
{
horizontal = 1;
place = "{930, 21}";
type = Stem;
}
);
layerId = "C933835C-79FD-43B5-B38E-78217E13301A";
paths = (
{
closed = 1;
nodes = (
"2 11 OFFCURVE",
"44 14 OFFCURVE",
"49 14 CURVE SMOOTH",
"66 14 OFFCURVE",
"78 14 OFFCURVE",
"87 13 CURVE SMOOTH",
"130 12 LINE SMOOTH",
"152 12 OFFCURVE",
"171 13 OFFCURVE",
"188 16 CURVE",
"209 23 OFFCURVE",
"220 28 OFFCURVE",
"220 29 CURVE SMOOTH",
"220 30 OFFCURVE",
"213 32 OFFCURVE",
"200 33 CURVE SMOOTH",
"155 36 OFFCURVE",
"120 43 OFFCURVE",
"119 74 CURVE SMOOTH",
"116 167 OFFCURVE",
"114 283 OFFCURVE",
"113 421 CURVE SMOOTH",
"111 559 OFFCURVE",
"110 677 OFFCURVE",
"110 774 CURVE SMOOTH",
"110 807 LINE SMOOTH",
"110 837 OFFCURVE",
"112 852 OFFCURVE",
"117 852 CURVE SMOOTH",
"119 852 OFFCURVE",
"121 850 OFFCURVE",
"123 847 CURVE SMOOTH",
"161 794 LINE SMOOTH",
"213 723 OFFCURVE",
"252 665 OFFCURVE",
"279 622 CURVE SMOOTH",
"290 604 OFFCURVE",
"309 577 OFFCURVE",
"337 541 CURVE SMOOTH",
"378 488 OFFCURVE",
"396 461 OFFCURVE",
"411 426 CURVE",
"420 412 OFFCURVE",
"425 398 OFFCURVE",
"427 385 CURVE SMOOTH",
"428 371 LINE SMOOTH",
"428 365 OFFCURVE",
"426 358 OFFCURVE",
"423 349 CURVE SMOOTH",
"421 345 OFFCURVE",
"420 342 OFFCURVE",
"420 340 CURVE",
"421 339 LINE",
"426 339 OFFCURVE",
"458 388 OFFCURVE",
"462 396 CURVE SMOOTH",
"508 471 OFFCURVE",
"549 538 OFFCURVE",
"587 618 CURVE SMOOTH",
"627 698 LINE SMOOTH",
"648 739 OFFCURVE",
"658 760 OFFCURVE",
"659 763 CURVE SMOOTH",
"674 801 OFFCURVE",
"690 838 OFFCURVE",
"708 875 CURVE SMOOTH",
"719 899 OFFCURVE",
"725 904 OFFCURVE",
"726 891 CURVE",
"726 640 LINE SMOOTH",
"726 615 OFFCURVE",
"725 577 OFFCURVE",
"722 528 CURVE SMOOTH",
"719 487 OFFCURVE",
"717 449 OFFCURVE",
"717 414 CURVE SMOOTH",
"717 389 OFFCURVE",
"716 351 OFFCURVE",
"715 302 CURVE SMOOTH",
"713 265 OFFCURVE",
"712 228 OFFCURVE",
"712 189 CURVE SMOOTH",
"712 154 OFFCURVE",
"703 86 OFFCURVE",
"689 54 CURVE SMOOTH",
"682 39 OFFCURVE",
"672 36 OFFCURVE",
"644 28 CURVE SMOOTH",
"633 25 OFFCURVE",
"625 23 OFFCURVE",
"620 21 CURVE SMOOTH",
"615 18 OFFCURVE",
"613 16 OFFCURVE",
"613 15 CURVE SMOOTH",
"613 12 OFFCURVE",
"623 11 OFFCURVE",
"643 11 CURVE SMOOTH",
"662 11 OFFCURVE",
"678 11 OFFCURVE",
"691 12 CURVE SMOOTH",
"731 13 OFFCURVE",
"768 14 OFFCURVE",
"801 14 CURVE SMOOTH",
"824 14 OFFCURVE",
"854 15 OFFCURVE",
"892 17 CURVE SMOOTH",
"929 18 OFFCURVE",
"948 20 OFFCURVE",
"948 22 CURVE SMOOTH",
"948 24 OFFCURVE",
"942 25 OFFCURVE",
"930 26 CURVE SMOOTH",
"925 26 OFFCURVE",
"917 27 OFFCURVE",
"905 29 CURVE SMOOTH",
"874 32 LINE SMOOTH",
"830 34 OFFCURVE",
"842 45 OFFCURVE",
"839 61 CURVE SMOOTH",
"834 97 OFFCURVE",
"829 145 OFFCURVE",
"826 204 CURVE SMOOTH",
"823 263 OFFCURVE",
"821 311 OFFCURVE",
"822 346 CURVE SMOOTH",
"823 356 OFFCURVE",
"823 371 OFFCURVE",
"823 391 CURVE SMOOTH",
"824 426 OFFCURVE",
"826 451 OFFCURVE",
"827 467 CURVE SMOOTH",
"836 566 OFFCURVE",
"840 652 OFFCURVE",
"840 724 CURVE SMOOTH",
"839 805 LINE SMOOTH",
"839 876 OFFCURVE",
"849 930 OFFCURVE",
"865 939 CURVE SMOOTH",
"873 943 OFFCURVE",
"897 947 OFFCURVE",
"905 956 CURVE",
"890 959 OFFCURVE",
"872 960 OFFCURVE",
"853 960 CURVE SMOOTH",
"834 960 OFFCURVE",
"816 959 OFFCURVE",
"799 957 CURVE SMOOTH",
"780 956 OFFCURVE",
"767 955 OFFCURVE",
"759 955 CURVE SMOOTH",
"659 951 LINE SMOOTH",
"650 951 OFFCURVE",
"645 950 OFFCURVE",
"645 948 CURVE SMOOTH",
"645 944 OFFCURVE",
"659 938 OFFCURVE",
"687 930 CURVE SMOOTH",
"696 927 OFFCURVE",
"686 894 OFFCURVE",
"659 830 CURVE SMOOTH",
"635 776 OFFCURVE",
"527 546 OFFCURVE",
"487 517 CURVE",
"486 514 OFFCURVE",
"484 513 OFFCURVE",
"482 513 CURVE SMOOTH",
"469 513 OFFCURVE",
"436 564 OFFCURVE",
"379 660 CURVE SMOOTH",
"327 744 OFFCURVE",
"278 831 OFFCURVE",
"234 919 CURVE SMOOTH",
"231 926 OFFCURVE",
"234 931 OFFCURVE",
"243 935 CURVE SMOOTH",
"252 939 OFFCURVE",
"264 942 OFFCURVE",
"278 945 CURVE SMOOTH",
"292 948 OFFCURVE",
"299 949 OFFCURVE",
"299 950 CURVE SMOOTH",
"299 951 OFFCURVE",
"284 954 OFFCURVE",
"259 954 CURVE SMOOTH",
"222 954 OFFCURVE",
"165 953 OFFCURVE",
"88 952 CURVE SMOOTH",
"-30 949 LINE SMOOTH",
"-45 949 OFFCURVE",
"-52 948 OFFCURVE",
"-52 947 CURVE SMOOTH",
"-52 945 OFFCURVE",
"-42 942 OFFCURVE",
"-21 939 CURVE SMOOTH",
"1 935 OFFCURVE",
"12 933 OFFCURVE",
"15 932 CURVE",
"34 921 OFFCURVE",
"37 918 OFFCURVE",
"38 894 CURVE SMOOTH",
"39 877 OFFCURVE",
"39 835 OFFCURVE",
"39 769 CURVE SMOOTH",
"39 668 OFFCURVE",
"39 599 OFFCURVE",
"38 564 CURVE SMOOTH",
"38 389 LINE SMOOTH",
"38 276 OFFCURVE",
"35 193 OFFCURVE",
"19 108 CURVE SMOOTH",
"14 87 OFFCURVE",
"13 52 OFFCURVE",
"-2 37 CURVE SMOOTH",
"-7 32 OFFCURVE",
"-16 28 OFFCURVE",
"-29 25 CURVE SMOOTH",
"-39 24 OFFCURVE",
"-47 21 OFFCURVE",
"-54 18 CURVE SMOOTH",
"-63 13 OFFCURVE",
"-50 11 OFFCURVE",
"-26 11 CURVE SMOOTH"
);
}
);
width = 940;
}
);
note = M;
unicode = 004D;
},
{
glyphname = N;
lastChange = "2021-12-30 14:02:15 +0000";
layers = (
{
hints = (
{
horizontal = 1;
place = "{6, 8}";
type = Stem;
},
{
horizontal = 1;
place = "{945, 11}";
type = Stem;
},
{
place = "{89, 56}";
type = Stem;
},
{
place = "{694, 55}";
type = Stem;
},
{
place = "{848, 7}";
type = Stem;
},
{
horizontal = 1;
place = "{940, 15}";
type = Stem;
},
{
horizontal = 1;
place = "{942, 7}";
type = Stem;
},
{
horizontal = 1;
place = "{13, 13}";
type = Stem;
}
);
layerId = "C933835C-79FD-43B5-B38E-78217E13301A";
paths = (
{
closed = 1;
nodes = (
"750 6 LINE SMOOTH",
"785 6 OFFCURVE",
"815 10 OFFCURVE",
"815 15 CURVE SMOOTH",
"815 16 OFFCURVE",
"812 17 OFFCURVE",
"807 19 CURVE",
"798 19 OFFCURVE",
"740 12 OFFCURVE",
"740 47 CURVE SMOOTH",
"740 100 LINE SMOOTH",
"740 127 OFFCURVE",
"741 172 OFFCURVE",
"742 233 CURVE SMOOTH",
"757 634 LINE SMOOTH",
"758 644 OFFCURVE",
"758 659 OFFCURVE",
"758 680 CURVE SMOOTH",
"759 735 OFFCURVE",
"762 869 OFFCURVE",
"783 917 CURVE SMOOTH",
"790 932 OFFCURVE",
"796 941 OFFCURVE",
"813 945 CURVE",
"832 945 OFFCURVE",
"845 946 OFFCURVE",
"851 948 CURVE SMOOTH",
"856 949 OFFCURVE",
"857 952 OFFCURVE",
"852 955 CURVE SMOOTH",
"847 958 OFFCURVE",
"847 958 OFFCURVE",
"851 954 CURVE",
"805 956 LINE",
"798 956 LINE SMOOTH",
"787 956 OFFCURVE",
"778 956 OFFCURVE",
"771 955 CURVE",
"736 954 LINE",
"680 955 LINE",
"647 954 LINE",
"620 955 LINE SMOOTH",
"608 955 OFFCURVE",
"600 953 OFFCURVE",
"596 950 CURVE SMOOTH",
"593 947 OFFCURVE",
"591 945 OFFCURVE",
"591 944 CURVE SMOOTH",
"591 941 OFFCURVE",
"595 940 OFFCURVE",
"604 940 CURVE SMOOTH",
"633 941 LINE",
"684 935 OFFCURVE",
"685 933 OFFCURVE",
"687 912 CURVE SMOOTH",
"690 861 LINE SMOOTH",
"693 791 OFFCURVE",
"695 751 OFFCURVE",
"695 741 CURVE SMOOTH",
"696 636 LINE",
"696 605 LINE SMOOTH",
"696 563 OFFCURVE",
"696 531 OFFCURVE",
"695 510 CURVE SMOOTH",
"694 413 LINE SMOOTH",
"694 382 OFFCURVE",
"694 358 OFFCURVE",
"695 343 CURVE SMOOTH",
"695 324 OFFCURVE",
"695 309 OFFCURVE",
"696 297 CURVE SMOOTH",
"697 231 LINE SMOOTH",
"697 178 OFFCURVE",
"694 158 OFFCURVE",
"689 171 CURVE",
"675 192 OFFCURVE",
"658 220 OFFCURVE",
"639 254 CURVE SMOOTH",
"611 302 LINE SMOOTH",
"588 340 OFFCURVE",
"561 386 OFFCURVE",
"530 440 CURVE SMOOTH",
"325 806 LINE",
"286 881 LINE SMOOTH",
"273 906 OFFCURVE",
"265 924 OFFCURVE",
"262 934 CURVE SMOOTH",
"261 937 OFFCURVE",
"266 941 OFFCURVE",
"276 945 CURVE SMOOTH",
"286 948 OFFCURVE",
"291 951 OFFCURVE",
"291 952 CURVE SMOOTH",
"291 953 OFFCURVE",
"286 954 OFFCURVE",
"275 955 CURVE SMOOTH",
"225 956 LINE SMOOTH",
"200 956 OFFCURVE",
"172 955 OFFCURVE",
"142 953 CURVE SMOOTH",
"84 950 LINE",
"80 949 OFFCURVE",
"72 949 OFFCURVE",
"61 949 CURVE SMOOTH",
"37 949 OFFCURVE",
"24 947 OFFCURVE",
"22 944 CURVE",
"22 941 OFFCURVE",
"25 940 OFFCURVE",
"32 940 CURVE SMOOTH",
"41 940 OFFCURVE",
"52 942 OFFCURVE",
"63 942 CURVE SMOOTH",
"72 942 OFFCURVE",
"77 940 OFFCURVE",
"77 936 CURVE SMOOTH",
"77 918 OFFCURVE",
"78 892 OFFCURVE",
"81 859 CURVE SMOOTH",
"84 815 LINE",
"88 636 LINE SMOOTH",
"89 615 OFFCURVE",
"89 582 OFFCURVE",
"89 539 CURVE SMOOTH",
"89 487 OFFCURVE",
"88 448 OFFCURVE",
"87 423 CURVE SMOOTH",
"77 174 LINE",
"77 132 LINE SMOOTH",
"76 101 OFFCURVE",
"73 47 OFFCURVE",
"43 29 CURVE",
"38 27 OFFCURVE",
"32 26 OFFCURVE",
"25 26 CURVE SMOOTH",
"18 26 OFFCURVE",
"11 24 OFFCURVE",
"4 20 CURVE SMOOTH",
"-3 15 OFFCURVE",
"0 13 OFFCURVE",
"15 13 CURVE SMOOTH",
"51 14 LINE SMOOTH",
"71 15 OFFCURVE",
"89 16 OFFCURVE",
"105 16 CURVE SMOOTH",
"113 16 OFFCURVE",
"148 13 OFFCURVE",
"173 13 CURVE SMOOTH",
"184 13 OFFCURVE",
"193 13 OFFCURVE",
"198 14 CURVE SMOOTH",
"202 14 OFFCURVE",
"212 14 OFFCURVE",
"227 15 CURVE SMOOTH",
"242 16 OFFCURVE",
"249 17 OFFCURVE",
"249 20 CURVE SMOOTH",
"249 21 OFFCURVE",
"245 23 OFFCURVE",
"237 26 CURVE",
"209 29 OFFCURVE",
"179 43 OFFCURVE",
"168 67 CURVE SMOOTH",
"152 108 OFFCURVE",
"148 150 OFFCURVE",
"148 194 CURVE SMOOTH",
"148 221 LINE SMOOTH",
"148 233 OFFCURVE",
"149 251 OFFCURVE",
"148 275 CURVE SMOOTH",
"146 339 OFFCURVE",
"145 403 OFFCURVE",
"145 466 CURVE SMOOTH",
"145 557 OFFCURVE",
"147 642 OFFCURVE",
"152 721 CURVE SMOOTH",
"153 734 OFFCURVE",
"152 749 OFFCURVE",
"152 758 CURVE SMOOTH",
"151 765 OFFCURVE",
"151 774 OFFCURVE",
"151 787 CURVE SMOOTH",
"151 806 OFFCURVE",
"153 815 OFFCURVE",
"157 815 CURVE SMOOTH",
"158 815 LINE",
"165 812 OFFCURVE",
"171 802 OFFCURVE",
"182 779 CURVE SMOOTH",
"218 708 OFFCURVE",
"250 648 OFFCURVE",
"294 581 CURVE SMOOTH",
"309 560 OFFCURVE",
"322 540 OFFCURVE",
"334 519 CURVE SMOOTH",
"478 280 LINE SMOOTH",
"509 229 OFFCURVE",
"531 193 OFFCURVE",
"545 173 CURVE SMOOTH",
"609 76 LINE SMOOTH",
"610 74 OFFCURVE",
"615 67 OFFCURVE",
"624 55 CURVE SMOOTH",
"633 42 OFFCURVE",
"637 33 OFFCURVE",
"637 27 CURVE SMOOTH",
"637 15 OFFCURVE",
"623 17 OFFCURVE",
"613 14 CURVE SMOOTH",
"597 9 OFFCURVE",
"615 6 OFFCURVE",
"667 6 CURVE SMOOTH"
);
}
);
width = 876;
}
);
note = N;
unicode = 004E;
},
{
glyphname = O;
lastChange = "2021-12-30 14:02:22 +0000";
layers = (
{
hints = (
{
horizontal = 1;
place = "{6, 39}";
type = Stem;
},
{
horizontal = 1;
place = "{921, 37}";
type = Stem;
},
{
place = "{40, 138}";
type = Stem;
},
{
place = "{653, 119}";
type = Stem;
}
);
layerId = "C933835C-79FD-43B5-B38E-78217E13301A";
paths = (
{
closed = 1;
nodes = (
"493 6 OFFCURVE",
"593 83 OFFCURVE",
"650 139 CURVE SMOOTH",
"731 216 OFFCURVE",
"772 345 OFFCURVE",
"772 472 CURVE SMOOTH",
"772 621 OFFCURVE",
"711 780 OFFCURVE",
"599 880 CURVE SMOOTH",
"542 931 OFFCURVE",
"472 958 OFFCURVE",
"403 958 CURVE SMOOTH",
"256 958 OFFCURVE",
"146 844 OFFCURVE",
"90 717 CURVE SMOOTH",
"57 642 OFFCURVE",
"40 561 OFFCURVE",
"40 476 CURVE SMOOTH",
"40 461 OFFCURVE",
"40 450 OFFCURVE",
"41 443 CURVE SMOOTH",
"50 298 OFFCURVE",
"110 197 OFFCURVE",
"206 92 CURVE",
"281 35 OFFCURVE",
"349 6 OFFCURVE",
"408 6 CURVE SMOOTH"
);
},
{
closed = 1;
nodes = (
"402 45 OFFCURVE",
"378 53 OFFCURVE",
"353 68 CURVE SMOOTH",
"300 100 OFFCURVE",
"273 152 OFFCURVE",
"234 240 CURVE SMOOTH",
"197 324 OFFCURVE",
"178 422 OFFCURVE",
"178 534 CURVE SMOOTH",
"178 629 OFFCURVE",
"197 724 OFFCURVE",
"237 804 CURVE SMOOTH",
"270 868 OFFCURVE",
"329 921 OFFCURVE",
"397 921 CURVE SMOOTH",
"463 921 OFFCURVE",
"530 846 OFFCURVE",
"559 792 CURVE SMOOTH",
"622 677 OFFCURVE",
"653 578 OFFCURVE",
"653 448 CURVE SMOOTH",
"653 313 OFFCURVE",
"616 187 OFFCURVE",
"533 108 CURVE",
"523 100 OFFCURVE",
"480 45 OFFCURVE",
"427 45 CURVE SMOOTH"
);
}
);
width = 812;
}
);
note = O;
unicode = 004F;
},
{
glyphname = Odieresis;
lastChange = "2021-12-30 14:02:22 +0000";
layers = (
{
hints = (
{
horizontal = 1;
place = "{6, 39}";
type = Stem;
},
{
horizontal = 1;
place = "{921, 37}";
type = Stem;
},
{
horizontal = 1;
place = "{1011, 92}";
type = Stem;
},
{
place = "{40, 138}";
type = Stem;
},
{
place = "{277, 66}";
type = Stem;
},
{
place = "{423, 67}";
type = Stem;
},
{
place = "{653, 119}";
type = Stem;
}
);
layerId = "C933835C-79FD-43B5-B38E-78217E13301A";
paths = (
{
closed = 1;
nodes = (
"493 6 OFFCURVE",
"593 83 OFFCURVE",
"650 139 CURVE SMOOTH",
"731 216 OFFCURVE",
"772 345 OFFCURVE",
"772 472 CURVE SMOOTH",
"772 621 OFFCURVE",
"711 780 OFFCURVE",
"599 880 CURVE SMOOTH",
"542 931 OFFCURVE",
"472 958 OFFCURVE",
"403 958 CURVE SMOOTH",
"256 958 OFFCURVE",
"146 844 OFFCURVE",
"90 717 CURVE SMOOTH",
"57 642 OFFCURVE",
"40 561 OFFCURVE",
"40 476 CURVE SMOOTH",
"40 461 OFFCURVE",
"40 450 OFFCURVE",
"41 443 CURVE SMOOTH",
"50 298 OFFCURVE",
"110 197 OFFCURVE",
"206 92 CURVE",
"281 35 OFFCURVE",
"349 6 OFFCURVE",
"408 6 CURVE SMOOTH"
);
},
{
closed = 1;
nodes = (
"402 45 OFFCURVE",
"378 53 OFFCURVE",
"353 68 CURVE SMOOTH",
"300 100 OFFCURVE",
"273 152 OFFCURVE",
"234 240 CURVE SMOOTH",
"197 324 OFFCURVE",
"178 422 OFFCURVE",
"178 534 CURVE SMOOTH",
"178 629 OFFCURVE",
"197 724 OFFCURVE",
"237 804 CURVE SMOOTH",
"270 868 OFFCURVE",
"329 921 OFFCURVE",
"397 921 CURVE SMOOTH",
"463 921 OFFCURVE",
"530 846 OFFCURVE",
"559 792 CURVE SMOOTH",
"622 677 OFFCURVE",
"653 578 OFFCURVE",
"653 448 CURVE SMOOTH",
"653 313 OFFCURVE",
"616 187 OFFCURVE",
"533 108 CURVE",
"523 100 OFFCURVE",
"480 45 OFFCURVE",
"427 45 CURVE SMOOTH"
);
},
{
closed = 1;
nodes = (
"331 1005 OFFCURVE",
"343 1034 OFFCURVE",
"343 1069 CURVE SMOOTH",
"343 1081 OFFCURVE",
"329 1096 OFFCURVE",
"316 1099 CURVE",
"285 1099 OFFCURVE",
"277 1081 OFFCURVE",
"277 1053 CURVE SMOOTH",
"277 1036 OFFCURVE",
"288 1020 OFFCURVE",
"311 1012 CURVE SMOOTH"
);
},
{
closed = 1;
nodes = (
"477 1011 OFFCURVE",
"490 1042 OFFCURVE",
"490 1065 CURVE SMOOTH",
"490 1088 OFFCURVE",
"475 1103 OFFCURVE",
"458 1103 CURVE SMOOTH",
"439 1103 OFFCURVE",
"423 1085 OFFCURVE",
"423 1052 CURVE SMOOTH",
"423 1029 OFFCURVE",
"439 1011 OFFCURVE",
"460 1011 CURVE SMOOTH"
);
}
);
width = 812;
}
);
note = Odieresis;
unicode = 00D6;
},
{
glyphname = P;
lastChange = "2021-12-30 14:02:22 +0000";
layers = (
{
hints = (
{
horizontal = 1;
place = "{8, 7}";
type = Stem;
},
{
horizontal = 1;
place = "{533, 34}";
type = Stem;
},
{
horizontal = 1;
place = "{937, 19}";
type = Stem;
},
{
place = "{163, 100}";
type = Stem;
},
{
place = "{590, 81}";
type = Stem;
},
{
place = "{165, 106}";
type = Stem;
}
);
layerId = "C933835C-79FD-43B5-B38E-78217E13301A";
paths = (
{
closed = 1;
nodes = (
"172 8 LINE SMOOTH",
"284 8 OFFCURVE",
"340 10 OFFCURVE",
"340 14 CURVE SMOOTH",
"340 15 OFFCURVE",
"335 16 OFFCURVE",
"324 18 CURVE SMOOTH",
"273 24 OFFCURVE",
"263 37 OFFCURVE",
"263 131 CURVE SMOOTH",
"263 165 LINE",
"270 426 LINE SMOOTH",
"271 463 OFFCURVE",
"274 494 OFFCURVE",
"277 517 CURVE SMOOTH",
"278 530 OFFCURVE",
"291 534 OFFCURVE",
"316 534 CURVE SMOOTH",
"365 533 LINE SMOOTH",
"484 533 OFFCURVE",
"585 547 OFFCURVE",
"644 667 CURVE SMOOTH",
"662 703 OFFCURVE",
"671 739 OFFCURVE",
"671 776 CURVE SMOOTH",
"671 923 OFFCURVE",
"525 964 OFFCURVE",
"404 964 CURVE SMOOTH",
"375 964 OFFCURVE",
"341 962 OFFCURVE",
"301 959 CURVE SMOOTH",
"278 957 OFFCURVE",
"227 956 OFFCURVE",
"150 956 CURVE SMOOTH",
"51 956 OFFCURVE",
"7 955 OFFCURVE",
"22 946 CURVE SMOOTH",
"31 939 OFFCURVE",
"61 938 OFFCURVE",
"89 937 CURVE SMOOTH",
"138 934 OFFCURVE",
"158 933 OFFCURVE",
"159 922 CURVE SMOOTH",
"163 895 OFFCURVE",
"165 855 OFFCURVE",
"165 802 CURVE SMOOTH",
"165 777 OFFCURVE",
"164 743 OFFCURVE",
"163 700 CURVE SMOOTH",
"162 624 LINE",
"163 463 LINE SMOOTH",
"163 412 OFFCURVE",
"162 366 OFFCURVE",
"159 325 CURVE SMOOTH",
"147 150 LINE",
"146 145 OFFCURVE",
"146 137 OFFCURVE",
"146 124 CURVE SMOOTH",
"145 97 OFFCURVE",
"144 65 OFFCURVE",
"137 50 CURVE SMOOTH",
"123 20 OFFCURVE",
"118 15 OFFCURVE",
"84 15 CURVE SMOOTH",
"77 15 OFFCURVE",
"71 15 OFFCURVE",
"67 14 CURVE SMOOTH",
"61 13 OFFCURVE",
"57 12 OFFCURVE",
"54 11 CURVE",
"54 9 OFFCURVE",
"70 8 OFFCURVE",
"102 8 CURVE SMOOTH"
);
},
{
closed = 1;
nodes = (
"272 564 OFFCURVE",
"272 569 OFFCURVE",
"272 608 CURVE SMOOTH",
"271 756 LINE",
"271 837 LINE SMOOTH",
"271 924 OFFCURVE",
"272 926 OFFCURVE",
"293 926 CURVE SMOOTH",
"352 926 OFFCURVE",
"398 923 OFFCURVE",
"431 917 CURVE SMOOTH",
"498 905 OFFCURVE",
"525 884 OFFCURVE",
"557 844 CURVE SMOOTH",
"579 816 OFFCURVE",
"590 786 OFFCURVE",
"590 753 CURVE SMOOTH",
"590 711 OFFCURVE",
"573 669 OFFCURVE",
"539 627 CURVE SMOOTH",
"504 584 OFFCURVE",
"467 572 OFFCURVE",
"407 569 CURVE SMOOTH",
"303 564 LINE SMOOTH"
);
}
);
width = 651;
}
);
note = P;
unicode = 0050;
},
{
glyphname = Thorn;
lastChange = "2021-12-30 14:02:22 +0000";
layers = (
{
hints = (
{
horizontal = 1;
place = "{509, 39}";
type = Stem;
},
{
place = "{65, 100}";
type = Stem;
},
{
place = "{315, 77}";
type = Stem;
},
{
place = "{68, 106}";
type = Stem;
}
);
layerId = "C933835C-79FD-43B5-B38E-78217E13301A";
paths = (
{
closed = 1;
nodes = (
"51 -555 OFFCURVE",
"57 -552 OFFCURVE",
"65 -546 CURVE",
"116 -494 OFFCURVE",
"141 -429 OFFCURVE",
"145 -332 CURVE SMOOTH",
"148 -271 OFFCURVE",
"155 -180 OFFCURVE",
"167 -59 CURVE",
"168 -55 OFFCURVE",
"169 -42 OFFCURVE",
"170 -20 CURVE SMOOTH",
"171 2 OFFCURVE",
"172 14 OFFCURVE",
"174 15 CURVE SMOOTH",
"259 74 OFFCURVE",
"326 155 OFFCURVE",
"357 248 CURVE SMOOTH",
"376 303 OFFCURVE",
"392 380 OFFCURVE",
"392 432 CURVE SMOOTH",
"392 440 OFFCURVE",
"391 449 OFFCURVE",
"390 460 CURVE SMOOTH",
"378 532 OFFCURVE",
"352 551 OFFCURVE",
"307 551 CURVE SMOOTH",
"277 550 LINE SMOOTH",
"262 549 OFFCURVE",
"250 548 OFFCURVE",
"240 548 CURVE SMOOTH",
"228 548 OFFCURVE",
"219 546 OFFCURVE",
"212 545 CURVE SMOOTH",
"203 543 OFFCURVE",
"194 542 OFFCURVE",
"186 542 CURVE SMOOTH",
"169 542 OFFCURVE",
"160 550 OFFCURVE",
"160 566 CURVE SMOOTH",
"160 598 OFFCURVE",
"162 648 OFFCURVE",
"165 716 CURVE SMOOTH",
"168 771 OFFCURVE",
"171 837 OFFCURVE",
"174 913 CURVE SMOOTH",
"175 946 OFFCURVE",
"180 970 OFFCURVE",
"188 985 CURVE SMOOTH",
"203 1016 OFFCURVE",
"227 1023 OFFCURVE",
"227 1028 CURVE SMOOTH",
"227 1031 OFFCURVE",
"226 1035 OFFCURVE",
"223 1038 CURVE SMOOTH",
"220 1042 OFFCURVE",
"214 1044 OFFCURVE",
"206 1044 CURVE SMOOTH",
"197 1044 OFFCURVE",
"178 1040 OFFCURVE",
"147 1033 CURVE SMOOTH",
"134 1030 OFFCURVE",
"103 1023 OFFCURVE",
"83 1019 CURVE SMOOTH",
"42 1011 OFFCURVE",
"6 999 OFFCURVE",
"-42 968 CURVE",
"-47 963 OFFCURVE",
"-50 960 OFFCURVE",
"-50 959 CURVE SMOOTH",
"-50 958 OFFCURVE",
"-49 958 OFFCURVE",
"-46 958 CURVE SMOOTH",
"-37 958 OFFCURVE",
"-8 964 OFFCURVE",
"8 964 CURVE SMOOTH",
"19 964 OFFCURVE",
"27 962 OFFCURVE",
"31 959 CURVE SMOOTH",
"63 939 OFFCURVE",
"68 863 OFFCURVE",
"68 722 CURVE SMOOTH",
"68 678 OFFCURVE",
"67 635 OFFCURVE",
"66 592 CURVE SMOOTH",
"65 581 OFFCURVE",
"65 570 OFFCURVE",
"65 558 CURVE SMOOTH",
"65 396 OFFCURVE",
"66 233 OFFCURVE",
"68 69 CURVE SMOOTH",
"69 -40 OFFCURVE",
"70 -118 OFFCURVE",
"70 -164 CURVE SMOOTH",
"70 -261 OFFCURVE",
"68 -339 OFFCURVE",
"63 -398 CURVE SMOOTH",
"60 -441 OFFCURVE",
"55 -481 OFFCURVE",
"48 -516 CURVE SMOOTH",
"45 -535 OFFCURVE",
"44 -545 OFFCURVE",
"44 -547 CURVE SMOOTH",
"44 -552 OFFCURVE",
"45 -555 OFFCURVE",
"48 -555 CURVE SMOOTH"
);
},
{
closed = 1;
nodes = (
"174 46 OFFCURVE",
"172 46 OFFCURVE",
"172 49 CURVE SMOOTH",
"171 53 OFFCURVE",
"172 97 OFFCURVE",
"169 181 CURVE SMOOTH",
"165 373 LINE SMOOTH",
"165 381 OFFCURVE",
"163 402 OFFCURVE",
"163 433 CURVE SMOOTH",
"163 480 OFFCURVE",
"166 496 OFFCURVE",
"197 500 CURVE SMOOTH",
"223 504 LINE SMOOTH",
"240 507 OFFCURVE",
"253 509 OFFCURVE",
"263 509 CURVE SMOOTH",
"298 509 OFFCURVE",
"315 491 OFFCURVE",
"315 432 CURVE SMOOTH",
"315 419 OFFCURVE",
"314 402 OFFCURVE",
"312 383 CURVE SMOOTH",
"292 206 OFFCURVE",
"247 95 OFFCURVE",
"177 48 CURVE SMOOTH"
);
}
);
width = 408;
}
);
note = Thorn;
unicode = 00DE;
},
{
glyphname = Q;
lastChange = "2021-12-30 14:02:22 +0000";
layers = (
{
hints = (
{
horizontal = 1;
place = "{4, 41}";
type = Stem;
},
{
horizontal = 1;
place = "{911, 35}";
type = Stem;
},
{
place = "{18, 136}";
type = Stem;
},
{
place = "{647, 126}";
type = Stem;
}
);
layerId = "C933835C-79FD-43B5-B38E-78217E13301A";
paths = (
{
closed = 1;
nodes = (
"923 -291 OFFCURVE",
"905 -275 OFFCURVE",
"870 -250 CURVE SMOOTH",
"767 -177 OFFCURVE",
"679 -50 OFFCURVE",
"618 102 CURVE",
"711 185 OFFCURVE",
"763 311 OFFCURVE",
"772 446 CURVE SMOOTH",
"773 452 OFFCURVE",
"773 461 OFFCURVE",
"773 474 CURVE SMOOTH",
"773 683 OFFCURVE",
"622 946 OFFCURVE",
"389 946 CURVE SMOOTH",
"274 946 OFFCURVE",
"168 875 OFFCURVE",
"96 774 CURVE SMOOTH",
"41 698 OFFCURVE",
"18 584 OFFCURVE",
"18 465 CURVE SMOOTH",
"18 444 OFFCURVE",
"18 429 OFFCURVE",
"19 419 CURVE SMOOTH",
"25 281 OFFCURVE",
"137 106 OFFCURVE",
"258 34 CURVE SMOOTH",
"291 14 OFFCURVE",
"329 4 OFFCURVE",
"370 4 CURVE SMOOTH",
"416 4 OFFCURVE",
"465 16 OFFCURVE",
"518 41 CURVE",
"544 1 LINE SMOOTH",
"615 -113 OFFCURVE",
"752 -232 OFFCURVE",
"878 -287 CURVE SMOOTH",
"908 -300 OFFCURVE",
"923 -304 OFFCURVE",
"923 -298 CURVE SMOOTH"
);
},
{
closed = 1;
nodes = (
"307 45 OFFCURVE",
"255 146 OFFCURVE",
"214 229 CURVE SMOOTH",
"174 309 OFFCURVE",
"154 402 OFFCURVE",
"154 509 CURVE SMOOTH",
"154 637 OFFCURVE",
"188 829 OFFCURVE",
"311 896 CURVE SMOOTH",
"329 906 OFFCURVE",
"347 911 OFFCURVE",
"364 911 CURVE SMOOTH",
"431 911 OFFCURVE",
"491 839 OFFCURVE",
"529 788 CURVE",
"606 696 OFFCURVE",
"647 578 OFFCURVE",
"647 457 CURVE SMOOTH",
"647 321 OFFCURVE",
"608 190 OFFCURVE",
"525 107 CURVE SMOOTH",
"481 64 OFFCURVE",
"455 45 OFFCURVE",
"414 45 CURVE SMOOTH"
);
}
);
width = 790;
}
);
note = Q;
unicode = 0051;
},
{
glyphname = R;
lastChange = "2021-12-30 14:02:22 +0000";
layers = (
{
hints = (
{
horizontal = 1;
place = "{14, 13}";
type = Stem;
},
{
horizontal = 1;
place = "{539, 31}";
type = Stem;
},
{
horizontal = 1;
place = "{935, 21}";
type = Stem;
},
{
place = "{138, 116}";
type = Stem;
},
{
place = "{569, 65}";
type = Stem;
},
{
horizontal = 1;
place = "{9, 10}";
type = Stem;
},
{
horizontal = 1;
place = "{925, 38}";
type = Stem;
},
{
place = "{146, 117}";
type = Stem;
}
);
layerId = "C933835C-79FD-43B5-B38E-78217E13301A";
paths = (
{
closed = 1;
nodes = (
"50 7 OFFCURVE",
"79 8 OFFCURVE",
"118 11 CURVE SMOOTH",
"153 13 LINE SMOOTH",
"184 14 OFFCURVE",
"223 14 OFFCURVE",
"270 14 CURVE SMOOTH",
"313 14 OFFCURVE",
"334 15 OFFCURVE",
"334 16 CURVE SMOOTH",
"334 17 OFFCURVE",
"314 21 OFFCURVE",
"274 27 CURVE",
"260 27 OFFCURVE",
"253 52 OFFCURVE",
"253 103 CURVE SMOOTH",
"254 138 LINE",
"255 144 OFFCURVE",
"255 152 OFFCURVE",
"255 162 CURVE SMOOTH",
"261 375 LINE SMOOTH",
"261 468 OFFCURVE",
"263 520 OFFCURVE",
"266 530 CURVE SMOOTH",
"267 533 OFFCURVE",
"289 504 OFFCURVE",
"332 445 CURVE SMOOTH",
"375 385 OFFCURVE",
"406 342 OFFCURVE",
"423 317 CURVE SMOOTH",
"602 40 LINE",
"605 37 OFFCURVE",
"606 33 OFFCURVE",
"606 30 CURVE SMOOTH",
"606 21 OFFCURVE",
"593 19 OFFCURVE",
"572 19 CURVE SMOOTH",
"568 19 OFFCURVE",
"552 18 OFFCURVE",
"547 15 CURVE",
"540 14 OFFCURVE",
"536 13 OFFCURVE",
"536 11 CURVE SMOOTH",
"536 10 OFFCURVE",
"544 9 OFFCURVE",
"561 9 CURVE SMOOTH",
"574 9 OFFCURVE",
"596 10 OFFCURVE",
"628 11 CURVE SMOOTH",
"684 12 LINE SMOOTH",
"693 13 OFFCURVE",
"706 13 OFFCURVE",
"721 11 CURVE SMOOTH",
"729 10 OFFCURVE",
"736 9 OFFCURVE",
"743 9 CURVE SMOOTH",
"794 12 LINE SMOOTH",
"821 13 OFFCURVE",
"834 14 OFFCURVE",
"834 17 CURVE SMOOTH",
"834 19 OFFCURVE",
"825 21 OFFCURVE",
"807 24 CURVE SMOOTH",
"800 25 OFFCURVE",
"790 26 OFFCURVE",
"782 29 CURVE SMOOTH",
"735 49 OFFCURVE",
"689 100 OFFCURVE",
"612 209 CURVE SMOOTH",
"539 312 LINE",
"475 405 LINE SMOOTH",
"426 477 OFFCURVE",
"396 521 OFFCURVE",
"385 536 CURVE",
"413 542 LINE SMOOTH",
"564 574 OFFCURVE",
"634 669 OFFCURVE",
"634 774 CURVE SMOOTH",
"634 913 OFFCURVE",
"532 963 OFFCURVE",
"410 963 CURVE SMOOTH",
"378 963 OFFCURVE",
"339 960 OFFCURVE",
"292 954 CURVE SMOOTH",
"277 953 OFFCURVE",
"266 952 OFFCURVE",
"258 952 CURVE SMOOTH",
"247 952 OFFCURVE",
"230 953 OFFCURVE",
"209 954 CURVE SMOOTH",
"186 955 OFFCURVE",
"170 956 OFFCURVE",
"159 956 CURVE SMOOTH",
"146 956 OFFCURVE",
"136 956 OFFCURVE",
"129 955 CURVE SMOOTH",
"109 954 OFFCURVE",
"87 956 OFFCURVE",
"76 956 CURVE SMOOTH",
"63 956 OFFCURVE",
"48 952 OFFCURVE",
"30 944 CURVE SMOOTH",
"21 941 OFFCURVE",
"17 939 OFFCURVE",
"17 936 CURVE SMOOTH",
"17 933 OFFCURVE",
"26 932 OFFCURVE",
"44 932 CURVE SMOOTH",
"59 932 OFFCURVE",
"78 933 OFFCURVE",
"102 935 CURVE SMOOTH",
"133 936 OFFCURVE",
"142 928 OFFCURVE",
"147 899 CURVE SMOOTH",
"152 872 OFFCURVE",
"154 841 OFFCURVE",
"154 808 CURVE SMOOTH",
"154 784 OFFCURVE",
"153 750 OFFCURVE",
"150 706 CURVE SMOOTH",
"147 665 OFFCURVE",
"146 636 OFFCURVE",
"146 619 CURVE SMOOTH",
"146 504 OFFCURVE",
"144 406 OFFCURVE",
"141 324 CURVE SMOOTH",
"136 176 LINE SMOOTH",
"133 84 OFFCURVE",
"122 29 OFFCURVE",
"106 26 CURVE SMOOTH",
"84 22 LINE SMOOTH",
"67 19 OFFCURVE",
"53 18 OFFCURVE",
"40 17 CURVE",
"24 13 OFFCURVE",
"16 10 OFFCURVE",
"16 9 CURVE SMOOTH",
"16 8 OFFCURVE",
"21 7 OFFCURVE",
"31 7 CURVE SMOOTH"
);
},
{
closed = 1;
nodes = (
"264 575 LINE",
"263 590 OFFCURVE",
"263 612 OFFCURVE",
"263 641 CURVE SMOOTH",
"263 662 OFFCURVE",
"263 677 OFFCURVE",
"264 688 CURVE SMOOTH",
"264 726 OFFCURVE",
"267 766 OFFCURVE",
"274 804 CURVE SMOOTH",
"279 838 LINE SMOOTH",
"284 889 OFFCURVE",
"290 925 OFFCURVE",
"354 925 CURVE SMOOTH",
"457 925 OFFCURVE",
"569 852 OFFCURVE",
"569 741 CURVE SMOOTH",
"569 704 OFFCURVE",
"555 668 OFFCURVE",
"527 634 CURVE SMOOTH",
"492 594 OFFCURVE",
"430 567 OFFCURVE",
"371 570 CURVE SMOOTH"
);
}
);
width = 777;
}
);
note = R;
unicode = 0052;
},
{
glyphname = S;
lastChange = "2021-12-30 14:02:22 +0000";
layers = (
{
hints = (
{
horizontal = 1;
place = "{-26, 21}";
target = up;
type = BottomGhost;
},
{
horizontal = 1;
place = "{12, 27}";
type = Stem;
},
{
horizontal = 1;
place = "{425, 112}";
type = Stem;
},
{
horizontal = 1;
place = "{946, 30}";
type = Stem;
},
{
place = "{39, 71}";
type = Stem;
},
{
place = "{543, 76}";
type = Stem;
}
);
layerId = "C933835C-79FD-43B5-B38E-78217E13301A";
paths = (
{
closed = 1;
nodes = (
"68 -29 OFFCURVE",
"70 -28 OFFCURVE",
"75 -17 CURVE SMOOTH",
"83 6 OFFCURVE",
"91 21 OFFCURVE",
"102 24 CURVE",
"108 27 OFFCURVE",
"116 29 OFFCURVE",
"125 29 CURVE SMOOTH",
"131 29 OFFCURVE",
"139 28 OFFCURVE",
"148 27 CURVE SMOOTH",
"151 27 OFFCURVE",
"161 26 OFFCURVE",
"178 23 CURVE SMOOTH",
"214 18 OFFCURVE",
"266 12 OFFCURVE",
"314 12 CURVE SMOOTH",
"363 12 OFFCURVE",
"406 17 OFFCURVE",
"443 28 CURVE",
"545 70 OFFCURVE",
"619 170 OFFCURVE",
"619 282 CURVE SMOOTH",
"619 426 OFFCURVE",
"510 537 OFFCURVE",
"365 537 CURVE",
"193 550 OFFCURVE",
"110 630 OFFCURVE",
"110 761 CURVE SMOOTH",
"110 823 OFFCURVE",
"121 880 OFFCURVE",
"180 914 CURVE SMOOTH",
"217 935 OFFCURVE",
"260 946 OFFCURVE",
"307 946 CURVE SMOOTH",
"340 946 OFFCURVE",
"369 941 OFFCURVE",
"393 931 CURVE SMOOTH",
"429 914 OFFCURVE",
"470 882 OFFCURVE",
"493 854 CURVE SMOOTH",
"509 835 OFFCURVE",
"520 800 OFFCURVE",
"524 789 CURVE",
"525 788 OFFCURVE",
"528 781 OFFCURVE",
"535 768 CURVE SMOOTH",
"541 755 OFFCURVE",
"545 748 OFFCURVE",
"546 747 CURVE SMOOTH",
"551 742 OFFCURVE",
"549 755 OFFCURVE",
"548 760 CURVE",
"541 777 OFFCURVE",
"538 799 OFFCURVE",
"538 826 CURVE SMOOTH",
"538 835 OFFCURVE",
"539 848 OFFCURVE",
"540 865 CURVE SMOOTH",
"541 904 LINE SMOOTH",
"541 912 OFFCURVE",
"538 975 OFFCURVE",
"528 975 CURVE SMOOTH",
"525 975 OFFCURVE",
"517 966 OFFCURVE",
"510 963 CURVE SMOOTH",
"507 962 OFFCURVE",
"502 961 OFFCURVE",
"496 961 CURVE SMOOTH",
"487 961 OFFCURVE",
"468 965 OFFCURVE",
"456 965 CURVE SMOOTH",
"431 965 OFFCURVE",
"410 967 OFFCURVE",
"393 970 CURVE SMOOTH",
"361 974 OFFCURVE",
"337 976 OFFCURVE",
"320 976 CURVE SMOOTH",
"305 976 OFFCURVE",
"292 975 OFFCURVE",
"279 973 CURVE SMOOTH",
"116 954 OFFCURVE",
"39 889 OFFCURVE",
"39 724 CURVE SMOOTH",
"39 653 OFFCURVE",
"45 573 OFFCURVE",
"96 519 CURVE SMOOTH",
"153 456 OFFCURVE",
"241 425 OFFCURVE",
"318 425 CURVE SMOOTH",
"460 425 OFFCURVE",
"513 391 OFFCURVE",
"541 258 CURVE SMOOTH",
"542 252 OFFCURVE",
"543 243 OFFCURVE",
"543 230 CURVE SMOOTH",
"543 108 OFFCURVE",
"407 39 OFFCURVE",
"299 39 CURVE SMOOTH",
"190 39 OFFCURVE",
"112 95 OFFCURVE",
"71 192 CURVE SMOOTH",
"67 200 OFFCURVE",
"57 229 OFFCURVE",
"50 241 CURVE",
"45 243 OFFCURVE",
"43 240 OFFCURVE",
"43 231 CURVE SMOOTH",
"43 222 OFFCURVE",
"45 210 OFFCURVE",
"48 197 CURVE SMOOTH",
"51 176 LINE",
"63 147 OFFCURVE",
"72 89 OFFCURVE",
"72 58 CURVE SMOOTH",
"69 19 OFFCURVE",
"68 -7 OFFCURVE",
"68 -20 CURVE SMOOTH"
);
}
);
width = 634;
}
);
note = S;
unicode = 0053;
},
{
glyphname = T;
lastChange = "2021-12-30 14:02:22 +0000";
layers = (
{
hints = (
{
horizontal = 1;
place = "{9, 8}";
type = Stem;
},
{
horizontal = 1;
place = "{901, 51}";
type = Stem;
},
{
place = "{50, 15}";
type = Stem;
},
{
place = "{335, 96}";
type = Stem;
},
{
horizontal = 1;
place = "{904, 51}";
type = Stem;
}
);
layerId = "C933835C-79FD-43B5-B38E-78217E13301A";
paths = (
{
closed = 1;
nodes = (
"473 9 LINE SMOOTH",
"512 9 OFFCURVE",
"531 10 OFFCURVE",
"531 12 CURVE SMOOTH",
"531 13 OFFCURVE",
"523 15 OFFCURVE",
"508 17 CURVE",
"464 17 OFFCURVE",
"442 31 OFFCURVE",
"441 58 CURVE SMOOTH",
"432 392 LINE",
"431 452 LINE SMOOTH",
"431 526 OFFCURVE",
"433 603 OFFCURVE",
"438 682 CURVE SMOOTH",
"446 823 LINE SMOOTH",
"449 876 OFFCURVE",
"450 892 OFFCURVE",
"459 895 CURVE SMOOTH",
"474 899 OFFCURVE",
"494 901 OFFCURVE",
"521 901 CURVE SMOOTH",
"562 901 OFFCURVE",
"656 900 OFFCURVE",
"686 870 CURVE SMOOTH",
"697 859 OFFCURVE",
"704 844 OFFCURVE",
"708 827 CURVE SMOOTH",
"711 810 OFFCURVE",
"713 800 OFFCURVE",
"714 797 CURVE SMOOTH",
"716 787 OFFCURVE",
"718 782 OFFCURVE",
"719 782 CURVE SMOOTH",
"720 782 OFFCURVE",
"721 791 OFFCURVE",
"721 808 CURVE SMOOTH",
"720 882 LINE SMOOTH",
"720 899 OFFCURVE",
"721 913 OFFCURVE",
"722 925 CURVE SMOOTH",
"723 936 OFFCURVE",
"723 951 OFFCURVE",
"724 970 CURVE SMOOTH",
"725 989 OFFCURVE",
"724 993 OFFCURVE",
"721 983 CURVE SMOOTH",
"715 965 LINE",
"711 959 OFFCURVE",
"698 952 OFFCURVE",
"666 952 CURVE SMOOTH",
"417 951 LINE SMOOTH",
"383 951 OFFCURVE",
"331 952 OFFCURVE",
"260 953 CURVE SMOOTH",
"192 954 OFFCURVE",
"142 955 OFFCURVE",
"110 955 CURVE SMOOTH",
"82 955 OFFCURVE",
"67 958 OFFCURVE",
"65 965 CURVE SMOOTH",
"58 982 OFFCURVE",
"53 990 OFFCURVE",
"50 990 CURVE SMOOTH",
"47 990 OFFCURVE",
"46 986 OFFCURVE",
"46 978 CURVE SMOOTH",
"46 973 OFFCURVE",
"46 968 OFFCURVE",
"47 965 CURVE",
"49 950 OFFCURVE",
"50 936 OFFCURVE",
"50 921 CURVE SMOOTH",
"49 888 LINE",
"48 883 OFFCURVE",
"48 877 OFFCURVE",
"48 868 CURVE SMOOTH",
"47 836 LINE",
"46 831 OFFCURVE",
"46 823 OFFCURVE",
"46 813 CURVE SMOOTH",
"46 797 OFFCURVE",
"48 779 OFFCURVE",
"51 759 CURVE SMOOTH",
"53 748 OFFCURVE",
"55 743 OFFCURVE",
"57 743 CURVE SMOOTH",
"60 743 OFFCURVE",
"62 761 OFFCURVE",
"65 781 CURVE SMOOTH",
"73 837 OFFCURVE",
"78 866 OFFCURVE",
"91 874 CURVE SMOOTH",
"118 891 OFFCURVE",
"291 904 OFFCURVE",
"331 904 CURVE SMOOTH",
"334 904 OFFCURVE",
"335 835 OFFCURVE",
"335 698 CURVE SMOOTH",
"331 378 LINE SMOOTH",
"330 266 OFFCURVE",
"315 137 OFFCURVE",
"292 38 CURVE SMOOTH",
"291 31 OFFCURVE",
"286 27 OFFCURVE",
"279 24 CURVE SMOOTH",
"264 18 OFFCURVE",
"237 17 OFFCURVE",
"225 14 CURVE SMOOTH",
"206 10 OFFCURVE",
"233 8 OFFCURVE",
"305 8 CURVE SMOOTH"
);
}
);
width = 694;
}
);
note = T;
unicode = 0054;
},
{
glyphname = U;
lastChange = "2021-12-30 14:02:16 +0000";
layers = (
{
hints = (
{
horizontal = 1;
place = "{6, 26}";
type = Stem;
},
{
horizontal = 1;
place = "{949, 15}";
type = Stem;
},
{
place = "{69, 116}";
type = Stem;
},
{
place = "{701, 75}";
type = Stem;
},
{
horizontal = 1;
place = "{944, 12}";
type = Stem;
},
{
horizontal = 1;
place = "{940, 10}";
type = Stem;
}
);
layerId = "C933835C-79FD-43B5-B38E-78217E13301A";
paths = (
{
closed = 1;
nodes = (
"756 -58 OFFCURVE",
"776 12 OFFCURVE",
"776 304 CURVE SMOOTH",
"776 864 LINE SMOOTH",
"776 891 OFFCURVE",
"778 911 OFFCURVE",
"781 924 CURVE SMOOTH",
"788 948 OFFCURVE",
"795 951 OFFCURVE",
"819 959 CURVE SMOOTH",
"831 963 OFFCURVE",
"815 965 OFFCURVE",
"770 965 CURVE SMOOTH",
"664 964 LINE SMOOTH",
"628 964 OFFCURVE",
"610 962 OFFCURVE",
"610 957 CURVE SMOOTH",
"610 954 OFFCURVE",
"619 951 OFFCURVE",
"636 949 CURVE SMOOTH",
"663 945 OFFCURVE",
"680 905 OFFCURVE",
"689 830 CURVE SMOOTH",
"697 755 OFFCURVE",
"701 669 OFFCURVE",
"701 573 CURVE SMOOTH",
"701 538 LINE SMOOTH",
"701 412 OFFCURVE",
"686 227 OFFCURVE",
"612 121 CURVE SMOOTH",
"572 65 OFFCURVE",
"500 32 OFFCURVE",
"429 32 CURVE SMOOTH",
"374 32 OFFCURVE",
"324 51 OFFCURVE",
"292 86 CURVE SMOOTH",
"221 165 OFFCURVE",
"185 290 OFFCURVE",
"185 460 CURVE SMOOTH",
"185 563 OFFCURVE",
"199 690 OFFCURVE",
"227 839 CURVE SMOOTH",
"236 891 OFFCURVE",
"253 941 OFFCURVE",
"272 944 CURVE SMOOTH",
"296 947 OFFCURVE",
"308 950 OFFCURVE",
"308 953 CURVE SMOOTH",
"308 955 OFFCURVE",
"293 956 OFFCURVE",
"262 956 CURVE SMOOTH",
"159 956 LINE",
"45 950 LINE SMOOTH",
"28 950 OFFCURVE",
"6 952 OFFCURVE",
"-12 944 CURVE SMOOTH",
"-16 942 OFFCURVE",
"-10 941 OFFCURVE",
"8 940 CURVE SMOOTH",
"42 938 OFFCURVE",
"77 931 OFFCURVE",
"88 907 CURVE SMOOTH",
"102 874 OFFCURVE",
"109 838 OFFCURVE",
"109 797 CURVE SMOOTH",
"109 772 OFFCURVE",
"106 738 OFFCURVE",
"99 695 CURVE SMOOTH",
"79 584 OFFCURVE",
"69 494 OFFCURVE",
"69 426 CURVE SMOOTH",
"69 331 OFFCURVE",
"87 252 OFFCURVE",
"128 168 CURVE SMOOTH",
"180 63 OFFCURVE",
"294 6 OFFCURVE",
"422 6 CURVE SMOOTH",
"560 6 OFFCURVE",
"635 59 OFFCURVE",
"724 165 CURVE SMOOTH",
"728 170 OFFCURVE",
"732 159 OFFCURVE",
"737 132 CURVE SMOOTH",
"744 92 OFFCURVE",
"756 13 OFFCURVE",
"756 -27 CURVE SMOOTH"
);
}
);
width = 890;
}
);
note = U;
unicode = 0055;
},
{
glyphname = Udieresis;
lastChange = "2021-12-30 14:02:22 +0000";
layers = (
{
hints = (
{
horizontal = 1;
place = "{6, 26}";
type = Stem;
},
{
horizontal = 1;
place = "{949, 15}";
type = Stem;
},
{
place = "{69, 116}";
type = Stem;
},
{
place = "{340, 66}";
type = Stem;
},
{
place = "{489, 64}";
type = Stem;
},
{
place = "{701, 75}";
type = Stem;
},
{
horizontal = 1;
place = "{944, 12}";
type = Stem;
},
{
horizontal = 1;
place = "{940, 10}";
type = Stem;
}
);
layerId = "C933835C-79FD-43B5-B38E-78217E13301A";
paths = (
{
closed = 1;
nodes = (
"756 -58 OFFCURVE",
"776 12 OFFCURVE",
"776 304 CURVE SMOOTH",
"776 864 LINE SMOOTH",
"776 891 OFFCURVE",
"778 911 OFFCURVE",
"781 924 CURVE SMOOTH",
"788 948 OFFCURVE",
"795 951 OFFCURVE",
"819 959 CURVE SMOOTH",
"831 963 OFFCURVE",
"815 965 OFFCURVE",
"770 965 CURVE SMOOTH",
"664 964 LINE SMOOTH",
"628 964 OFFCURVE",
"610 962 OFFCURVE",
"610 957 CURVE SMOOTH",
"610 954 OFFCURVE",
"619 951 OFFCURVE",
"636 949 CURVE SMOOTH",
"663 945 OFFCURVE",
"680 905 OFFCURVE",
"689 830 CURVE SMOOTH",
"697 755 OFFCURVE",
"701 669 OFFCURVE",
"701 573 CURVE SMOOTH",
"701 538 LINE SMOOTH",
"701 412 OFFCURVE",
"686 227 OFFCURVE",
"612 121 CURVE SMOOTH",
"572 65 OFFCURVE",
"500 32 OFFCURVE",
"429 32 CURVE SMOOTH",
"374 32 OFFCURVE",
"324 51 OFFCURVE",
"292 86 CURVE SMOOTH",
"221 165 OFFCURVE",
"185 290 OFFCURVE",
"185 460 CURVE SMOOTH",
"185 563 OFFCURVE",
"199 690 OFFCURVE",
"227 839 CURVE SMOOTH",
"236 891 OFFCURVE",
"253 941 OFFCURVE",
"272 944 CURVE SMOOTH",
"296 947 OFFCURVE",
"308 950 OFFCURVE",
"308 953 CURVE SMOOTH",
"308 955 OFFCURVE",
"293 956 OFFCURVE",
"262 956 CURVE SMOOTH",
"159 956 LINE",
"45 950 LINE SMOOTH",
"28 950 OFFCURVE",
"6 952 OFFCURVE",
"-12 944 CURVE SMOOTH",
"-16 942 OFFCURVE",
"-10 941 OFFCURVE",
"8 940 CURVE SMOOTH",
"42 938 OFFCURVE",
"77 931 OFFCURVE",
"88 907 CURVE SMOOTH",
"102 874 OFFCURVE",
"109 838 OFFCURVE",
"109 797 CURVE SMOOTH",
"109 772 OFFCURVE",
"106 738 OFFCURVE",
"99 695 CURVE SMOOTH",
"79 584 OFFCURVE",
"69 494 OFFCURVE",
"69 426 CURVE SMOOTH",
"69 331 OFFCURVE",
"87 252 OFFCURVE",
"128 168 CURVE SMOOTH",
"180 63 OFFCURVE",
"294 6 OFFCURVE",
"422 6 CURVE SMOOTH",
"560 6 OFFCURVE",
"635 59 OFFCURVE",
"724 165 CURVE SMOOTH",
"728 170 OFFCURVE",
"732 159 OFFCURVE",
"737 132 CURVE SMOOTH",
"744 92 OFFCURVE",
"756 13 OFFCURVE",
"756 -27 CURVE SMOOTH"
);
},
{
closed = 1;
nodes = (
"394 1005 OFFCURVE",
"406 1037 OFFCURVE",
"406 1074 CURVE SMOOTH",
"406 1087 OFFCURVE",
"392 1103 OFFCURVE",
"379 1107 CURVE",
"348 1107 OFFCURVE",
"340 1087 OFFCURVE",
"340 1056 CURVE SMOOTH",
"340 1037 OFFCURVE",
"351 1020 OFFCURVE",
"374 1012 CURVE SMOOTH"
);
},
{
closed = 1;
nodes = (
"543 1011 OFFCURVE",
"553 1044 OFFCURVE",
"553 1060 CURVE SMOOTH",
"553 1088 OFFCURVE",
"530 1102 OFFCURVE",
"506 1102 CURVE SMOOTH",
"493 1102 OFFCURVE",
"486 1098 OFFCURVE",
"486 1091 CURVE SMOOTH",
"486 1089 LINE SMOOTH",
"487 1082 OFFCURVE",
"489 1069 OFFCURVE",
"489 1064 CURVE SMOOTH",
"490 1041 OFFCURVE",
"494 1027 OFFCURVE",
"503 1020 CURVE SMOOTH",
"512 1014 OFFCURVE",
"519 1011 OFFCURVE",
"524 1011 CURVE SMOOTH"
);
}
);
width = 890;
}
);
note = Udieresis;
unicode = 00DC;
},
{
glyphname = V;
lastChange = "2021-12-30 14:02:22 +0000";
layers = (
{
hints = (
{
horizontal = 1;
place = "{9, 70}";
type = Stem;
},
{
horizontal = 1;
place = "{938, 12}";
type = Stem;
},
{
place = "{-20, 908}";
type = Stem;
},
{
horizontal = 1;
place = "{939, 14}";
type = Stem;
}
);
layerId = "C933835C-79FD-43B5-B38E-78217E13301A";
paths = (
{
closed = 1;
nodes = (
"520 11 LINE",
"525 12 OFFCURVE",
"535 11 OFFCURVE",
"548 10 CURVE SMOOTH",
"560 9 OFFCURVE",
"569 8 OFFCURVE",
"574 8 CURVE SMOOTH",
"589 8 OFFCURVE",
"600 10 OFFCURVE",
"607 15 CURVE",
"604 20 OFFCURVE",
"597 23 OFFCURVE",
"587 26 CURVE",
"586 27 OFFCURVE",
"574 30 OFFCURVE",
"567 39 CURVE SMOOTH",
"562 44 OFFCURVE",
"560 50 OFFCURVE",
"560 58 CURVE SMOOTH",
"560 66 OFFCURVE",
"564 79 OFFCURVE",
"565 84 CURVE SMOOTH",
"570 104 LINE SMOOTH",
"577 145 OFFCURVE",
"586 184 OFFCURVE",
"597 223 CURVE SMOOTH",
"608 261 OFFCURVE",
"625 312 OFFCURVE",
"646 375 CURVE SMOOTH",
"671 446 OFFCURVE",
"688 502 OFFCURVE",
"699 543 CURVE SMOOTH",
"717 613 LINE SMOOTH",
"732 676 OFFCURVE",
"746 725 OFFCURVE",
"758 762 CURVE SMOOTH",
"795 873 LINE SMOOTH",
"800 890 OFFCURVE",
"802 921 OFFCURVE",
"831 932 CURVE SMOOTH",
"851 938 LINE SMOOTH",
"876 944 OFFCURVE",
"888 948 OFFCURVE",
"888 951 CURVE SMOOTH",
"888 952 OFFCURVE",
"882 953 OFFCURVE",
"871 953 CURVE SMOOTH",
"649 953 LINE SMOOTH",
"630 953 OFFCURVE",
"618 953 OFFCURVE",
"614 952 CURVE SMOOTH",
"598 949 OFFCURVE",
"590 947 OFFCURVE",
"590 946 CURVE SMOOTH",
"590 943 OFFCURVE",
"600 942 OFFCURVE",
"620 941 CURVE SMOOTH",
"640 940 OFFCURVE",
"654 939 OFFCURVE",
"662 939 CURVE SMOOTH",
"685 939 LINE SMOOTH",
"706 939 OFFCURVE",
"718 933 OFFCURVE",
"721 920 CURVE SMOOTH",
"722 917 OFFCURVE",
"722 913 OFFCURVE",
"722 908 CURVE SMOOTH",
"722 898 OFFCURVE",
"719 881 OFFCURVE",
"713 857 CURVE SMOOTH",
"710 848 OFFCURVE",
"708 840 OFFCURVE",
"707 833 CURVE SMOOTH",
"696 771 OFFCURVE",
"679 696 OFFCURVE",
"656 608 CURVE SMOOTH",
"636 528 OFFCURVE",
"622 468 OFFCURVE",
"614 428 CURVE SMOOTH",
"609 402 OFFCURVE",
"598 360 OFFCURVE",
"580 301 CURVE SMOOTH",
"561 241 OFFCURVE",
"548 194 OFFCURVE",
"542 159 CURVE SMOOTH",
"539 142 OFFCURVE",
"531 124 OFFCURVE",
"523 108 CURVE SMOOTH",
"516 96 OFFCURVE",
"512 87 OFFCURVE",
"509 80 CURVE",
"496 79 OFFCURVE",
"473 144 OFFCURVE",
"442 275 CURVE SMOOTH",
"434 306 LINE",
"383 484 LINE SMOOTH",
"377 507 OFFCURVE",
"369 531 OFFCURVE",
"360 557 CURVE SMOOTH",
"346 598 OFFCURVE",
"332 638 OFFCURVE",
"319 679 CURVE SMOOTH",
"307 716 OFFCURVE",
"297 751 OFFCURVE",
"289 784 CURVE SMOOTH",
"270 865 LINE SMOOTH",
"267 878 OFFCURVE",
"265 889 OFFCURVE",
"265 897 CURVE SMOOTH",
"265 907 OFFCURVE",
"268 915 OFFCURVE",
"275 921 CURVE SMOOTH",
"280 926 OFFCURVE",
"290 931 OFFCURVE",
"306 938 CURVE SMOOTH",
"319 944 OFFCURVE",
"326 948 OFFCURVE",
"326 950 CURVE SMOOTH",
"326 952 OFFCURVE",
"319 953 OFFCURVE",
"306 953 CURVE SMOOTH",
"273 953 OFFCURVE",
"252 953 OFFCURVE",
"242 952 CURVE",
"193 952 LINE",
"142 953 LINE SMOOTH",
"121 954 OFFCURVE",
"103 955 OFFCURVE",
"89 955 CURVE SMOOTH",
"35 953 LINE",
"-5 950 LINE SMOOTH",
"-15 950 OFFCURVE",
"-20 949 OFFCURVE",
"-20 947 CURVE SMOOTH",
"-20 943 OFFCURVE",
"2 938 OFFCURVE",
"19 938 CURVE SMOOTH",
"30 938 OFFCURVE",
"39 937 OFFCURVE",
"45 936 CURVE",
"57 932 OFFCURVE",
"71 914 OFFCURVE",
"75 909 CURVE SMOOTH",
"111 869 OFFCURVE",
"135 817 OFFCURVE",
"160 748 CURVE SMOOTH",
"182 687 OFFCURVE",
"210 605 OFFCURVE",
"245 500 CURVE SMOOTH",
"336 234 LINE SMOOTH",
"345 209 OFFCURVE",
"354 178 OFFCURVE",
"363 140 CURVE SMOOTH",
"370 113 OFFCURVE",
"378 85 OFFCURVE",
"387 56 CURVE",
"393 45 OFFCURVE",
"396 36 OFFCURVE",
"396 30 CURVE SMOOTH",
"396 16 OFFCURVE",
"376 25 OFFCURVE",
"374 10 CURVE",
"424 8 LINE"
);
}
);
width = 889;
}
);
note = V;
unicode = 0056;
},
{
glyphname = W;
lastChange = "2021-12-30 14:02:22 +0000";
layers = (
{
hints = (
{
horizontal = 1;
place = "{15, 104}";
type = Stem;
},
{
horizontal = 1;
place = "{934, 19}";
type = Stem;
},
{
place = "{13, 1226}";
type = Stem;
},
{
horizontal = 1;
place = "{14, 8}";
type = Stem;
},
{
place = "{614, 138}";
type = Stem;
}
);
layerId = "C933835C-79FD-43B5-B38E-78217E13301A";
paths = (
{
closed = 1;
nodes = (
"828 11 LINE",
"915 15 LINE SMOOTH",
"930 16 OFFCURVE",
"954 15 OFFCURVE",
"965 15 CURVE",
"970 14 OFFCURVE",
"977 14 OFFCURVE",
"986 14 CURVE SMOOTH",
"994 14 OFFCURVE",
"998 15 OFFCURVE",
"998 16 CURVE SMOOTH",
"998 18 OFFCURVE",
"993 21 OFFCURVE",
"984 26 CURVE SMOOTH",
"977 30 OFFCURVE",
"973 37 OFFCURVE",
"973 47 CURVE SMOOTH",
"973 64 OFFCURVE",
"986 94 OFFCURVE",
"989 105 CURVE SMOOTH",
"1091 537 LINE SMOOTH",
"1102 578 OFFCURVE",
"1108 610 OFFCURVE",
"1112 630 CURVE SMOOTH",
"1121 680 OFFCURVE",
"1131 723 OFFCURVE",
"1142 758 CURVE SMOOTH",
"1176 871 LINE SMOOTH",
"1184 899 OFFCURVE",
"1192 908 OFFCURVE",
"1224 929 CURVE SMOOTH",
"1234 936 OFFCURVE",
"1239 940 OFFCURVE",
"1239 943 CURVE SMOOTH",
"1239 947 OFFCURVE",
"1232 949 OFFCURVE",
"1218 950 CURVE SMOOTH",
"1189 950 OFFCURVE",
"1171 952 OFFCURVE",
"1167 952 CURVE SMOOTH",
"1058 952 LINE SMOOTH",
"1045 952 OFFCURVE",
"1039 950 OFFCURVE",
"1039 947 CURVE SMOOTH",
"1039 944 OFFCURVE",
"1044 940 OFFCURVE",
"1053 933 CURVE SMOOTH",
"1062 926 OFFCURVE",
"1068 921 OFFCURVE",
"1069 919 CURVE SMOOTH",
"1078 905 OFFCURVE",
"1083 885 OFFCURVE",
"1083 860 CURVE SMOOTH",
"1083 841 OFFCURVE",
"1080 811 OFFCURVE",
"1074 772 CURVE SMOOTH",
"1071 753 OFFCURVE",
"1067 727 OFFCURVE",
"1064 694 CURVE SMOOTH",
"1052 579 OFFCURVE",
"1036 464 OFFCURVE",
"1009 352 CURVE SMOOTH",
"1004 332 LINE SMOOTH",
"983 241 OFFCURVE",
"968 182 OFFCURVE",
"960 153 CURVE SMOOTH",
"952 124 OFFCURVE",
"947 113 OFFCURVE",
"944 122 CURVE SMOOTH",
"919 208 LINE SMOOTH",
"880 337 OFFCURVE",
"842 489 OFFCURVE",
"804 662 CURVE SMOOTH",
"791 717 LINE SMOOTH",
"778 768 OFFCURVE",
"771 800 OFFCURVE",
"768 815 CURVE SMOOTH",
"757 860 LINE SMOOTH",
"754 873 OFFCURVE",
"752 885 OFFCURVE",
"752 895 CURVE SMOOTH",
"753 927 OFFCURVE",
"761 935 OFFCURVE",
"793 943 CURVE SMOOTH",
"798 944 OFFCURVE",
"800 945 OFFCURVE",
"800 947 CURVE SMOOTH",
"800 950 OFFCURVE",
"786 951 OFFCURVE",
"759 952 CURVE SMOOTH",
"732 953 OFFCURVE",
"712 953 OFFCURVE",
"700 952 CURVE SMOOTH",
"679 951 OFFCURVE",
"663 952 OFFCURVE",
"654 952 CURVE SMOOTH",
"645 953 OFFCURVE",
"633 953 OFFCURVE",
"616 953 CURVE SMOOTH",
"524 948 LINE SMOOTH",
"517 948 OFFCURVE",
"513 947 OFFCURVE",
"513 946 CURVE SMOOTH",
"513 943 OFFCURVE",
"528 939 OFFCURVE",
"557 934 CURVE SMOOTH",
"568 932 OFFCURVE",
"577 930 OFFCURVE",
"582 928 CURVE",
"603 923 OFFCURVE",
"614 897 OFFCURVE",
"614 851 CURVE SMOOTH",
"614 828 OFFCURVE",
"612 808 OFFCURVE",
"609 793 CURVE SMOOTH",
"604 768 OFFCURVE",
"601 748 OFFCURVE",
"598 731 CURVE SMOOTH",
"589 682 LINE SMOOTH",
"584 659 OFFCURVE",
"580 639 OFFCURVE",
"576 622 CURVE SMOOTH",
"500 312 LINE SMOOTH",
"489 265 OFFCURVE",
"459 157 OFFCURVE",
"434 118 CURVE",
"433 115 OFFCURVE",
"431 114 OFFCURVE",
"429 114 CURVE SMOOTH",
"423 114 OFFCURVE",
"413 137 OFFCURVE",
"401 185 CURVE SMOOTH",
"370 298 OFFCURVE",
"342 413 OFFCURVE",
"322 529 CURVE SMOOTH",
"316 563 OFFCURVE",
"309 608 OFFCURVE",
"300 665 CURVE SMOOTH",
"292 726 OFFCURVE",
"282 791 OFFCURVE",
"270 861 CURVE",
"269 873 OFFCURVE",
"268 881 OFFCURVE",
"268 886 CURVE SMOOTH",
"268 914 OFFCURVE",
"279 933 OFFCURVE",
"310 944 CURVE SMOOTH",
"325 949 OFFCURVE",
"316 950 OFFCURVE",
"292 950 CURVE SMOOTH",
"271 950 OFFCURVE",
"255 950 OFFCURVE",
"244 949 CURVE SMOOTH",
"192 948 LINE SMOOTH",
"153 948 OFFCURVE",
"120 949 OFFCURVE",
"95 952 CURVE SMOOTH",
"80 953 OFFCURVE",
"68 954 OFFCURVE",
"59 954 CURVE SMOOTH",
"33 953 LINE",
"20 951 OFFCURVE",
"13 949 OFFCURVE",
"13 948 CURVE SMOOTH",
"13 947 OFFCURVE",
"19 944 OFFCURVE",
"32 939 CURVE SMOOTH",
"57 932 OFFCURVE",
"75 923 OFFCURVE",
"84 913 CURVE SMOOTH",
"107 886 OFFCURVE",
"126 823 OFFCURVE",
"159 711 CURVE SMOOTH",
"234 445 LINE",
"292 232 LINE SMOOTH",
"297 212 OFFCURVE",
"305 181 OFFCURVE",
"314 140 CURVE SMOOTH",
"334 60 LINE",
"335 53 OFFCURVE",
"341 44 OFFCURVE",
"341 37 CURVE SMOOTH",
"341 36 OFFCURVE",
"340 34 OFFCURVE",
"339 31 CURVE",
"336 27 OFFCURVE",
"308 19 OFFCURVE",
"308 18 CURVE SMOOTH",
"308 16 OFFCURVE",
"315 15 OFFCURVE",
"329 14 CURVE SMOOTH",
"471 14 LINE SMOOTH",
"490 14 OFFCURVE",
"500 15 OFFCURVE",
"500 16 CURVE SMOOTH",
"500 17 OFFCURVE",
"495 19 OFFCURVE",
"485 22 CURVE",
"480 25 OFFCURVE",
"478 31 OFFCURVE",
"478 42 CURVE SMOOTH",
"478 66 OFFCURVE",
"489 107 OFFCURVE",
"498 132 CURVE",
"550 332 LINE SMOOTH",
"575 427 OFFCURVE",
"592 496 OFFCURVE",
"601 537 CURVE SMOOTH",
"646 738 LINE",
"648 742 OFFCURVE",
"649 744 OFFCURVE",
"651 744 CURVE SMOOTH",
"663 744 OFFCURVE",
"684 665 OFFCURVE",
"718 527 CURVE SMOOTH",
"725 494 OFFCURVE",
"732 466 OFFCURVE",
"738 445 CURVE SMOOTH",
"796 232 LINE",
"818 144 LINE SMOOTH",
"826 107 OFFCURVE",
"833 79 OFFCURVE",
"838 60 CURVE SMOOTH",
"839 53 OFFCURVE",
"843 44 OFFCURVE",
"843 39 CURVE SMOOTH",
"843 36 OFFCURVE",
"842 34 OFFCURVE",
"841 31 CURVE",
"838 26 OFFCURVE",
"813 14 OFFCURVE",
"813 13 CURVE SMOOTH",
"813 12 OFFCURVE",
"816 11 OFFCURVE",
"823 11 CURVE SMOOTH"
);
}
);
width = 1239;
}
);
note = W;
unicode = 0057;
},
{
glyphname = X;
lastChange = "2021-12-30 14:02:22 +0000";
layers = (
{
hints = (
{
horizontal = 1;
place = "{9, 9}";
type = Stem;
},
{
place = "{-63, 692}";
type = Stem;
}
);
layerId = "C933835C-79FD-43B5-B38E-78217E13301A";
paths = (
{
closed = 1;
nodes = (
"480 8 LINE SMOOTH",
"495 9 OFFCURVE",
"515 9 OFFCURVE",
"540 9 CURVE SMOOTH",
"554 9 OFFCURVE",
"574 10 OFFCURVE",
"601 11 CURVE SMOOTH",
"627 12 OFFCURVE",
"635 14 OFFCURVE",
"625 17 CURVE SMOOTH",
"603 22 OFFCURVE",
"589 26 OFFCURVE",
"583 29 CURVE",
"570 33 OFFCURVE",
"564 41 OFFCURVE",
"543 81 CURVE SMOOTH",
"528 110 LINE",
"472 253 OFFCURVE",
"433 361 OFFCURVE",
"401 477 CURVE SMOOTH",
"369 595 LINE",
"370 602 OFFCURVE",
"377 619 OFFCURVE",
"391 644 CURVE SMOOTH",
"411 684 LINE SMOOTH",
"446 761 OFFCURVE",
"472 813 OFFCURVE",
"489 840 CURVE SMOOTH",
"526 900 OFFCURVE",
"547 925 OFFCURVE",
"566 930 CURVE SMOOTH",
"570 931 OFFCURVE",
"579 934 OFFCURVE",
"593 937 CURVE SMOOTH",
"607 940 OFFCURVE",
"614 943 OFFCURVE",
"614 945 CURVE SMOOTH",
"614 947 OFFCURVE",
"604 948 OFFCURVE",
"584 948 CURVE SMOOTH",
"470 952 LINE",
"415 953 LINE SMOOTH",
"405 954 OFFCURVE",
"392 954 OFFCURVE",
"377 954 CURVE SMOOTH",
"365 954 OFFCURVE",
"359 953 OFFCURVE",
"359 952 CURVE SMOOTH",
"359 951 OFFCURVE",
"363 950 OFFCURVE",
"370 948 CURVE",
"426 942 OFFCURVE",
"430 936 OFFCURVE",
"430 887 CURVE SMOOTH",
"430 853 LINE SMOOTH",
"430 800 OFFCURVE",
"396 720 OFFCURVE",
"372 674 CURVE SMOOTH",
"362 655 OFFCURVE",
"356 645 OFFCURVE",
"351 645 CURVE SMOOTH",
"349 645 OFFCURVE",
"348 647 OFFCURVE",
"347 649 CURVE SMOOTH",
"304 788 LINE",
"295 811 LINE SMOOTH",
"278 852 OFFCURVE",
"270 881 OFFCURVE",
"270 899 CURVE SMOOTH",
"270 912 OFFCURVE",
"274 921 OFFCURVE",
"282 927 CURVE SMOOTH",
"295 936 OFFCURVE",
"311 943 OFFCURVE",
"323 950 CURVE SMOOTH",
"350 964 OFFCURVE",
"364 972 OFFCURVE",
"364 974 CURVE",
"359 974 OFFCURVE",
"354 973 OFFCURVE",
"347 970 CURVE SMOOTH",
"318 959 OFFCURVE",
"294 951 OFFCURVE",
"263 949 CURVE SMOOTH",
"248 948 OFFCURVE",
"218 948 OFFCURVE",
"175 948 CURVE SMOOTH",
"112 949 LINE SMOOTH",
"73 949 OFFCURVE",
"54 947 OFFCURVE",
"54 943 CURVE SMOOTH",
"54 942 OFFCURVE",
"58 940 OFFCURVE",
"67 937 CURVE SMOOTH",
"71 936 OFFCURVE",
"78 934 OFFCURVE",
"87 933 CURVE SMOOTH",
"104 930 OFFCURVE",
"111 929 OFFCURVE",
"115 920 CURVE SMOOTH",
"162 810 LINE SMOOTH",
"235 637 OFFCURVE",
"270 553 OFFCURVE",
"270 518 CURVE SMOOTH",
"270 497 OFFCURVE",
"271 497 OFFCURVE",
"260 477 CURVE SMOOTH",
"241 441 OFFCURVE",
"220 394 OFFCURVE",
"195 335 CURVE SMOOTH",
"150 229 LINE SMOOTH",
"130 181 OFFCURVE",
"109 136 OFFCURVE",
"78 94 CURVE SMOOTH",
"64 73 LINE SMOOTH",
"41 40 OFFCURVE",
"35 33 OFFCURVE",
"10 22 CURVE",
"0 19 OFFCURVE",
"-9 18 OFFCURVE",
"-18 18 CURVE SMOOTH",
"-42 19 LINE SMOOTH",
"-49 19 OFFCURVE",
"-56 18 OFFCURVE",
"-62 15 CURVE SMOOTH",
"-70 11 OFFCURVE",
"-32 9 OFFCURVE",
"52 9 CURVE SMOOTH",
"116 10 LINE",
"163 10 LINE SMOOTH",
"194 10 OFFCURVE",
"210 11 OFFCURVE",
"210 13 CURVE SMOOTH",
"210 14 OFFCURVE",
"207 15 OFFCURVE",
"202 17 CURVE SMOOTH",
"191 20 OFFCURVE",
"178 21 OFFCURVE",
"174 21 CURVE SMOOTH",
"155 22 OFFCURVE",
"152 24 OFFCURVE",
"153 47 CURVE SMOOTH",
"164 170 OFFCURVE",
"218 297 OFFCURVE",
"282 401 CURVE SMOOTH",
"296 423 OFFCURVE",
"305 434 OFFCURVE",
"310 434 CURVE SMOOTH",
"315 434 OFFCURVE",
"320 425 OFFCURVE",
"324 414 CURVE",
"336 390 LINE",
"408 189 LINE SMOOTH",
"427 137 OFFCURVE",
"439 101 OFFCURVE",
"439 68 CURVE SMOOTH",
"439 57 OFFCURVE",
"437 46 OFFCURVE",
"433 37 CURVE SMOOTH",
"422 16 OFFCURVE",
"419 15 OFFCURVE",
"383 16 CURVE",
"373 14 OFFCURVE",
"368 12 OFFCURVE",
"368 10 CURVE SMOOTH",
"368 8 OFFCURVE",
"382 7 OFFCURVE",
"409 7 CURVE SMOOTH"
);
}
);
width = 609;
}
);
note = X;
unicode = 0058;
},
{
glyphname = Y;
lastChange = "2021-12-30 14:02:22 +0000";
layers = (
{
hints = (
{
horizontal = 1;
place = "{6, 954}";
type = Stem;
},
{
place = "{0, 796}";
type = Stem;
}
);
layerId = "C933835C-79FD-43B5-B38E-78217E13301A";
paths = (
{
closed = 1;
nodes = (
"175 6 OFFCURVE",
"254 10 OFFCURVE",
"383 19 CURVE",
"391 22 OFFCURVE",
"388 24 OFFCURVE",
"375 26 CURVE SMOOTH",
"348 29 OFFCURVE",
"325 34 OFFCURVE",
"322 51 CURVE SMOOTH",
"321 54 OFFCURVE",
"321 59 OFFCURVE",
"321 66 CURVE SMOOTH",
"321 99 OFFCURVE",
"334 128 OFFCURVE",
"361 173 CURVE SMOOTH",
"374 196 LINE",
"531 513 LINE SMOOTH",
"555 564 OFFCURVE",
"592 639 OFFCURVE",
"642 739 CURVE SMOOTH",
"696 848 LINE SMOOTH",
"707 872 OFFCURVE",
"734 927 OFFCURVE",
"761 936 CURVE",
"764 938 OFFCURVE",
"770 941 OFFCURVE",
"778 944 CURVE SMOOTH",
"794 950 OFFCURVE",
"801 953 OFFCURVE",
"792 960 CURVE",
"772 961 OFFCURVE",
"747 960 OFFCURVE",
"718 957 CURVE SMOOTH",
"705 956 OFFCURVE",
"687 954 OFFCURVE",
"662 954 CURVE SMOOTH",
"649 954 OFFCURVE",
"634 955 OFFCURVE",
"618 957 CURVE SMOOTH",
"606 958 OFFCURVE",
"589 960 OFFCURVE",
"569 960 CURVE SMOOTH",
"556 960 OFFCURVE",
"547 959 OFFCURVE",
"544 956 CURVE SMOOTH",
"541 953 OFFCURVE",
"545 950 OFFCURVE",
"556 947 CURVE SMOOTH",
"579 940 OFFCURVE",
"595 934 OFFCURVE",
"610 922 CURVE SMOOTH",
"622 911 OFFCURVE",
"631 904 OFFCURVE",
"631 896 CURVE SMOOTH",
"631 889 OFFCURVE",
"627 879 OFFCURVE",
"620 864 CURVE SMOOTH",
"605 830 OFFCURVE",
"585 783 OFFCURVE",
"560 723 CURVE SMOOTH",
"518 619 OFFCURVE",
"484 542 OFFCURVE",
"459 493 CURVE",
"422 549 OFFCURVE",
"368 637 OFFCURVE",
"299 757 CURVE SMOOTH",
"278 794 LINE SMOOTH",
"254 839 OFFCURVE",
"234 874 OFFCURVE",
"217 899 CURVE SMOOTH",
"210 910 OFFCURVE",
"202 934 OFFCURVE",
"202 949 CURVE SMOOTH",
"202 956 OFFCURVE",
"204 960 OFFCURVE",
"208 960 CURVE SMOOTH",
"177 960 OFFCURVE",
"146 959 OFFCURVE",
"117 956 CURVE SMOOTH",
"93 953 OFFCURVE",
"55 952 OFFCURVE",
"43 952 CURVE SMOOTH",
"20 952 OFFCURVE",
"0 952 OFFCURVE",
"0 948 CURVE SMOOTH",
"0 945 OFFCURVE",
"11 940 OFFCURVE",
"34 933 CURVE SMOOTH",
"84 917 OFFCURVE",
"146 818 OFFCURVE",
"169 773 CURVE SMOOTH",
"193 728 OFFCURVE",
"227 675 OFFCURVE",
"270 612 CURVE SMOOTH",
"276 603 OFFCURVE",
"289 583 OFFCURVE",
"309 554 CURVE SMOOTH",
"328 525 OFFCURVE",
"345 497 OFFCURVE",
"360 470 CURVE SMOOTH",
"365 459 OFFCURVE",
"380 425 OFFCURVE",
"395 405 CURVE SMOOTH",
"399 400 OFFCURVE",
"405 395 OFFCURVE",
"405 391 CURVE SMOOTH",
"405 388 OFFCURVE",
"403 384 OFFCURVE",
"400 379 CURVE SMOOTH",
"346 283 OFFCURVE",
"291 188 OFFCURVE",
"226 99 CURVE SMOOTH",
"188 46 OFFCURVE",
"158 18 OFFCURVE",
"137 13 CURVE SMOOTH",
"128 11 OFFCURVE",
"123 9 OFFCURVE",
"123 8 CURVE SMOOTH",
"123 7 OFFCURVE",
"130 6 OFFCURVE",
"144 6 CURVE SMOOTH"
);
}
);
width = 716;
}
);
note = Y;
unicode = 0059;
},
{
glyphname = Ygrave;
lastChange = "2021-12-30 14:02:22 +0000";
layers = (
{
hints = (
{
horizontal = 1;
place = "{1016, 57}";
type = Stem;
},
{
place = "{10, 804}";
type = Stem;
}
);
layerId = "C933835C-79FD-43B5-B38E-78217E13301A";
paths = (
{
closed = 1;
nodes = (
"185 6 OFFCURVE",
"264 10 OFFCURVE",
"393 19 CURVE",
"401 22 OFFCURVE",
"398 24 OFFCURVE",
"385 26 CURVE SMOOTH",
"358 29 OFFCURVE",
"335 34 OFFCURVE",
"332 51 CURVE SMOOTH",
"331 54 OFFCURVE",
"331 59 OFFCURVE",
"331 66 CURVE SMOOTH",
"331 99 OFFCURVE",
"344 128 OFFCURVE",
"371 173 CURVE SMOOTH",
"384 196 LINE",
"541 513 LINE SMOOTH",
"560 552 OFFCURVE",
"589 610 OFFCURVE",
"630 688 CURVE SMOOTH",
"662 748 OFFCURVE",
"686 793 OFFCURVE",
"701 824 CURVE SMOOTH",
"705 832 OFFCURVE",
"710 844 OFFCURVE",
"717 860 CURVE SMOOTH",
"726 883 OFFCURVE",
"735 900 OFFCURVE",
"742 911 CURVE",
"747 923 OFFCURVE",
"755 933 OFFCURVE",
"765 942 CURVE",
"770 945 OFFCURVE",
"779 948 OFFCURVE",
"793 952 CURVE SMOOTH",
"807 956 OFFCURVE",
"814 958 OFFCURVE",
"814 959 CURVE SMOOTH",
"814 960 OFFCURVE",
"806 961 OFFCURVE",
"790 961 CURVE SMOOTH",
"777 961 OFFCURVE",
"757 960 OFFCURVE",
"730 957 CURVE SMOOTH",
"717 956 OFFCURVE",
"697 954 OFFCURVE",
"672 954 CURVE SMOOTH",
"665 954 OFFCURVE",
"648 955 OFFCURVE",
"623 958 CURVE SMOOTH",
"595 961 OFFCURVE",
"575 962 OFFCURVE",
"562 962 CURVE SMOOTH",
"549 962 OFFCURVE",
"541 961 OFFCURVE",
"538 958 CURVE SMOOTH",
"535 956 OFFCURVE",
"541 954 OFFCURVE",
"555 951 CURVE SMOOTH",
"605 940 OFFCURVE",
"636 920 OFFCURVE",
"636 865 CURVE SMOOTH",
"636 843 OFFCURVE",
"631 821 OFFCURVE",
"620 800 CURVE SMOOTH",
"586 725 OFFCURVE",
"536 623 OFFCURVE",
"469 493 CURVE",
"432 549 OFFCURVE",
"378 637 OFFCURVE",
"309 757 CURVE SMOOTH",
"288 794 LINE SMOOTH",
"264 839 OFFCURVE",
"244 874 OFFCURVE",
"227 899 CURVE SMOOTH",
"220 910 OFFCURVE",
"212 934 OFFCURVE",
"212 949 CURVE SMOOTH",
"212 956 OFFCURVE",
"214 960 OFFCURVE",
"218 960 CURVE SMOOTH",
"187 960 OFFCURVE",
"156 959 OFFCURVE",
"127 956 CURVE SMOOTH",
"103 953 OFFCURVE",
"65 952 OFFCURVE",
"53 952 CURVE SMOOTH",
"30 952 OFFCURVE",
"10 952 OFFCURVE",
"10 948 CURVE SMOOTH",
"10 945 OFFCURVE",
"21 940 OFFCURVE",
"44 933 CURVE SMOOTH",
"94 917 OFFCURVE",
"156 818 OFFCURVE",
"179 773 CURVE SMOOTH",
"203 728 OFFCURVE",
"237 675 OFFCURVE",
"280 612 CURVE SMOOTH",
"286 603 OFFCURVE",
"299 583 OFFCURVE",
"319 554 CURVE SMOOTH",
"338 525 OFFCURVE",
"355 497 OFFCURVE",
"370 470 CURVE SMOOTH",
"375 459 OFFCURVE",
"390 425 OFFCURVE",
"405 405 CURVE SMOOTH",
"409 400 OFFCURVE",
"415 395 OFFCURVE",
"415 391 CURVE SMOOTH",
"415 388 OFFCURVE",
"413 384 OFFCURVE",
"410 379 CURVE SMOOTH",
"356 283 OFFCURVE",
"301 188 OFFCURVE",
"236 99 CURVE SMOOTH",
"198 46 OFFCURVE",
"168 18 OFFCURVE",
"147 13 CURVE SMOOTH",
"138 11 OFFCURVE",
"133 9 OFFCURVE",
"133 8 CURVE SMOOTH",
"133 7 OFFCURVE",
"140 6 OFFCURVE",
"154 6 CURVE SMOOTH"
);
},
{
closed = 1;
nodes = (
"489 1003 OFFCURVE",
"494 1021 OFFCURVE",
"494 1030 CURVE SMOOTH",
"494 1055 OFFCURVE",
"461 1073 OFFCURVE",
"437 1073 CURVE SMOOTH",
"430 1073 OFFCURVE",
"427 1072 OFFCURVE",
"426 1069 CURVE",
"415 1056 OFFCURVE",
"406 1040 OFFCURVE",
"399 1020 CURVE SMOOTH",
"398 1016 OFFCURVE",
"401 1014 OFFCURVE",
"408 1014 CURVE SMOOTH",
"416 1014 OFFCURVE",
"427 1016 OFFCURVE",
"438 1016 CURVE SMOOTH",
"453 1016 OFFCURVE",
"473 1003 OFFCURVE",
"478 1003 CURVE SMOOTH"
);
}
);
width = 824;
}
);
note = Ygrave;
unicode = 1EF2;
},
{
glyphname = Z;
lastChange = "2021-12-30 14:02:22 +0000";
layers = (
{
hints = (
{
horizontal = 1;
place = "{17, 34}";
type = Stem;
},
{
horizontal = 1;
place = "{917, 35}";
type = Stem;
},
{
horizontal = 1;
place = "{998, -20}";
target = down;
type = TopGhost;
},
{
place = "{80, 23}";
type = Stem;
}
);
layerId = "C933835C-79FD-43B5-B38E-78217E13301A";
paths = (
{
closed = 1;
nodes = (
"777 -77 OFFCURVE",
"780 -41 OFFCURVE",
"780 30 CURVE SMOOTH",
"780 76 LINE SMOOTH",
"780 87 OFFCURVE",
"781 107 OFFCURVE",
"784 135 CURVE SMOOTH",
"788 168 OFFCURVE",
"789 184 OFFCURVE",
"786 184 CURVE SMOOTH",
"785 184 OFFCURVE",
"783 180 OFFCURVE",
"780 171 CURVE SMOOTH",
"771 144 OFFCURVE",
"758 124 OFFCURVE",
"741 111 CURVE SMOOTH",
"708 83 OFFCURVE",
"672 78 OFFCURVE",
"597 70 CURVE SMOOTH",
"564 67 LINE SMOOTH",
"435 52 OFFCURVE",
"306 51 OFFCURVE",
"177 51 CURVE SMOOTH",
"170 51 OFFCURVE",
"166 53 OFFCURVE",
"166 58 CURVE SMOOTH",
"166 66 OFFCURVE",
"181 88 OFFCURVE",
"201 115 CURVE SMOOTH",
"226 150 OFFCURVE",
"250 185 OFFCURVE",
"271 218 CURVE SMOOTH",
"315 288 OFFCURVE",
"362 354 OFFCURVE",
"414 418 CURVE SMOOTH",
"471 491 OFFCURVE",
"523 561 OFFCURVE",
"570 626 CURVE SMOOTH",
"603 673 OFFCURVE",
"655 743 OFFCURVE",
"725 835 CURVE SMOOTH",
"744 859 LINE SMOOTH",
"768 890 OFFCURVE",
"780 907 OFFCURVE",
"793 935 CURVE SMOOTH",
"799 948 OFFCURVE",
"780 954 OFFCURVE",
"736 954 CURVE SMOOTH",
"723 954 OFFCURVE",
"702 953 OFFCURVE",
"674 952 CURVE SMOOTH",
"645 951 OFFCURVE",
"624 950 OFFCURVE",
"611 950 CURVE SMOOTH",
"600 950 OFFCURVE",
"583 951 OFFCURVE",
"560 952 CURVE SMOOTH",
"508 953 LINE",
"426 952 LINE SMOOTH",
"408 951 OFFCURVE",
"382 951 OFFCURVE",
"348 951 CURVE SMOOTH",
"271 950 LINE SMOOTH",
"161 950 OFFCURVE",
"103 960 OFFCURVE",
"96 980 CURVE SMOOTH",
"92 992 OFFCURVE",
"89 998 OFFCURVE",
"86 998 CURVE SMOOTH",
"81 998 OFFCURVE",
"79 984 OFFCURVE",
"79 956 CURVE SMOOTH",
"79 942 OFFCURVE",
"79 931 OFFCURVE",
"80 923 CURVE SMOOTH",
"81 894 OFFCURVE",
"80 866 OFFCURVE",
"78 840 CURVE SMOOTH",
"77 815 OFFCURVE",
"76 795 OFFCURVE",
"76 781 CURVE SMOOTH",
"76 753 OFFCURVE",
"78 739 OFFCURVE",
"81 739 CURVE SMOOTH",
"86 739 OFFCURVE",
"96 786 OFFCURVE",
"103 837 CURVE SMOOTH",
"110 890 OFFCURVE",
"195 902 OFFCURVE",
"320 906 CURVE SMOOTH",
"435 911 LINE SMOOTH",
"507 915 OFFCURVE",
"557 917 OFFCURVE",
"585 917 CURVE SMOOTH",
"637 917 OFFCURVE",
"662 912 OFFCURVE",
"659 903 CURVE",
"640 875 OFFCURVE",
"598 818 OFFCURVE",
"532 732 CURVE SMOOTH",
"517 711 OFFCURVE",
"488 673 OFFCURVE",
"446 618 CURVE SMOOTH",
"403 563 OFFCURVE",
"361 506 OFFCURVE",
"318 447 CURVE SMOOTH",
"215 311 OFFCURVE",
"114 174 OFFCURVE",
"18 33 CURVE",
"11 17 OFFCURVE",
"33 9 OFFCURVE",
"86 9 CURVE SMOOTH",
"111 9 OFFCURVE",
"142 10 OFFCURVE",
"181 13 CURVE SMOOTH",
"193 14 OFFCURVE",
"201 15 OFFCURVE",
"206 15 CURVE SMOOTH",
"235 16 OFFCURVE",
"308 17 OFFCURVE",
"426 17 CURVE SMOOTH",
"551 17 OFFCURVE",
"635 18 OFFCURVE",
"676 19 CURVE SMOOTH",
"701 20 OFFCURVE",
"717 19 OFFCURVE",
"726 18 CURVE SMOOTH",
"742 15 OFFCURVE",
"754 1 OFFCURVE",
"762 -47 CURVE SMOOTH",
"765 -67 OFFCURVE",
"769 -77 OFFCURVE",
"772 -77 CURVE SMOOTH"
);
}
);
width = 835;
}
);
note = Z;
unicode = 005A;
},
{
glyphname = a;
lastChange = "2021-12-30 14:02:22 +0000";
layers = (
{
hints = (
{
horizontal = 1;
place = "{12, 76}";
type = Stem;
},
{
horizontal = 1;
place = "{1, 21}";
target = up;
type = BottomGhost;
},
{
horizontal = 1;
place = "{409, 59}";
type = Stem;
},
{
place = "{15, 73}";
type = Stem;
},
{
place = "{308, 65}";
type = Stem;
},
{
place = "{318, 77}";
type = Stem;
}
);
layerId = "C933835C-79FD-43B5-B38E-78217E13301A";
paths = (
{
closed = 1;
nodes = (
"355 1 OFFCURVE",
"369 8 OFFCURVE",
"404 32 CURVE SMOOTH",
"441 55 OFFCURVE",
"480 83 OFFCURVE",
"511 114 CURVE SMOOTH",
"531 134 OFFCURVE",
"540 144 OFFCURVE",
"537 144 CURVE SMOOTH",
"534 144 OFFCURVE",
"526 138 OFFCURVE",
"511 125 CURVE SMOOTH",
"487 107 OFFCURVE",
"471 95 OFFCURVE",
"462 90 CURVE SMOOTH",
"443 79 OFFCURVE",
"428 73 OFFCURVE",
"417 73 CURVE SMOOTH",
"406 73 OFFCURVE",
"399 77 OFFCURVE",
"383 88 CURVE",
"376 95 OFFCURVE",
"373 110 OFFCURVE",
"373 135 CURVE SMOOTH",
"373 155 OFFCURVE",
"376 193 OFFCURVE",
"383 249 CURVE SMOOTH",
"391 310 OFFCURVE",
"395 354 OFFCURVE",
"395 379 CURVE SMOOTH",
"395 446 OFFCURVE",
"388 479 OFFCURVE",
"375 478 CURVE SMOOTH",
"340 474 LINE SMOOTH",
"317 470 OFFCURVE",
"296 468 OFFCURVE",
"277 468 CURVE SMOOTH",
"232 468 OFFCURVE",
"188 458 OFFCURVE",
"145 446 CURVE SMOOTH",
"131 443 OFFCURVE",
"119 441 OFFCURVE",
"109 440 CURVE SMOOTH",
"80 436 OFFCURVE",
"66 434 OFFCURVE",
"49 419 CURVE SMOOTH",
"24 399 OFFCURVE",
"15 365 OFFCURVE",
"15 318 CURVE SMOOTH",
"15 248 OFFCURVE",
"18 200 OFFCURVE",
"23 173 CURVE SMOOTH",
"26 160 OFFCURVE",
"27 150 OFFCURVE",
"28 141 CURVE SMOOTH",
"35 90 OFFCURVE",
"42 60 OFFCURVE",
"67 35 CURVE SMOOTH",
"82 20 OFFCURVE",
"99 12 OFFCURVE",
"118 12 CURVE SMOOTH",
"149 12 OFFCURVE",
"181 30 OFFCURVE",
"236 65 CURVE",
"237 66 OFFCURVE",
"245 71 OFFCURVE",
"260 80 CURVE SMOOTH",
"277 90 OFFCURVE",
"289 97 OFFCURVE",
"295 102 CURVE",
"295 57 OFFCURVE",
"301 7 OFFCURVE",
"320 3 CURVE SMOOTH",
"328 2 OFFCURVE",
"333 1 OFFCURVE",
"336 1 CURVE SMOOTH"
);
},
{
closed = 1;
nodes = (
"159 88 OFFCURVE",
"141 110 OFFCURVE",
"126 140 CURVE SMOOTH",
"99 191 OFFCURVE",
"88 246 OFFCURVE",
"88 304 CURVE SMOOTH",
"88 351 OFFCURVE",
"107 379 OFFCURVE",
"154 389 CURVE SMOOTH",
"177 394 OFFCURVE",
"191 398 OFFCURVE",
"197 399 CURVE SMOOTH",
"224 406 OFFCURVE",
"245 409 OFFCURVE",
"260 409 CURVE SMOOTH",
"307 409 OFFCURVE",
"318 394 OFFCURVE",
"318 350 CURVE SMOOTH",
"318 308 OFFCURVE",
"315 265 OFFCURVE",
"311 223 CURVE SMOOTH",
"305 142 LINE SMOOTH",
"303 107 OFFCURVE",
"222 88 OFFCURVE",
"194 88 CURVE SMOOTH"
);
}
);
width = 459;
}
);
note = a;
unicode = 0061;
},
{
glyphname = aacute;
lastChange = "2021-12-30 14:02:22 +0000";
layers = (
{
hints = (
{
horizontal = 1;
place = "{16, 961}";
type = Stem;
},
{
place = "{32, 84}";
type = Stem;
},
{
place = "{326, 85}";
type = Stem;
},
{
horizontal = 1;
place = "{32, 97}";
type = Stem;
},
{
horizontal = 1;
place = "{429, 79}";
type = Stem;
},
{
place = "{351, 82}";
type = Stem;
}
);
layerId = "C933835C-79FD-43B5-B38E-78217E13301A";
paths = (
{
closed = 1;
nodes = (
"390 16 OFFCURVE",
"409 30 OFFCURVE",
"438 55 CURVE SMOOTH",
"456 69 LINE SMOOTH",
"469 80 OFFCURVE",
"480 86 OFFCURVE",
"484 89 CURVE",
"495 94 OFFCURVE",
"503 102 OFFCURVE",
"523 123 CURVE SMOOTH",
"548 146 OFFCURVE",
"556 157 OFFCURVE",
"549 157 CURVE SMOOTH",
"545 157 OFFCURVE",
"537 154 OFFCURVE",
"525 148 CURVE SMOOTH",
"513 142 OFFCURVE",
"505 138 OFFCURVE",
"502 137 CURVE SMOOTH",
"491 132 OFFCURVE",
"477 129 OFFCURVE",
"461 129 CURVE SMOOTH",
"444 129 OFFCURVE",
"428 132 OFFCURVE",
"412 137 CURVE",
"411 137 OFFCURVE",
"411 140 OFFCURVE",
"411 147 CURVE SMOOTH",
"411 164 OFFCURVE",
"415 211 OFFCURVE",
"422 288 CURVE SMOOTH",
"428 353 LINE SMOOTH",
"431 375 OFFCURVE",
"433 396 OFFCURVE",
"433 416 CURVE SMOOTH",
"433 460 OFFCURVE",
"422 508 OFFCURVE",
"368 508 CURVE SMOOTH",
"350 508 OFFCURVE",
"322 501 OFFCURVE",
"284 487 CURVE SMOOTH",
"247 475 LINE SMOOTH",
"230 471 OFFCURVE",
"216 466 OFFCURVE",
"204 463 CURVE SMOOTH",
"181 455 OFFCURVE",
"161 450 OFFCURVE",
"142 447 CURVE SMOOTH",
"81 438 OFFCURVE",
"38 405 OFFCURVE",
"35 348 CURVE SMOOTH",
"34 325 LINE SMOOTH",
"33 302 OFFCURVE",
"32 285 OFFCURVE",
"32 274 CURVE SMOOTH",
"32 195 OFFCURVE",
"45 134 OFFCURVE",
"71 89 CURVE SMOOTH",
"94 51 OFFCURVE",
"121 32 OFFCURVE",
"152 32 CURVE SMOOTH",
"185 32 OFFCURVE",
"220 51 OFFCURVE",
"265 83 CURVE SMOOTH",
"289 98 LINE SMOOTH",
"316 113 OFFCURVE",
"329 122 OFFCURVE",
"329 123 CURVE SMOOTH",
"328 101 LINE SMOOTH",
"327 89 OFFCURVE",
"326 80 OFFCURVE",
"326 73 CURVE SMOOTH",
"326 46 OFFCURVE",
"335 28 OFFCURVE",
"352 19 CURVE SMOOTH",
"357 17 OFFCURVE",
"362 16 OFFCURVE",
"367 16 CURVE SMOOTH"
);
},
{
closed = 1;
nodes = (
"172 129 OFFCURVE",
"134 193 OFFCURVE",
"125 242 CURVE SMOOTH",
"116 283 LINE SMOOTH",
"111 305 OFFCURVE",
"109 324 OFFCURVE",
"110 339 CURVE SMOOTH",
"115 388 OFFCURVE",
"146 401 OFFCURVE",
"203 414 CURVE SMOOTH",
"224 419 LINE SMOOTH",
"252 426 OFFCURVE",
"272 429 OFFCURVE",
"285 429 CURVE SMOOTH",
"336 429 OFFCURVE",
"351 412 OFFCURVE",
"351 375 CURVE SMOOTH",
"351 366 OFFCURVE",
"350 350 OFFCURVE",
"347 326 CURVE SMOOTH",
"344 299 OFFCURVE",
"342 260 OFFCURVE",
"339 209 CURVE SMOOTH",
"339 198 OFFCURVE",
"338 183 OFFCURVE",
"337 163 CURVE SMOOTH",
"334 135 OFFCURVE",
"249 129 OFFCURVE",
"228 129 CURVE SMOOTH"
);
},
{
closed = 1;
nodes = (
"-106 750 OFFCURVE",
"-48 768 OFFCURVE",
"23 789 CURVE SMOOTH",
"99 812 LINE SMOOTH",
"166 833 OFFCURVE",
"249 857 OFFCURVE",
"347 883 CURVE SMOOTH",
"367 888 LINE SMOOTH",
"447 909 OFFCURVE",
"501 921 OFFCURVE",
"560 925 CURVE SMOOTH",
"569 926 OFFCURVE",
"575 924 OFFCURVE",
"579 920 CURVE SMOOTH",
"586 912 OFFCURVE",
"591 894 OFFCURVE",
"595 894 CURVE SMOOTH",
"607 893 OFFCURVE",
"627 904 OFFCURVE",
"631 905 CURVE SMOOTH",
"650 912 OFFCURVE",
"705 935 OFFCURVE",
"705 958 CURVE SMOOTH",
"705 971 OFFCURVE",
"692 977 OFFCURVE",
"666 977 CURVE SMOOTH",
"640 977 OFFCURVE",
"598 969 OFFCURVE",
"539 952 CURVE SMOOTH",
"511 945 LINE SMOOTH",
"424 926 OFFCURVE",
"340 903 OFFCURVE",
"261 877 CURVE SMOOTH",
"214 861 OFFCURVE",
"166 847 OFFCURVE",
"118 834 CURVE SMOOTH",
"67 819 OFFCURVE",
"29 808 OFFCURVE",
"4 800 CURVE SMOOTH",
"-17 794 LINE SMOOTH",
"-100 775 OFFCURVE",
"-144 755 OFFCURVE",
"-150 734 CURVE"
);
}
);
width = 505;
}
);
note = aacute;
unicode = 00E1;
},
{
glyphname = adieresis;
lastChange = "2021-12-30 14:02:22 +0000";
layers = (
{
hints = (
{
horizontal = 1;
place = "{12, 76}";
type = Stem;
},
{
horizontal = 1;
place = "{1, 21}";
target = up;
type = BottomGhost;
},
{
horizontal = 1;
place = "{409, 59}";
type = Stem;
},
{
horizontal = 1;
place = "{539, 92}";
type = Stem;
},
{
place = "{15, 73}";
type = Stem;
},
{
place = "{105, 66}";
type = Stem;
},
{
place = "{251, 67}";
type = Stem;
},
{
place = "{308, 65}";
type = Stem;
},
{
place = "{318, 77}";
type = Stem;
}
);
layerId = "C933835C-79FD-43B5-B38E-78217E13301A";
paths = (
{
closed = 1;
nodes = (
"355 1 OFFCURVE",
"369 8 OFFCURVE",
"404 32 CURVE SMOOTH",
"441 55 OFFCURVE",
"480 83 OFFCURVE",
"511 114 CURVE SMOOTH",
"531 134 OFFCURVE",
"540 144 OFFCURVE",
"537 144 CURVE SMOOTH",
"534 144 OFFCURVE",
"526 138 OFFCURVE",
"511 125 CURVE SMOOTH",
"487 107 OFFCURVE",
"471 95 OFFCURVE",
"462 90 CURVE SMOOTH",
"443 79 OFFCURVE",
"428 73 OFFCURVE",
"417 73 CURVE SMOOTH",
"406 73 OFFCURVE",
"399 77 OFFCURVE",
"383 88 CURVE",
"376 95 OFFCURVE",
"373 110 OFFCURVE",
"373 135 CURVE SMOOTH",
"373 155 OFFCURVE",
"376 193 OFFCURVE",
"383 249 CURVE SMOOTH",
"391 310 OFFCURVE",
"395 354 OFFCURVE",
"395 379 CURVE SMOOTH",
"395 446 OFFCURVE",
"388 479 OFFCURVE",
"375 478 CURVE SMOOTH",
"340 474 LINE SMOOTH",
"317 470 OFFCURVE",
"296 468 OFFCURVE",
"277 468 CURVE SMOOTH",
"232 468 OFFCURVE",
"188 458 OFFCURVE",
"145 446 CURVE SMOOTH",
"131 443 OFFCURVE",
"119 441 OFFCURVE",
"109 440 CURVE SMOOTH",
"80 436 OFFCURVE",
"66 434 OFFCURVE",
"49 419 CURVE SMOOTH",
"24 399 OFFCURVE",
"15 365 OFFCURVE",
"15 318 CURVE SMOOTH",
"15 248 OFFCURVE",
"18 200 OFFCURVE",
"23 173 CURVE SMOOTH",
"26 160 OFFCURVE",
"27 150 OFFCURVE",
"28 141 CURVE SMOOTH",
"35 90 OFFCURVE",
"42 60 OFFCURVE",
"67 35 CURVE SMOOTH",
"82 20 OFFCURVE",
"99 12 OFFCURVE",
"118 12 CURVE SMOOTH",
"149 12 OFFCURVE",
"181 30 OFFCURVE",
"236 65 CURVE",
"237 66 OFFCURVE",
"245 71 OFFCURVE",
"260 80 CURVE SMOOTH",
"277 90 OFFCURVE",
"289 97 OFFCURVE",
"295 102 CURVE",
"295 57 OFFCURVE",
"301 7 OFFCURVE",
"320 3 CURVE SMOOTH",
"328 2 OFFCURVE",
"333 1 OFFCURVE",
"336 1 CURVE SMOOTH"
);
},
{
closed = 1;
nodes = (
"159 88 OFFCURVE",
"141 110 OFFCURVE",
"126 140 CURVE SMOOTH",
"99 191 OFFCURVE",
"88 246 OFFCURVE",
"88 304 CURVE SMOOTH",
"88 351 OFFCURVE",
"107 379 OFFCURVE",
"154 389 CURVE SMOOTH",
"177 394 OFFCURVE",
"191 398 OFFCURVE",
"197 399 CURVE SMOOTH",
"224 406 OFFCURVE",
"245 409 OFFCURVE",
"260 409 CURVE SMOOTH",
"307 409 OFFCURVE",
"318 394 OFFCURVE",
"318 350 CURVE SMOOTH",
"318 308 OFFCURVE",
"315 265 OFFCURVE",
"311 223 CURVE SMOOTH",
"305 142 LINE SMOOTH",
"303 107 OFFCURVE",
"222 88 OFFCURVE",
"194 88 CURVE SMOOTH"
);
},
{
closed = 1;
nodes = (
"159 533 OFFCURVE",
"171 562 OFFCURVE",
"171 597 CURVE SMOOTH",
"171 609 OFFCURVE",
"157 624 OFFCURVE",
"144 627 CURVE",
"113 627 OFFCURVE",
"105 609 OFFCURVE",
"105 581 CURVE SMOOTH",
"105 564 OFFCURVE",
"116 548 OFFCURVE",
"139 540 CURVE SMOOTH"
);
},
{
closed = 1;
nodes = (
"305 539 OFFCURVE",
"318 570 OFFCURVE",
"318 593 CURVE SMOOTH",
"318 616 OFFCURVE",
"303 631 OFFCURVE",
"286 631 CURVE SMOOTH",
"267 631 OFFCURVE",
"251 613 OFFCURVE",
"251 580 CURVE SMOOTH",
"251 557 OFFCURVE",
"267 539 OFFCURVE",
"288 539 CURVE SMOOTH"
);
}
);
width = 459;
}
);
note = adieresis;
unicode = 00E4;
},
{
glyphname = agrave;
lastChange = "2021-12-30 14:02:16 +0000";
layers = (
{
hints = (
{
horizontal = 1;
place = "{32, 97}";
type = Stem;
},
{
horizontal = 1;
place = "{429, 79}";
type = Stem;
},
{
horizontal = 1;
place = "{711, 26}";
type = Stem;
},
{
place = "{32, 78}";
type = Stem;
},
{
place = "{326, 85}";
type = Stem;
},
{
place = "{351, 82}";
type = Stem;
}
);
layerId = "C933835C-79FD-43B5-B38E-78217E13301A";
paths = (
{
closed = 1;
nodes = (
"393 16 OFFCURVE",
"421 41 OFFCURVE",
"438 55 CURVE SMOOTH",
"456 69 LINE SMOOTH",
"496 100 OFFCURVE",
"482 81 OFFCURVE",
"523 123 CURVE SMOOTH",
"551 149 OFFCURVE",
"555 157 OFFCURVE",
"549 157 CURVE SMOOTH",
"541 157 OFFCURVE",
"513 142 OFFCURVE",
"502 137 CURVE SMOOTH",
"489 131 OFFCURVE",
"474 129 OFFCURVE",
"461 129 CURVE SMOOTH",
"445 129 OFFCURVE",
"427 132 OFFCURVE",
"412 137 CURVE",
"411 137 OFFCURVE",
"411 141 OFFCURVE",
"411 147 CURVE SMOOTH",
"411 183 OFFCURVE",
"424 304 OFFCURVE",
"425 319 CURVE SMOOTH",
"427 348 OFFCURVE",
"433 383 OFFCURVE",
"433 416 CURVE SMOOTH",
"433 460 OFFCURVE",
"422 508 OFFCURVE",
"368 508 CURVE SMOOTH",
"329 508 OFFCURVE",
"279 483 OFFCURVE",
"247 475 CURVE SMOOTH",
"212 467 OFFCURVE",
"178 452 OFFCURVE",
"142 447 CURVE SMOOTH",
"86 438 OFFCURVE",
"38 409 OFFCURVE",
"35 348 CURVE SMOOTH",
"34 324 OFFCURVE",
"32 299 OFFCURVE",
"32 274 CURVE SMOOTH",
"32 209 OFFCURVE",
"40 142 OFFCURVE",
"71 89 CURVE SMOOTH",
"96 48 OFFCURVE",
"123 32 OFFCURVE",
"152 32 CURVE SMOOTH",
"188 32 OFFCURVE",
"226 55 OFFCURVE",
"265 83 CURVE SMOOTH",
"272 88 OFFCURVE",
"329 121 OFFCURVE",
"329 123 CURVE SMOOTH",
"329 109 OFFCURVE",
"326 91 OFFCURVE",
"326 73 CURVE SMOOTH",
"326 51 OFFCURVE",
"331 30 OFFCURVE",
"352 19 CURVE SMOOTH",
"357 17 OFFCURVE",
"362 16 OFFCURVE",
"367 16 CURVE SMOOTH"
);
},
{
closed = 1;
nodes = (
"171 129 OFFCURVE",
"134 193 OFFCURVE",
"125 242 CURVE SMOOTH",
"119 270 OFFCURVE",
"108 312 OFFCURVE",
"110 339 CURVE SMOOTH",
"117 403 OFFCURVE",
"175 406 OFFCURVE",
"224 419 CURVE SMOOTH",
"245 424 OFFCURVE",
"265 429 OFFCURVE",
"285 429 CURVE SMOOTH",
"339 429 OFFCURVE",
"351 409 OFFCURVE",
"351 375 CURVE SMOOTH",
"351 361 OFFCURVE",
"349 344 OFFCURVE",
"347 326 CURVE SMOOTH",
"341 271 OFFCURVE",
"340 218 OFFCURVE",
"337 163 CURVE SMOOTH",
"335 139 OFFCURVE",
"267 129 OFFCURVE",
"228 129 CURVE SMOOTH"
);
},
{
closed = 1;
nodes = (
"423 677 OFFCURVE",
"461 693 OFFCURVE",
"471 713 CURVE SMOOTH",
"479 729 OFFCURVE",
"494 755 OFFCURVE",
"475 755 CURVE SMOOTH",
"466 755 OFFCURVE",
"431 753 OFFCURVE",
"399 753 CURVE SMOOTH",
"362 753 OFFCURVE",
"317 750 OFFCURVE",
"281 746 CURVE SMOOTH",
"237 741 OFFCURVE",
"199 737 OFFCURVE",
"168 737 CURVE SMOOTH",
"131 737 OFFCURVE",
"101 738 OFFCURVE",
"81 748 CURVE SMOOTH",
"77 750 OFFCURVE",
"96 765 OFFCURVE",
"70 765 CURVE SMOOTH",
"46 765 OFFCURVE",
"42 741 OFFCURVE",
"23 709 CURVE SMOOTH",
"19 702 OFFCURVE",
"29 693 OFFCURVE",
"43 693 CURVE SMOOTH",
"58 693 OFFCURVE",
"84 702 OFFCURVE",
"147 702 CURVE SMOOTH",
"199 702 OFFCURVE",
"276 711 OFFCURVE",
"333 711 CURVE SMOOTH",
"378 711 OFFCURVE",
"408 705 OFFCURVE",
"404 684 CURVE SMOOTH",
"403 679 OFFCURVE",
"405 677 OFFCURVE",
"409 677 CURVE SMOOTH"
);
}
);
width = 505;
}
);
note = agrave;
unicode = 00E0;
},
{
glyphname = ae;
lastChange = "2021-12-30 14:02:22 +0000";
layers = (
{
hints = (
{
horizontal = 1;
place = "{-9, 72}";
type = Stem;
},
{
horizontal = 1;
place = "{243, 37}";
type = Stem;
},
{
horizontal = 1;
place = "{447, 68}";
type = Stem;
},
{
place = "{-4, 49}";
type = Stem;
},
{
place = "{264, 67}";
type = Stem;
},
{
place = "{531, 64}";
type = Stem;
},
{
horizontal = 1;
place = "{5, 73}";
type = Stem;
},
{
horizontal = 1;
place = "{228, 69}";
type = Stem;
}
);
layerId = "C933835C-79FD-43B5-B38E-78217E13301A";
paths = (
{
closed = 1;
nodes = (
"420 -9 OFFCURVE",
"491 47 OFFCURVE",
"535 105 CURVE SMOOTH",
"556 134 OFFCURVE",
"565 148 OFFCURVE",
"560 148 CURVE SMOOTH",
"559 148 OFFCURVE",
"554 143 OFFCURVE",
"547 134 CURVE SMOOTH",
"506 87 OFFCURVE",
"451 63 OFFCURVE",
"396 63 CURVE SMOOTH",
"367 63 OFFCURVE",
"347 79 OFFCURVE",
"338 112 CURVE SMOOTH",
"335 128 OFFCURVE",
"331 172 OFFCURVE",
"331 197 CURVE SMOOTH",
"331 213 OFFCURVE",
"333 220 OFFCURVE",
"342 223 CURVE SMOOTH",
"386 236 OFFCURVE",
"413 243 OFFCURVE",
"445 243 CURVE SMOOTH",
"458 243 OFFCURVE",
"476 240 OFFCURVE",
"500 235 CURVE SMOOTH",
"508 234 OFFCURVE",
"535 228 OFFCURVE",
"552 228 CURVE SMOOTH",
"595 228 OFFCURVE",
"650 271 OFFCURVE",
"648 296 CURVE SMOOTH",
"648 302 OFFCURVE",
"634 305 OFFCURVE",
"605 305 CURVE SMOOTH",
"596 305 OFFCURVE",
"586 304 OFFCURVE",
"574 301 CURVE SMOOTH",
"571 300 OFFCURVE",
"557 296 OFFCURVE",
"544 297 CURVE SMOOTH",
"538 298 OFFCURVE",
"540 309 OFFCURVE",
"549 331 CURVE SMOOTH",
"558 353 OFFCURVE",
"567 373 OFFCURVE",
"578 390 CURVE SMOOTH",
"589 409 OFFCURVE",
"595 425 OFFCURVE",
"595 437 CURVE SMOOTH",
"595 449 OFFCURVE",
"590 463 OFFCURVE",
"579 478 CURVE SMOOTH",
"560 505 OFFCURVE",
"541 515 OFFCURVE",
"514 515 CURVE SMOOTH",
"475 515 OFFCURVE",
"421 496 OFFCURVE",
"387 479 CURVE SMOOTH",
"374 472 OFFCURVE",
"350 465 OFFCURVE",
"339 461 CURVE",
"326 460 OFFCURVE",
"306 453 OFFCURVE",
"298 450 CURVE SMOOTH",
"272 442 LINE SMOOTH",
"260 437 OFFCURVE",
"225 420 OFFCURVE",
"193 416 CURVE SMOOTH",
"32 393 OFFCURVE",
"-4 371 OFFCURVE",
"-4 202 CURVE SMOOTH",
"-4 126 OFFCURVE",
"49 5 OFFCURVE",
"136 5 CURVE SMOOTH",
"181 5 OFFCURVE",
"217 38 OFFCURVE",
"244 71 CURVE SMOOTH",
"258 87 OFFCURVE",
"265 93 OFFCURVE",
"265 89 CURVE SMOOTH",
"267 37 OFFCURVE",
"285 -9 OFFCURVE",
"345 -9 CURVE SMOOTH"
);
},
{
closed = 1;
nodes = (
"171 78 OFFCURVE",
"165 79 OFFCURVE",
"160 81 CURVE SMOOTH",
"98 103 OFFCURVE",
"45 198 OFFCURVE",
"45 267 CURVE SMOOTH",
"45 319 OFFCURVE",
"74 359 OFFCURVE",
"137 359 CURVE SMOOTH",
"206 359 OFFCURVE",
"229 352 OFFCURVE",
"245 317 CURVE SMOOTH",
"261 285 OFFCURVE",
"264 230 OFFCURVE",
"264 169 CURVE SMOOTH",
"263 124 LINE",
"265 113 OFFCURVE",
"211 78 OFFCURVE",
"176 78 CURVE SMOOTH"
);
},
{
closed = 1;
nodes = (
"334 280 OFFCURVE",
"331 291 OFFCURVE",
"326 313 CURVE SMOOTH",
"321 335 OFFCURVE",
"318 349 OFFCURVE",
"318 356 CURVE SMOOTH",
"318 380 OFFCURVE",
"358 415 OFFCURVE",
"395 436 CURVE SMOOTH",
"408 443 OFFCURVE",
"423 447 OFFCURVE",
"439 447 CURVE SMOOTH",
"447 447 OFFCURVE",
"458 445 OFFCURVE",
"471 442 CURVE SMOOTH",
"475 441 OFFCURVE",
"482 439 OFFCURVE",
"491 438 CURVE SMOOTH",
"518 434 OFFCURVE",
"531 429 OFFCURVE",
"531 405 CURVE SMOOTH",
"531 388 OFFCURVE",
"515 300 OFFCURVE",
"498 297 CURVE",
"473 296 OFFCURVE",
"433 290 OFFCURVE",
"420 289 CURVE SMOOTH",
"383 284 OFFCURVE",
"355 281 OFFCURVE",
"336 280 CURVE SMOOTH"
);
}
);
width = 633;
}
);
note = ae;
unicode = 00E6;
},
{
glyphname = aeacute;
lastChange = "2021-12-30 14:02:22 +0000";
layers = (
{
hints = (
{
horizontal = 1;
place = "{-9, 72}";
type = Stem;
},
{
horizontal = 1;
place = "{243, 37}";
type = Stem;
},
{
horizontal = 1;
place = "{447, 68}";
type = Stem;
},
{
horizontal = 1;
place = "{844, 52}";
type = Stem;
},
{
place = "{-4, 49}";
type = Stem;
},
{
place = "{264, 67}";
type = Stem;
},
{
place = "{531, 64}";
type = Stem;
},
{
horizontal = 1;
place = "{5, 73}";
type = Stem;
},
{
horizontal = 1;
place = "{228, 69}";
type = Stem;
}
);
layerId = "C933835C-79FD-43B5-B38E-78217E13301A";
paths = (
{
closed = 1;
nodes = (
"420 -9 OFFCURVE",
"491 47 OFFCURVE",
"535 105 CURVE SMOOTH",
"556 134 OFFCURVE",
"565 148 OFFCURVE",
"560 148 CURVE SMOOTH",
"559 148 OFFCURVE",
"554 143 OFFCURVE",
"547 134 CURVE SMOOTH",
"506 87 OFFCURVE",
"451 63 OFFCURVE",
"396 63 CURVE SMOOTH",
"367 63 OFFCURVE",
"347 79 OFFCURVE",
"338 112 CURVE SMOOTH",
"335 128 OFFCURVE",
"331 172 OFFCURVE",
"331 197 CURVE SMOOTH",
"331 213 OFFCURVE",
"333 220 OFFCURVE",
"342 223 CURVE SMOOTH",
"386 236 OFFCURVE",
"413 243 OFFCURVE",
"445 243 CURVE SMOOTH",
"458 243 OFFCURVE",
"476 240 OFFCURVE",
"500 235 CURVE SMOOTH",
"508 234 OFFCURVE",
"535 228 OFFCURVE",
"552 228 CURVE SMOOTH",
"595 228 OFFCURVE",
"650 271 OFFCURVE",
"648 296 CURVE SMOOTH",
"648 302 OFFCURVE",
"634 305 OFFCURVE",
"605 305 CURVE SMOOTH",
"596 305 OFFCURVE",
"586 304 OFFCURVE",
"574 301 CURVE SMOOTH",
"571 300 OFFCURVE",
"557 296 OFFCURVE",
"544 297 CURVE SMOOTH",
"538 298 OFFCURVE",
"540 309 OFFCURVE",
"549 331 CURVE SMOOTH",
"558 353 OFFCURVE",
"567 373 OFFCURVE",
"578 390 CURVE SMOOTH",
"589 409 OFFCURVE",
"595 425 OFFCURVE",
"595 437 CURVE SMOOTH",
"595 449 OFFCURVE",
"590 463 OFFCURVE",
"579 478 CURVE SMOOTH",
"560 505 OFFCURVE",
"541 515 OFFCURVE",
"514 515 CURVE SMOOTH",
"475 515 OFFCURVE",
"421 496 OFFCURVE",
"387 479 CURVE SMOOTH",
"374 472 OFFCURVE",
"350 465 OFFCURVE",
"339 461 CURVE",
"326 460 OFFCURVE",
"306 453 OFFCURVE",
"298 450 CURVE SMOOTH",
"272 442 LINE SMOOTH",
"260 437 OFFCURVE",
"225 420 OFFCURVE",
"193 416 CURVE SMOOTH",
"32 393 OFFCURVE",
"-4 371 OFFCURVE",
"-4 202 CURVE SMOOTH",
"-4 126 OFFCURVE",
"49 5 OFFCURVE",
"136 5 CURVE SMOOTH",
"181 5 OFFCURVE",
"217 38 OFFCURVE",
"244 71 CURVE SMOOTH",
"258 87 OFFCURVE",
"265 93 OFFCURVE",
"265 89 CURVE SMOOTH",
"267 37 OFFCURVE",
"285 -9 OFFCURVE",
"345 -9 CURVE SMOOTH"
);
},
{
closed = 1;
nodes = (
"171 78 OFFCURVE",
"165 79 OFFCURVE",
"160 81 CURVE SMOOTH",
"98 103 OFFCURVE",
"45 198 OFFCURVE",
"45 267 CURVE SMOOTH",
"45 319 OFFCURVE",
"74 359 OFFCURVE",
"137 359 CURVE SMOOTH",
"206 359 OFFCURVE",
"229 352 OFFCURVE",
"245 317 CURVE SMOOTH",
"261 285 OFFCURVE",
"264 230 OFFCURVE",
"264 169 CURVE SMOOTH",
"263 124 LINE",
"265 113 OFFCURVE",
"211 78 OFFCURVE",
"176 78 CURVE SMOOTH"
);
},
{
closed = 1;
nodes = (
"334 280 OFFCURVE",
"331 291 OFFCURVE",
"326 313 CURVE SMOOTH",
"321 335 OFFCURVE",
"318 349 OFFCURVE",
"318 356 CURVE SMOOTH",
"318 380 OFFCURVE",
"358 415 OFFCURVE",
"395 436 CURVE SMOOTH",
"408 443 OFFCURVE",
"423 447 OFFCURVE",
"439 447 CURVE SMOOTH",
"447 447 OFFCURVE",
"458 445 OFFCURVE",
"471 442 CURVE SMOOTH",
"475 441 OFFCURVE",
"482 439 OFFCURVE",
"491 438 CURVE SMOOTH",
"518 434 OFFCURVE",
"531 429 OFFCURVE",
"531 405 CURVE SMOOTH",
"531 388 OFFCURVE",
"515 300 OFFCURVE",
"498 297 CURVE",
"473 296 OFFCURVE",
"433 290 OFFCURVE",
"420 289 CURVE SMOOTH",
"383 284 OFFCURVE",
"355 281 OFFCURVE",
"336 280 CURVE SMOOTH"
);
},
{
closed = 1;
nodes = (
"128 669 OFFCURVE",
"186 687 OFFCURVE",
"257 708 CURVE SMOOTH",
"333 731 LINE SMOOTH",
"400 752 OFFCURVE",
"483 776 OFFCURVE",
"581 802 CURVE SMOOTH",
"668 826 OFFCURVE",
"729 840 OFFCURVE",
"794 844 CURVE SMOOTH",
"803 845 OFFCURVE",
"809 843 OFFCURVE",
"813 839 CURVE SMOOTH",
"820 831 OFFCURVE",
"825 813 OFFCURVE",
"829 813 CURVE SMOOTH",
"841 812 OFFCURVE",
"861 823 OFFCURVE",
"865 824 CURVE SMOOTH",
"884 831 OFFCURVE",
"939 854 OFFCURVE",
"939 877 CURVE SMOOTH",
"939 890 OFFCURVE",
"926 896 OFFCURVE",
"900 896 CURVE SMOOTH",
"874 896 OFFCURVE",
"832 888 OFFCURVE",
"773 871 CURVE SMOOTH",
"745 864 LINE SMOOTH",
"667 847 OFFCURVE",
"584 825 OFFCURVE",
"495 796 CURVE SMOOTH",
"448 780 OFFCURVE",
"400 766 OFFCURVE",
"352 753 CURVE SMOOTH",
"301 738 OFFCURVE",
"263 727 OFFCURVE",
"238 719 CURVE SMOOTH",
"217 713 LINE SMOOTH",
"134 694 OFFCURVE",
"90 674 OFFCURVE",
"84 653 CURVE"
);
}
);
width = 600;
}
);
note = aeacute;
unicode = 01FD;
},
{
glyphname = b;
lastChange = "2021-12-30 14:02:16 +0000";
layers = (
{
hints = (
{
horizontal = 1;
place = "{5, 53}";
type = Stem;
},
{
horizontal = 1;
place = "{380, 94}";
type = Stem;
},
{
place = "{56, 85}";
type = Stem;
},
{
place = "{350, 75}";
type = Stem;
}
);
layerId = "C933835C-79FD-43B5-B38E-78217E13301A";
paths = (
{
closed = 1;
nodes = (
"301 5 OFFCURVE",
"425 183 OFFCURVE",
"425 302 CURVE SMOOTH",
"424 317 LINE SMOOTH",
"419 370 OFFCURVE",
"387 474 OFFCURVE",
"320 474 CURVE SMOOTH",
"288 474 OFFCURVE",
"267 463 OFFCURVE",
"218 432 CURVE SMOOTH",
"206 424 OFFCURVE",
"164 396 OFFCURVE",
"150 396 CURVE SMOOTH",
"140 396 OFFCURVE",
"135 407 OFFCURVE",
"135 428 CURVE SMOOTH",
"135 466 OFFCURVE",
"136 506 OFFCURVE",
"138 549 CURVE SMOOTH",
"139 574 OFFCURVE",
"141 611 OFFCURVE",
"141 656 CURVE SMOOTH",
"142 722 LINE SMOOTH",
"143 838 OFFCURVE",
"146 891 OFFCURVE",
"155 915 CURVE SMOOTH",
"158 924 OFFCURVE",
"163 934 OFFCURVE",
"169 946 CURVE SMOOTH",
"175 961 OFFCURVE",
"178 969 OFFCURVE",
"178 971 CURVE SMOOTH",
"178 975 OFFCURVE",
"174 974 OFFCURVE",
"167 973 CURVE",
"84 946 OFFCURVE",
"30 924 OFFCURVE",
"-26 888 CURVE SMOOTH",
"-32 884 OFFCURVE",
"-35 881 OFFCURVE",
"-35 878 CURVE SMOOTH",
"-35 873 OFFCURVE",
"-23 869 OFFCURVE",
"-8 865 CURVE SMOOTH",
"29 853 OFFCURVE",
"53 842 OFFCURVE",
"54 818 CURVE SMOOTH",
"56 797 OFFCURVE",
"57 756 OFFCURVE",
"57 697 CURVE SMOOTH",
"56 553 LINE",
"56 225 LINE SMOOTH",
"56 143 OFFCURVE",
"57 5 OFFCURVE",
"172 5 CURVE SMOOTH"
);
},
{
closed = 1;
nodes = (
"183 58 OFFCURVE",
"162 80 OFFCURVE",
"150 123 CURVE SMOOTH",
"142 154 OFFCURVE",
"133 215 OFFCURVE",
"133 262 CURVE SMOOTH",
"133 290 OFFCURVE",
"136 311 OFFCURVE",
"143 324 CURVE SMOOTH",
"158 350 OFFCURVE",
"237 380 OFFCURVE",
"268 380 CURVE SMOOTH",
"330 380 OFFCURVE",
"350 298 OFFCURVE",
"350 249 CURVE SMOOTH",
"350 164 OFFCURVE",
"313 58 OFFCURVE",
"212 58 CURVE SMOOTH"
);
}
);
width = 445;
}
);
note = b;
unicode = 0062;
},
{
glyphname = c;
lastChange = "2021-12-30 14:02:22 +0000";
layers = (
{
hints = (
{
horizontal = 1;
place = "{427, 55}";
type = Stem;
},
{
place = "{38, 59}";
type = Stem;
}
);
layerId = "C933835C-79FD-43B5-B38E-78217E13301A";
paths = (
{
closed = 1;
nodes = (
"308 5 OFFCURVE",
"387 61 OFFCURVE",
"422 125 CURVE SMOOTH",
"431 142 OFFCURVE",
"435 151 OFFCURVE",
"435 152 CURVE SMOOTH",
"435 153 OFFCURVE",
"427 147 OFFCURVE",
"412 133 CURVE SMOOTH",
"381 105 OFFCURVE",
"335 70 OFFCURVE",
"290 75 CURVE SMOOTH",
"168 91 OFFCURVE",
"97 207 OFFCURVE",
"97 322 CURVE SMOOTH",
"97 382 OFFCURVE",
"138 423 OFFCURVE",
"206 427 CURVE SMOOTH",
"241 430 OFFCURVE",
"291 406 OFFCURVE",
"314 374 CURVE SMOOTH",
"322 362 OFFCURVE",
"332 356 OFFCURVE",
"344 356 CURVE SMOOTH",
"367 356 OFFCURVE",
"389 381 OFFCURVE",
"389 408 CURVE SMOOTH",
"389 460 OFFCURVE",
"324 482 OFFCURVE",
"281 482 CURVE SMOOTH",
"232 482 OFFCURVE",
"174 463 OFFCURVE",
"127 431 CURVE SMOOTH",
"68 390 OFFCURVE",
"38 338 OFFCURVE",
"38 273 CURVE SMOOTH",
"38 127 OFFCURVE",
"112 22 OFFCURVE",
"214 6 CURVE SMOOTH",
"218 5 OFFCURVE",
"224 5 OFFCURVE",
"233 5 CURVE SMOOTH"
);
}
);
width = 406;
}
);
note = c;
unicode = 0063;
},
{
glyphname = d;
lastChange = "2021-12-30 14:02:22 +0000";
layers = (
{
hints = (
{
horizontal = 1;
place = "{-1, 71}";
type = Stem;
},
{
place = "{37, 75}";
type = Stem;
},
{
place = "{353, 52}";
type = Stem;
}
);
layerId = "C933835C-79FD-43B5-B38E-78217E13301A";
paths = (
{
closed = 1;
nodes = (
"234 -1 OFFCURVE",
"264 10 OFFCURVE",
"293 33 CURVE SMOOTH",
"368 91 OFFCURVE",
"405 196 OFFCURVE",
"405 289 CURVE SMOOTH",
"405 340 OFFCURVE",
"386 376 OFFCURVE",
"321 416 CURVE SMOOTH",
"157 517 OFFCURVE",
"35 612 OFFCURVE",
"-13 744 CURVE SMOOTH",
"-14 748 OFFCURVE",
"-19 763 OFFCURVE",
"-28 788 CURVE SMOOTH",
"-32 800 OFFCURVE",
"-37 814 OFFCURVE",
"-46 837 CURVE SMOOTH",
"-49 846 OFFCURVE",
"-60 827 OFFCURVE",
"-78 781 CURVE SMOOTH",
"-83 770 OFFCURVE",
"-86 762 OFFCURVE",
"-89 757 CURVE SMOOTH",
"-94 748 OFFCURVE",
"-96 737 OFFCURVE",
"-96 725 CURVE SMOOTH",
"-96 663 OFFCURVE",
"-31 595 OFFCURVE",
"12 552 CURVE SMOOTH",
"45 516 OFFCURVE",
"72 497 OFFCURVE",
"107 473 CURVE SMOOTH",
"135 453 OFFCURVE",
"141 449 OFFCURVE",
"141 438 CURVE SMOOTH",
"141 434 OFFCURVE",
"140 430 OFFCURVE",
"137 425 CURVE SMOOTH",
"128 411 OFFCURVE",
"115 392 OFFCURVE",
"96 368 CURVE SMOOTH",
"55 315 OFFCURVE",
"37 287 OFFCURVE",
"37 246 CURVE SMOOTH",
"37 167 OFFCURVE",
"65 96 OFFCURVE",
"112 43 CURVE SMOOTH",
"139 14 OFFCURVE",
"169 -1 OFFCURVE",
"203 -1 CURVE SMOOTH"
);
},
{
closed = 1;
nodes = (
"213 70 OFFCURVE",
"199 75 OFFCURVE",
"187 85 CURVE SMOOTH",
"135 128 OFFCURVE",
"112 189 OFFCURVE",
"112 250 CURVE SMOOTH",
"112 283 OFFCURVE",
"118 312 OFFCURVE",
"130 338 CURVE SMOOTH",
"151 383 OFFCURVE",
"162 399 OFFCURVE",
"181 399 CURVE SMOOTH",
"198 399 OFFCURVE",
"221 383 OFFCURVE",
"268 346 CURVE SMOOTH",
"321 303 OFFCURVE",
"353 251 OFFCURVE",
"353 208 CURVE SMOOTH",
"353 201 OFFCURVE",
"353 196 OFFCURVE",
"352 193 CURVE SMOOTH",
"337 120 OFFCURVE",
"282 70 OFFCURVE",
"230 70 CURVE SMOOTH"
);
}
);
width = 434;
}
);
note = d;
unicode = 0064;
},
{
glyphname = eth;
lastChange = "2021-12-30 14:02:22 +0000";
layers = (
{
hints = (
{
horizontal = 1;
place = "{0, 21}";
target = up;
type = BottomGhost;
},
{
horizontal = 1;
place = "{656, 65}";
type = Stem;
},
{
place = "{56, 88}";
type = Stem;
},
{
place = "{365, 65}";
type = Stem;
}
);
layerId = "C933835C-79FD-43B5-B38E-78217E13301A";
paths = (
{
closed = 1;
nodes = (
"227 -7 OFFCURVE",
"291 34 OFFCURVE",
"366 121 CURVE SMOOTH",
"409 171 OFFCURVE",
"414 191 OFFCURVE",
"428 260 CURVE SMOOTH",
"429 265 OFFCURVE",
"430 273 OFFCURVE",
"430 283 CURVE SMOOTH",
"430 305 OFFCURVE",
"423 325 OFFCURVE",
"409 342 CURVE SMOOTH",
"395 359 OFFCURVE",
"371 383 OFFCURVE",
"336 414 CURVE SMOOTH",
"314 433 LINE SMOOTH",
"223 514 OFFCURVE",
"190 547 OFFCURVE",
"199 556 CURVE SMOOTH",
"243 603 OFFCURVE",
"323 656 OFFCURVE",
"390 656 CURVE SMOOTH",
"399 656 OFFCURVE",
"413 654 OFFCURVE",
"431 651 CURVE SMOOTH",
"430 651 OFFCURVE",
"440 649 OFFCURVE",
"459 646 CURVE SMOOTH",
"479 643 OFFCURVE",
"492 654 OFFCURVE",
"492 670 CURVE SMOOTH",
"492 701 OFFCURVE",
"460 721 OFFCURVE",
"432 721 CURVE SMOOTH",
"393 721 OFFCURVE",
"342 696 OFFCURVE",
"298 661 CURVE",
"298 661 OFFCURVE",
"293 656 OFFCURVE",
"282 647 CURVE SMOOTH",
"219 591 OFFCURVE",
"186 565 OFFCURVE",
"182 569 CURVE SMOOTH",
"168 581 OFFCURVE",
"158 591 OFFCURVE",
"152 599 CURVE SMOOTH",
"145 606 OFFCURVE",
"135 619 OFFCURVE",
"122 636 CURVE SMOOTH",
"116 645 OFFCURVE",
"102 663 OFFCURVE",
"81 692 CURVE SMOOTH",
"72 703 OFFCURVE",
"67 715 OFFCURVE",
"65 726 CURVE SMOOTH",
"61 749 OFFCURVE",
"63 774 OFFCURVE",
"51 766 CURVE",
"32 748 OFFCURVE",
"19 735 OFFCURVE",
"12 727 CURVE SMOOTH",
"-3 711 OFFCURVE",
"-9 695 OFFCURVE",
"-9 664 CURVE SMOOTH",
"-9 637 OFFCURVE",
"9 612 OFFCURVE",
"46 567 CURVE SMOOTH",
"65 546 OFFCURVE",
"79 528 OFFCURVE",
"89 512 CURVE",
"92 509 OFFCURVE",
"94 505 OFFCURVE",
"94 502 CURVE SMOOTH",
"94 497 OFFCURVE",
"91 491 OFFCURVE",
"86 485 CURVE SMOOTH",
"74 472 OFFCURVE",
"48 453 OFFCURVE",
"39 445 CURVE SMOOTH",
"32 438 OFFCURVE",
"12 422 OFFCURVE",
"-20 399 CURVE SMOOTH",
"-76 358 OFFCURVE",
"-109 331 OFFCURVE",
"-110 322 CURVE",
"-115 310 OFFCURVE",
"-87 327 OFFCURVE",
"-24 373 CURVE SMOOTH",
"39 418 OFFCURVE",
"86 454 OFFCURVE",
"118 480 CURVE",
"134 467 OFFCURVE",
"145 457 OFFCURVE",
"152 450 CURVE SMOOTH",
"167 435 OFFCURVE",
"173 426 OFFCURVE",
"170 423 CURVE",
"137 366 LINE",
"108 315 LINE",
"98 297 LINE SMOOTH",
"81 264 OFFCURVE",
"69 240 OFFCURVE",
"64 227 CURVE SMOOTH",
"59 213 OFFCURVE",
"56 195 OFFCURVE",
"56 173 CURVE SMOOTH",
"56 162 OFFCURVE",
"56 154 OFFCURVE",
"57 148 CURVE",
"59 104 OFFCURVE",
"91 12 OFFCURVE",
"184 0 CURVE SMOOTH"
);
},
{
closed = 1;
nodes = (
"172 65 OFFCURVE",
"144 176 OFFCURVE",
"144 239 CURVE SMOOTH",
"144 282 OFFCURVE",
"160 367 OFFCURVE",
"187 406 CURVE",
"188 409 OFFCURVE",
"192 410 OFFCURVE",
"197 407 CURVE SMOOTH",
"208 401 OFFCURVE",
"230 378 OFFCURVE",
"237 373 CURVE",
"248 362 OFFCURVE",
"264 351 OFFCURVE",
"285 339 CURVE SMOOTH",
"340 304 OFFCURVE",
"365 282 OFFCURVE",
"365 238 CURVE SMOOTH",
"365 231 OFFCURVE",
"365 225 OFFCURVE",
"364 221 CURVE SMOOTH",
"347 118 OFFCURVE",
"304 65 OFFCURVE",
"253 65 CURVE SMOOTH"
);
}
);
width = 474;
}
);
note = eth;
unicode = 00F0;
},
{
glyphname = e;
lastChange = "2021-12-30 14:02:16 +0000";
layers = (
{
hints = (
{
horizontal = 1;
place = "{2, 59}";
type = Stem;
},
{
horizontal = 1;
place = "{251, 42}";
type = Stem;
},
{
horizontal = 1;
place = "{429, 60}";
type = Stem;
},
{
place = "{-10, 98}";
type = Stem;
},
{
place = "{315, 58}";
type = Stem;
}
);
layerId = "C933835C-79FD-43B5-B38E-78217E13301A";
paths = (
{
closed = 1;
nodes = (
"229 2 OFFCURVE",
"303 53 OFFCURVE",
"343 122 CURVE SMOOTH",
"364 158 OFFCURVE",
"373 176 OFFCURVE",
"372 176 CURVE SMOOTH",
"371 176 OFFCURVE",
"363 168 OFFCURVE",
"346 152 CURVE SMOOTH",
"300 108 OFFCURVE",
"249 70 OFFCURVE",
"184 61 CURVE SMOOTH",
"143 56 OFFCURVE",
"115 106 OFFCURVE",
"104 171 CURVE SMOOTH",
"103 175 OFFCURVE",
"103 180 OFFCURVE",
"103 187 CURVE SMOOTH",
"103 202 OFFCURVE",
"107 213 OFFCURVE",
"115 220 CURVE SMOOTH",
"130 235 OFFCURVE",
"149 237 OFFCURVE",
"192 241 CURVE SMOOTH",
"203 242 OFFCURVE",
"228 244 OFFCURVE",
"241 247 CURVE SMOOTH",
"258 250 OFFCURVE",
"271 251 OFFCURVE",
"279 251 CURVE SMOOTH",
"298 251 OFFCURVE",
"316 247 OFFCURVE",
"331 238 CURVE SMOOTH",
"352 227 OFFCURVE",
"366 221 OFFCURVE",
"374 221 CURVE SMOOTH",
"380 221 OFFCURVE",
"386 223 OFFCURVE",
"391 227 CURVE SMOOTH",
"398 232 OFFCURVE",
"429 274 OFFCURVE",
"429 284 CURVE SMOOTH",
"429 291 OFFCURVE",
"420 295 OFFCURVE",
"401 295 CURVE SMOOTH",
"391 295 OFFCURVE",
"383 295 OFFCURVE",
"377 294 CURVE SMOOTH",
"352 293 LINE SMOOTH",
"335 293 OFFCURVE",
"324 295 OFFCURVE",
"319 300 CURVE SMOOTH",
"312 305 OFFCURVE",
"321 320 OFFCURVE",
"340 349 CURVE SMOOTH",
"346 357 OFFCURVE",
"373 398 OFFCURVE",
"373 418 CURVE SMOOTH",
"373 468 OFFCURVE",
"280 489 OFFCURVE",
"242 489 CURVE SMOOTH",
"181 489 OFFCURVE",
"43 440 OFFCURVE",
"13 406 CURVE SMOOTH",
"-2 389 OFFCURVE",
"-10 370 OFFCURVE",
"-10 349 CURVE SMOOTH",
"-10 336 OFFCURVE",
"-8 320 OFFCURVE",
"-4 300 CURVE SMOOTH",
"1 262 LINE SMOOTH",
"10 188 OFFCURVE",
"18 135 OFFCURVE",
"51 67 CURVE SMOOTH",
"76 18 OFFCURVE",
"92 2 OFFCURVE",
"136 2 CURVE SMOOTH"
);
},
{
closed = 1;
nodes = (
"95 264 OFFCURVE",
"88 305 OFFCURVE",
"88 344 CURVE SMOOTH",
"88 375 OFFCURVE",
"89 393 OFFCURVE",
"91 396 CURVE SMOOTH",
"105 418 OFFCURVE",
"130 429 OFFCURVE",
"166 429 CURVE SMOOTH",
"202 429 OFFCURVE",
"245 417 OFFCURVE",
"281 401 CURVE SMOOTH",
"294 395 OFFCURVE",
"315 399 OFFCURVE",
"315 374 CURVE SMOOTH",
"315 351 OFFCURVE",
"299 311 OFFCURVE",
"287 300 CURVE SMOOTH",
"272 288 OFFCURVE",
"248 284 OFFCURVE",
"215 283 CURVE SMOOTH",
"204 283 OFFCURVE",
"197 283 OFFCURVE",
"192 282 CURVE SMOOTH",
"183 281 OFFCURVE",
"169 278 OFFCURVE",
"152 273 CURVE SMOOTH",
"147 272 OFFCURVE",
"120 264 OFFCURVE",
"100 264 CURVE SMOOTH"
);
}
);
width = 414;
}
);
note = e;
unicode = 0065;
},
{
glyphname = f;
lastChange = "2021-12-30 14:02:16 +0000";
layers = (
{
hints = (
{
horizontal = 1;
place = "{25, 60}";
type = Stem;
},
{
horizontal = 1;
place = "{418, 71}";
type = Stem;
},
{
place = "{109, 59}";
type = Stem;
},
{
place = "{189, 29}";
type = Stem;
},
{
horizontal = 1;
place = "{357, 112}";
type = Stem;
}
);
layerId = "C933835C-79FD-43B5-B38E-78217E13301A";
paths = (
{
closed = 1;
nodes = (
"114 -620 OFFCURVE",
"154 -513 OFFCURVE",
"158 -489 CURVE",
"167 -461 OFFCURVE",
"168 -407 OFFCURVE",
"168 -387 CURVE SMOOTH",
"169 -338 OFFCURVE",
"178 -296 OFFCURVE",
"194 -224 CURVE SMOOTH",
"205 -174 LINE SMOOTH",
"211 -145 OFFCURVE",
"215 -118 OFFCURVE",
"218 -92 CURVE SMOOTH",
"219 -80 OFFCURVE",
"219 -68 OFFCURVE",
"218 -56 CURVE SMOOTH",
"217 -51 OFFCURVE",
"217 -43 OFFCURVE",
"217 -34 CURVE SMOOTH",
"217 29 OFFCURVE",
"266 31 OFFCURVE",
"315 31 CURVE SMOOTH",
"330 31 OFFCURVE",
"346 30 OFFCURVE",
"361 28 CURVE SMOOTH",
"372 27 OFFCURVE",
"396 25 OFFCURVE",
"412 25 CURVE SMOOTH",
"461 25 OFFCURVE",
"504 46 OFFCURVE",
"520 95 CURVE SMOOTH",
"525 109 OFFCURVE",
"507 95 OFFCURVE",
"447 91 CURVE SMOOTH",
"416 89 LINE SMOOTH",
"388 86 OFFCURVE",
"365 85 OFFCURVE",
"348 85 CURVE SMOOTH",
"335 85 OFFCURVE",
"324 85 OFFCURVE",
"317 86 CURVE",
"231 89 OFFCURVE",
"228 144 OFFCURVE",
"223 217 CURVE SMOOTH",
"223 223 OFFCURVE",
"222 233 OFFCURVE",
"221 248 CURVE SMOOTH",
"219 264 OFFCURVE",
"218 281 OFFCURVE",
"218 299 CURVE SMOOTH",
"218 368 OFFCURVE",
"247 418 OFFCURVE",
"304 418 CURVE SMOOTH",
"324 418 OFFCURVE",
"341 408 OFFCURVE",
"365 389 CURVE SMOOTH",
"393 368 OFFCURVE",
"410 357 OFFCURVE",
"434 357 CURVE SMOOTH",
"470 357 OFFCURVE",
"498 391 OFFCURVE",
"498 424 CURVE SMOOTH",
"498 454 OFFCURVE",
"476 471 OFFCURVE",
"447 471 CURVE SMOOTH",
"435 471 OFFCURVE",
"421 469 OFFCURVE",
"404 469 CURVE SMOOTH",
"389 469 OFFCURVE",
"374 471 OFFCURVE",
"357 476 CURVE SMOOTH",
"338 483 OFFCURVE",
"316 489 OFFCURVE",
"299 489 CURVE SMOOTH",
"287 489 OFFCURVE",
"276 486 OFFCURVE",
"266 481 CURVE SMOOTH",
"241 468 OFFCURVE",
"189 382 OFFCURVE",
"189 343 CURVE SMOOTH",
"187 280 OFFCURVE",
"185 248 OFFCURVE",
"183 248 CURVE SMOOTH",
"182 248 OFFCURVE",
"182 260 OFFCURVE",
"181 283 CURVE SMOOTH",
"180 306 OFFCURVE",
"179 323 OFFCURVE",
"178 334 CURVE SMOOTH",
"177 368 OFFCURVE",
"176 395 OFFCURVE",
"174 415 CURVE SMOOTH",
"173 435 OFFCURVE",
"174 456 OFFCURVE",
"174 464 CURVE SMOOTH",
"174 483 OFFCURVE",
"167 488 OFFCURVE",
"139 488 CURVE SMOOTH",
"122 488 OFFCURVE",
"107 482 OFFCURVE",
"80 470 CURVE SMOOTH",
"66 464 OFFCURVE",
"55 460 OFFCURVE",
"46 457 CURVE SMOOTH",
"30 452 OFFCURVE",
"-48 424 OFFCURVE",
"-56 416 CURVE SMOOTH",
"-60 411 OFFCURVE",
"-37 405 OFFCURVE",
"-22 405 CURVE SMOOTH",
"-13 405 OFFCURVE",
"1 407 OFFCURVE",
"16 407 CURVE SMOOTH",
"22 407 OFFCURVE",
"26 407 OFFCURVE",
"29 406 CURVE SMOOTH",
"96 390 OFFCURVE",
"117 328 OFFCURVE",
"117 244 CURVE SMOOTH",
"114 182 LINE SMOOTH",
"110 125 OFFCURVE",
"108 53 OFFCURVE",
"108 -33 CURVE SMOOTH",
"109 -225 LINE",
"109 -421 LINE SMOOTH",
"109 -442 OFFCURVE",
"109 -458 OFFCURVE",
"108 -469 CURVE SMOOTH",
"107 -517 LINE SMOOTH",
"107 -546 OFFCURVE",
"109 -572 OFFCURVE",
"112 -593 CURVE SMOOTH"
);
}
);
width = 521;
}
);
note = f;
unicode = 0066;
},
{
glyphname = g;
lastChange = "2021-12-30 14:02:22 +0000";
layers = (
{
hints = (
{
horizontal = 1;
place = "{-377, 79}";
type = Stem;
},
{
horizontal = 1;
place = "{399, 69}";
type = Stem;
},
{
place = "{20, 66}";
type = Stem;
},
{
place = "{87, 82}";
type = Stem;
},
{
place = "{375, 51}";
type = Stem;
},
{
horizontal = 1;
place = "{402, 70}";
type = Stem;
}
);
layerId = "C933835C-79FD-43B5-B38E-78217E13301A";
paths = (
{
closed = 1;
nodes = (
"311 -366 OFFCURVE",
"389 -272 OFFCURVE",
"415 -165 CURVE SMOOTH",
"422 -136 OFFCURVE",
"426 -112 OFFCURVE",
"426 -95 CURVE SMOOTH",
"426 -50 OFFCURVE",
"408 -13 OFFCURVE",
"371 16 CURVE SMOOTH",
"360 25 OFFCURVE",
"338 40 OFFCURVE",
"305 61 CURVE SMOOTH",
"231 104 OFFCURVE",
"169 151 OFFCURVE",
"169 244 CURVE SMOOTH",
"169 281 OFFCURVE",
"178 316 OFFCURVE",
"197 349 CURVE SMOOTH",
"212 376 OFFCURVE",
"219 387 OFFCURVE",
"238 394 CURVE SMOOTH",
"253 399 OFFCURVE",
"277 402 OFFCURVE",
"308 402 CURVE SMOOTH",
"369 401 LINE SMOOTH",
"373 401 OFFCURVE",
"437 396 OFFCURVE",
"463 415 CURVE SMOOTH",
"471 420 OFFCURVE",
"481 437 OFFCURVE",
"488 445 CURVE SMOOTH",
"491 448 OFFCURVE",
"497 454 OFFCURVE",
"507 463 CURVE SMOOTH",
"516 472 OFFCURVE",
"519 477 OFFCURVE",
"515 476 CURVE",
"506 477 OFFCURVE",
"493 476 OFFCURVE",
"478 474 CURVE SMOOTH",
"461 473 OFFCURVE",
"448 472 OFFCURVE",
"441 472 CURVE SMOOTH",
"344 475 LINE SMOOTH",
"328 476 OFFCURVE",
"304 475 OFFCURVE",
"272 472 CURVE SMOOTH",
"257 471 OFFCURVE",
"238 469 OFFCURVE",
"210 469 CURVE SMOOTH",
"188 469 OFFCURVE",
"163 470 OFFCURVE",
"136 471 CURVE SMOOTH",
"124 472 OFFCURVE",
"106 471 OFFCURVE",
"101 471 CURVE SMOOTH",
"95 471 OFFCURVE",
"92 472 OFFCURVE",
"92 473 CURVE SMOOTH",
"92 474 OFFCURVE",
"93 475 OFFCURVE",
"94 476 CURVE SMOOTH",
"153 522 OFFCURVE",
"211 570 OFFCURVE",
"269 619 CURVE SMOOTH",
"288 633 OFFCURVE",
"374 704 OFFCURVE",
"385 718 CURVE",
"383 718 OFFCURVE",
"368 706 OFFCURVE",
"339 683 CURVE SMOOTH",
"322 669 LINE SMOOTH",
"291 646 OFFCURVE",
"263 623 OFFCURVE",
"237 600 CURVE SMOOTH",
"201 569 OFFCURVE",
"163 539 OFFCURVE",
"124 508 CURVE SMOOTH",
"85 477 OFFCURVE",
"55 457 OFFCURVE",
"35 446 CURVE SMOOTH",
"24 440 OFFCURVE",
"10 429 OFFCURVE",
"-5 414 CURVE SMOOTH",
"-12 408 OFFCURVE",
"-15 404 OFFCURVE",
"-15 403 CURVE SMOOTH",
"-15 401 OFFCURVE",
"-13 400 OFFCURVE",
"-8 400 CURVE SMOOTH",
"17 400 LINE",
"67 403 LINE SMOOTH",
"81 403 OFFCURVE",
"92 403 OFFCURVE",
"99 402 CURVE SMOOTH",
"189 397 LINE",
"192 396 OFFCURVE",
"187 386 OFFCURVE",
"175 365 CURVE SMOOTH",
"167 351 OFFCURVE",
"105 246 OFFCURVE",
"102 243 CURVE",
"92 218 OFFCURVE",
"87 193 OFFCURVE",
"87 168 CURVE SMOOTH",
"87 145 OFFCURVE",
"92 124 OFFCURVE",
"103 105 CURVE SMOOTH",
"114 85 OFFCURVE",
"136 53 OFFCURVE",
"136 32 CURVE SMOOTH",
"136 15 OFFCURVE",
"126 -2 OFFCURVE",
"106 -19 CURVE SMOOTH",
"87 -35 OFFCURVE",
"67 -68 OFFCURVE",
"57 -81 CURVE SMOOTH",
"34 -114 OFFCURVE",
"20 -168 OFFCURVE",
"20 -212 CURVE SMOOTH",
"20 -271 OFFCURVE",
"58 -322 OFFCURVE",
"107 -354 CURVE SMOOTH",
"130 -369 OFFCURVE",
"160 -377 OFFCURVE",
"197 -377 CURVE"
);
},
{
closed = 1;
nodes = (
"189 -298 OFFCURVE",
"160 -284 OFFCURVE",
"124 -253 CURVE SMOOTH",
"99 -233 OFFCURVE",
"86 -192 OFFCURVE",
"86 -148 CURVE SMOOTH",
"86 -77 OFFCURVE",
"110 -54 OFFCURVE",
"158 -10 CURVE",
"163 -3 OFFCURVE",
"170 11 OFFCURVE",
"184 11 CURVE SMOOTH",
"188 11 OFFCURVE",
"191 11 OFFCURVE",
"193 10 CURVE",
"208 7 OFFCURVE",
"226 -14 OFFCURVE",
"234 -19 CURVE SMOOTH",
"271 -47 LINE SMOOTH",
"328 -90 OFFCURVE",
"375 -142 OFFCURVE",
"375 -183 CURVE SMOOTH",
"375 -208 OFFCURVE",
"360 -230 OFFCURVE",
"333 -262 CURVE",
"299 -287 OFFCURVE",
"279 -298 OFFCURVE",
"237 -298 CURVE SMOOTH"
);
}
);
width = 461;
}
);
note = g;
unicode = 0067;
},
{
glyphname = h;
lastChange = "2021-12-30 14:02:22 +0000";
layers = (
{
hints = (
{
horizontal = 1;
place = "{3, 971}";
type = Stem;
},
{
place = "{66, 77}";
type = Stem;
},
{
place = "{313, 79}";
type = Stem;
},
{
horizontal = 1;
place = "{432, 48}";
type = Stem;
},
{
place = "{63, 91}";
type = Stem;
}
);
layerId = "C933835C-79FD-43B5-B38E-78217E13301A";
paths = (
{
closed = 1;
nodes = (
"351 3 OFFCURVE",
"369 8 OFFCURVE",
"394 17 CURVE SMOOTH",
"437 32 OFFCURVE",
"468 48 OFFCURVE",
"512 85 CURVE",
"518 93 OFFCURVE",
"521 98 OFFCURVE",
"521 100 CURVE SMOOTH",
"521 101 OFFCURVE",
"520 102 OFFCURVE",
"519 102 CURVE SMOOTH",
"517 102 OFFCURVE",
"507 97 OFFCURVE",
"488 88 CURVE SMOOTH",
"469 79 OFFCURVE",
"452 74 OFFCURVE",
"435 74 CURVE SMOOTH",
"402 74 OFFCURVE",
"385 102 OFFCURVE",
"385 157 CURVE SMOOTH",
"385 172 OFFCURVE",
"386 186 OFFCURVE",
"388 201 CURVE SMOOTH",
"392 258 OFFCURVE",
"392 316 OFFCURVE",
"392 373 CURVE SMOOTH",
"392 429 OFFCURVE",
"378 480 OFFCURVE",
"335 480 CURVE SMOOTH",
"311 480 OFFCURVE",
"274 468 OFFCURVE",
"265 465 CURVE SMOOTH",
"260 464 OFFCURVE",
"250 461 OFFCURVE",
"235 455 CURVE SMOOTH",
"198 440 OFFCURVE",
"173 433 OFFCURVE",
"159 433 CURVE SMOOTH",
"149 433 OFFCURVE",
"144 436 OFFCURVE",
"144 443 CURVE SMOOTH",
"144 479 OFFCURVE",
"144 502 OFFCURVE",
"145 512 CURVE SMOOTH",
"145 537 OFFCURVE",
"145 561 OFFCURVE",
"146 585 CURVE SMOOTH",
"154 852 LINE SMOOTH",
"154 885 OFFCURVE",
"161 908 OFFCURVE",
"174 941 CURVE SMOOTH",
"177 948 OFFCURVE",
"182 961 OFFCURVE",
"182 968 CURVE SMOOTH",
"182 972 OFFCURVE",
"180 974 OFFCURVE",
"176 974 CURVE SMOOTH",
"166 974 OFFCURVE",
"141 960 OFFCURVE",
"100 933 CURVE SMOOTH",
"68 913 LINE SMOOTH",
"58 906 OFFCURVE",
"42 898 OFFCURVE",
"19 889 CURVE SMOOTH",
"8 884 OFFCURVE",
"-10 874 OFFCURVE",
"-11 873 CURVE SMOOTH",
"-18 864 OFFCURVE",
"-9 856 OFFCURVE",
"12 847 CURVE",
"41 831 OFFCURVE",
"60 818 OFFCURVE",
"61 791 CURVE SMOOTH",
"62 723 OFFCURVE",
"63 644 OFFCURVE",
"63 555 CURVE SMOOTH",
"63 344 LINE SMOOTH",
"65 295 OFFCURVE",
"66 247 OFFCURVE",
"66 198 CURVE SMOOTH",
"66 155 OFFCURVE",
"65 113 OFFCURVE",
"63 71 CURVE SMOOTH",
"62 56 OFFCURVE",
"60 42 OFFCURVE",
"60 31 CURVE SMOOTH",
"60 14 OFFCURVE",
"68 8 OFFCURVE",
"93 8 CURVE SMOOTH",
"127 8 OFFCURVE",
"182 47 OFFCURVE",
"206 70 CURVE SMOOTH",
"222 85 OFFCURVE",
"228 92 OFFCURVE",
"223 92 CURVE SMOOTH",
"220 92 OFFCURVE",
"215 90 OFFCURVE",
"208 85 CURVE",
"196 82 OFFCURVE",
"189 81 OFFCURVE",
"186 81 CURVE SMOOTH",
"157 81 OFFCURVE",
"151 103 OFFCURVE",
"147 156 CURVE SMOOTH",
"146 172 OFFCURVE",
"143 239 OFFCURVE",
"143 392 CURVE SMOOTH",
"143 411 OFFCURVE",
"238 430 OFFCURVE",
"255 432 CURVE SMOOTH",
"299 435 OFFCURVE",
"311 400 OFFCURVE",
"312 351 CURVE SMOOTH",
"313 282 LINE SMOOTH",
"313 151 OFFCURVE",
"306 90 OFFCURVE",
"306 82 CURVE SMOOTH",
"306 25 OFFCURVE",
"309 3 OFFCURVE",
"340 3 CURVE SMOOTH"
);
}
);
width = 470;
}
);
note = h;
unicode = 0068;
},
{
glyphname = i;
lastChange = "2021-12-30 14:02:22 +0000";
layers = (
{
hints = (
{
horizontal = 1;
place = "{-2, 21}";
target = up;
type = BottomGhost;
},
{
place = "{82, 62}";
type = Stem;
},
{
horizontal = 1;
place = "{-2, 66}";
type = Stem;
}
);
layerId = "C933835C-79FD-43B5-B38E-78217E13301A";
paths = (
{
closed = 1;
nodes = (
"153 -2 OFFCURVE",
"188 21 OFFCURVE",
"230 67 CURVE SMOOTH",
"257 97 OFFCURVE",
"271 113 OFFCURVE",
"271 115 CURVE SMOOTH",
"271 117 OFFCURVE",
"262 112 OFFCURVE",
"245 101 CURVE SMOOTH",
"229 90 OFFCURVE",
"213 79 OFFCURVE",
"196 70 CURVE SMOOTH",
"188 66 OFFCURVE",
"181 64 OFFCURVE",
"176 64 CURVE SMOOTH",
"155 64 OFFCURVE",
"144 90 OFFCURVE",
"144 143 CURVE SMOOTH",
"146 192 OFFCURVE",
"151 264 OFFCURVE",
"158 359 CURVE SMOOTH",
"162 398 LINE SMOOTH",
"165 423 OFFCURVE",
"167 446 OFFCURVE",
"167 467 CURVE SMOOTH",
"167 484 OFFCURVE",
"165 486 OFFCURVE",
"153 486 CURVE SMOOTH",
"130 486 OFFCURVE",
"114 485 OFFCURVE",
"86 474 CURVE SMOOTH",
"15 450 OFFCURVE",
"-19 436 OFFCURVE",
"-7 431 CURVE",
"28 424 OFFCURVE",
"62 415 OFFCURVE",
"72 375 CURVE SMOOTH",
"80 347 OFFCURVE",
"81 320 OFFCURVE",
"81 273 CURVE SMOOTH",
"82 85 LINE SMOOTH",
"82 27 OFFCURVE",
"97 -2 OFFCURVE",
"126 -2 CURVE SMOOTH"
);
}
);
width = 244;
}
);
note = i;
unicode = 0069;
},
{
glyphname = iacute;
lastChange = "2021-12-30 14:02:16 +0000";
layers = (
{
hints = (
{
horizontal = 1;
place = "{1, 83}";
type = Stem;
},
{
horizontal = 1;
place = "{1, 21}";
target = up;
type = BottomGhost;
},
{
horizontal = 1;
place = "{708, 26}";
type = Stem;
},
{
place = "{81, 63}";
type = Stem;
}
);
layerId = "C933835C-79FD-43B5-B38E-78217E13301A";
paths = (
{
closed = 1;
nodes = (
"-143 706 OFFCURVE",
"40 773 OFFCURVE",
"99 794 CURVE SMOOTH",
"180 823 OFFCURVE",
"262 851 OFFCURVE",
"347 883 CURVE SMOOTH",
"432 915 OFFCURVE",
"526 962 OFFCURVE",
"598 967 CURVE SMOOTH",
"627 969 OFFCURVE",
"601 935 OFFCURVE",
"610 934 CURVE SMOOTH",
"622 933 OFFCURVE",
"656 933 OFFCURVE",
"666 937 CURVE SMOOTH",
"679 942 OFFCURVE",
"689 955 OFFCURVE",
"706 974 CURVE SMOOTH",
"714 983 OFFCURVE",
"683 1015 OFFCURVE",
"661 1015 CURVE SMOOTH",
"611 1015 OFFCURVE",
"560 990 OFFCURVE",
"539 982 CURVE SMOOTH",
"454 951 OFFCURVE",
"376 908 OFFCURVE",
"294 876 CURVE SMOOTH",
"204 841 OFFCURVE",
"112 808 OFFCURVE",
"17 782 CURVE SMOOTH",
"-53 763 OFFCURVE",
"-152 728 OFFCURVE",
"-143 716 CURVE"
);
},
{
closed = 1;
nodes = (
"145 1 OFFCURVE",
"167 9 OFFCURVE",
"182 15 CURVE SMOOTH",
"205 26 OFFCURVE",
"229 48 OFFCURVE",
"245 78 CURVE",
"252 96 OFFCURVE",
"225 70 OFFCURVE",
"196 70 CURVE SMOOTH",
"154 70 OFFCURVE",
"144 108 OFFCURVE",
"144 143 CURVE SMOOTH",
"144 168 OFFCURVE",
"148 195 OFFCURVE",
"149 211 CURVE SMOOTH",
"151 261 OFFCURVE",
"158 310 OFFCURVE",
"162 359 CURVE SMOOTH",
"165 397 OFFCURVE",
"171 429 OFFCURVE",
"171 467 CURVE SMOOTH",
"171 485 OFFCURVE",
"169 490 OFFCURVE",
"157 490 CURVE SMOOTH",
"137 490 OFFCURVE",
"91 473 OFFCURVE",
"86 471 CURVE",
"17 453 OFFCURVE",
"-20 431 OFFCURVE",
"-7 425 CURVE",
"16 420 OFFCURVE",
"61 420 OFFCURVE",
"72 375 CURVE SMOOTH",
"81 344 OFFCURVE",
"81 307 OFFCURVE",
"81 273 CURVE SMOOTH",
"81 209 OFFCURVE",
"73 142 OFFCURVE",
"73 85 CURVE SMOOTH",
"73 59 OFFCURVE",
"75 30 OFFCURVE",
"92 12 CURVE SMOOTH",
"101 4 OFFCURVE",
"112 1 OFFCURVE",
"125 1 CURVE SMOOTH"
);
}
);
width = 244;
}
);
note = iacute;
unicode = 00ED;
},
{
glyphname = igrave;
lastChange = "2021-12-30 14:02:22 +0000";
layers = (
{
hints = (
{
horizontal = 1;
place = "{1, 21}";
target = up;
type = BottomGhost;
},
{
horizontal = 1;
place = "{708, 42}";
type = Stem;
},
{
place = "{73, 71}";
type = Stem;
}
);
layerId = "C933835C-79FD-43B5-B38E-78217E13301A";
paths = (
{
closed = 1;
nodes = (
"140 1 OFFCURVE",
"159 6 OFFCURVE",
"182 15 CURVE SMOOTH",
"206 27 OFFCURVE",
"229 49 OFFCURVE",
"245 78 CURVE",
"252 98 OFFCURVE",
"227 70 OFFCURVE",
"196 70 CURVE SMOOTH",
"154 70 OFFCURVE",
"144 108 OFFCURVE",
"144 143 CURVE SMOOTH",
"144 166 OFFCURVE",
"148 199 OFFCURVE",
"149 211 CURVE SMOOTH",
"150 243 OFFCURVE",
"156 290 OFFCURVE",
"157 305 CURVE SMOOTH",
"160 329 OFFCURVE",
"161 347 OFFCURVE",
"162 359 CURVE SMOOTH",
"166 398 LINE SMOOTH",
"169 423 OFFCURVE",
"171 446 OFFCURVE",
"171 467 CURVE SMOOTH",
"171 486 OFFCURVE",
"169 490 OFFCURVE",
"157 490 CURVE SMOOTH",
"140 490 OFFCURVE",
"99 476 OFFCURVE",
"86 471 CURVE",
"20 453 OFFCURVE",
"-21 431 OFFCURVE",
"-7 425 CURVE",
"2 423 OFFCURVE",
"60 424 OFFCURVE",
"72 375 CURVE SMOOTH",
"80 347 OFFCURVE",
"81 320 OFFCURVE",
"81 273 CURVE SMOOTH",
"81 250 OFFCURVE",
"80 217 OFFCURVE",
"77 174 CURVE SMOOTH",
"74 133 OFFCURVE",
"73 103 OFFCURVE",
"73 85 CURVE SMOOTH",
"73 53 OFFCURVE",
"77 28 OFFCURVE",
"92 12 CURVE SMOOTH",
"100 5 OFFCURVE",
"111 1 OFFCURVE",
"125 1 CURVE SMOOTH"
);
},
{
closed = 1;
nodes = (
"274 674 OFFCURVE",
"311 694 OFFCURVE",
"316 704 CURVE SMOOTH",
"321 716 OFFCURVE",
"324 724 OFFCURVE",
"324 728 CURVE SMOOTH",
"324 733 OFFCURVE",
"321 738 OFFCURVE",
"316 743 CURVE SMOOTH",
"309 748 OFFCURVE",
"288 750 OFFCURVE",
"252 750 CURVE SMOOTH",
"215 750 OFFCURVE",
"176 748 OFFCURVE",
"134 743 CURVE SMOOTH",
"90 737 OFFCURVE",
"52 734 OFFCURVE",
"21 734 CURVE SMOOTH",
"-17 734 OFFCURVE",
"-46 739 OFFCURVE",
"-65 750 CURVE SMOOTH",
"-69 752 OFFCURVE",
"-73 753 OFFCURVE",
"-77 753 CURVE SMOOTH",
"-100 753 OFFCURVE",
"-124 726 OFFCURVE",
"-124 706 CURVE SMOOTH",
"-124 695 OFFCURVE",
"-117 690 OFFCURVE",
"-104 690 CURVE SMOOTH",
"-93 690 OFFCURVE",
"-56 699 OFFCURVE",
"0 699 CURVE SMOOTH",
"17 699 OFFCURVE",
"46 700 OFFCURVE",
"89 703 CURVE SMOOTH",
"126 706 OFFCURVE",
"158 708 OFFCURVE",
"186 708 CURVE SMOOTH",
"239 708 OFFCURVE",
"262 699 OFFCURVE",
"257 681 CURVE SMOOTH",
"256 676 OFFCURVE",
"258 674 OFFCURVE",
"262 674 CURVE SMOOTH"
);
}
);
width = 244;
}
);
note = igrave;
unicode = 00EC;
},
{
glyphname = j;
lastChange = "2021-12-30 14:02:22 +0000";
layers = (
{
hints = (
{
horizontal = 1;
place = "{-358, 853}";
type = Stem;
},
{
place = "{96, 84}";
type = Stem;
},
{
place = "{105, 74}";
type = Stem;
}
);
layerId = "C933835C-79FD-43B5-B38E-78217E13301A";
paths = (
{
closed = 1;
nodes = (
"85 -359 OFFCURVE",
"107 -339 OFFCURVE",
"109 -335 CURVE",
"123 -322 OFFCURVE",
"133 -306 OFFCURVE",
"140 -285 CURVE SMOOTH",
"146 -266 OFFCURVE",
"151 -237 OFFCURVE",
"155 -197 CURVE SMOOTH",
"158 -163 LINE SMOOTH",
"160 -138 OFFCURVE",
"162 -100 OFFCURVE",
"163 -49 CURVE SMOOTH",
"163 3 OFFCURVE",
"166 57 OFFCURVE",
"174 108 CURVE SMOOTH",
"178 133 OFFCURVE",
"180 165 OFFCURVE",
"180 204 CURVE SMOOTH",
"179 300 LINE SMOOTH",
"179 351 OFFCURVE",
"182 391 OFFCURVE",
"195 439 CURVE SMOOTH",
"200 456 OFFCURVE",
"203 469 OFFCURVE",
"203 478 CURVE SMOOTH",
"203 483 OFFCURVE",
"203 487 OFFCURVE",
"202 490 CURVE SMOOTH",
"201 493 OFFCURVE",
"197 495 OFFCURVE",
"191 495 CURVE SMOOTH",
"157 495 OFFCURVE",
"95 471 OFFCURVE",
"66 448 CURVE SMOOTH",
"45 433 LINE",
"32 426 OFFCURVE",
"22 420 OFFCURVE",
"14 414 CURVE",
"5 405 OFFCURVE",
"11 404 OFFCURVE",
"34 404 CURVE SMOOTH",
"60 404 OFFCURVE",
"79 401 OFFCURVE",
"92 396 CURVE SMOOTH",
"101 393 OFFCURVE",
"105 365 OFFCURVE",
"105 313 CURVE SMOOTH",
"105 272 OFFCURVE",
"101 224 OFFCURVE",
"100 207 CURVE SMOOTH",
"97 156 OFFCURVE",
"96 99 OFFCURVE",
"96 36 CURVE SMOOTH",
"96 -35 OFFCURVE",
"94 -107 OFFCURVE",
"90 -178 CURVE SMOOTH",
"87 -229 OFFCURVE",
"86 -267 OFFCURVE",
"85 -292 CURVE SMOOTH",
"85 -300 OFFCURVE",
"83 -311 OFFCURVE",
"79 -324 CURVE SMOOTH",
"78 -329 OFFCURVE",
"74 -344 OFFCURVE",
"74 -355 CURVE SMOOTH",
"74 -358 OFFCURVE",
"75 -359 OFFCURVE",
"77 -359 CURVE SMOOTH"
);
}
);
width = 273;
}
);
note = j;
unicode = 006A;
},
{
glyphname = k;
lastChange = "2021-12-30 14:02:22 +0000";
layers = (
{
hints = (
{
horizontal = 1;
place = "{17, 47}";
type = Stem;
},
{
horizontal = 1;
place = "{282, 10}";
type = Stem;
},
{
place = "{80, 84}";
type = Stem;
},
{
place = "{82, 87}";
type = Stem;
}
);
layerId = "C933835C-79FD-43B5-B38E-78217E13301A";
paths = (
{
closed = 1;
nodes = (
"150 10 OFFCURVE",
"179 22 OFFCURVE",
"214 46 CURVE SMOOTH",
"223 53 OFFCURVE",
"235 61 OFFCURVE",
"248 72 CURVE SMOOTH",
"261 83 OFFCURVE",
"264 87 OFFCURVE",
"257 86 CURVE",
"244 77 OFFCURVE",
"230 72 OFFCURVE",
"217 72 CURVE SMOOTH",
"198 72 OFFCURVE",
"185 82 OFFCURVE",
"176 102 CURVE SMOOTH",
"165 127 OFFCURVE",
"164 167 OFFCURVE",
"164 235 CURVE SMOOTH",
"163 269 LINE SMOOTH",
"163 277 OFFCURVE",
"164 281 OFFCURVE",
"167 282 CURVE",
"169 281 LINE SMOOTH",
"225 258 OFFCURVE",
"246 221 OFFCURVE",
"277 150 CURVE SMOOTH",
"300 98 OFFCURVE",
"313 71 OFFCURVE",
"341 44 CURVE SMOOTH",
"357 28 OFFCURVE",
"371 21 OFFCURVE",
"400 17 CURVE SMOOTH",
"414 15 OFFCURVE",
"432 20 OFFCURVE",
"455 33 CURVE SMOOTH",
"478 46 OFFCURVE",
"498 60 OFFCURVE",
"516 75 CURVE SMOOTH",
"534 90 OFFCURVE",
"540 97 OFFCURVE",
"534 96 CURVE SMOOTH",
"530 95 OFFCURVE",
"523 91 OFFCURVE",
"513 84 CURVE SMOOTH",
"492 71 OFFCURVE",
"480 64 OFFCURVE",
"464 64 CURVE SMOOTH",
"408 64 OFFCURVE",
"367 153 OFFCURVE",
"348 199 CURVE SMOOTH",
"328 250 OFFCURVE",
"313 276 OFFCURVE",
"270 300 CURVE SMOOTH",
"262 304 OFFCURVE",
"290 315 OFFCURVE",
"296 319 CURVE SMOOTH",
"333 343 OFFCURVE",
"400 404 OFFCURVE",
"400 452 CURVE SMOOTH",
"400 467 OFFCURVE",
"392 474 OFFCURVE",
"376 474 CURVE SMOOTH",
"357 474 OFFCURVE",
"350 468 OFFCURVE",
"338 456 CURVE SMOOTH",
"325 441 OFFCURVE",
"315 434 OFFCURVE",
"287 434 CURVE SMOOTH",
"280 434 OFFCURVE",
"276 433 OFFCURVE",
"276 432 CURVE",
"276 432 OFFCURVE",
"302 413 OFFCURVE",
"302 404 CURVE SMOOTH",
"302 393 OFFCURVE",
"300 385 OFFCURVE",
"296 378 CURVE SMOOTH",
"269 334 OFFCURVE",
"250 315 OFFCURVE",
"199 300 CURVE SMOOTH",
"191 297 OFFCURVE",
"172 295 OFFCURVE",
"165 292 CURVE",
"165 368 LINE SMOOTH",
"165 390 OFFCURVE",
"166 424 OFFCURVE",
"167 471 CURVE SMOOTH",
"168 516 OFFCURVE",
"169 551 OFFCURVE",
"169 576 CURVE SMOOTH",
"169 641 OFFCURVE",
"170 655 OFFCURVE",
"170 663 CURVE SMOOTH",
"171 687 OFFCURVE",
"172 754 OFFCURVE",
"172 863 CURVE SMOOTH",
"173 894 OFFCURVE",
"177 911 OFFCURVE",
"188 947 CURVE SMOOTH",
"192 962 OFFCURVE",
"194 970 OFFCURVE",
"194 972 CURVE SMOOTH",
"194 977 OFFCURVE",
"192 979 OFFCURVE",
"188 979 CURVE SMOOTH",
"184 979 OFFCURVE",
"171 973 OFFCURVE",
"148 962 CURVE",
"135 953 OFFCURVE",
"114 943 OFFCURVE",
"86 931 CURVE SMOOTH",
"53 916 LINE SMOOTH",
"14 900 OFFCURVE",
"-5 889 OFFCURVE",
"-5 883 CURVE SMOOTH",
"-5 880 OFFCURVE",
"1 877 OFFCURVE",
"12 872 CURVE",
"47 860 OFFCURVE",
"74 843 OFFCURVE",
"75 802 CURVE SMOOTH",
"80 708 OFFCURVE",
"82 585 OFFCURVE",
"82 433 CURVE SMOOTH",
"82 397 OFFCURVE",
"82 370 OFFCURVE",
"81 352 CURVE SMOOTH",
"80 267 LINE",
"80 65 LINE",
"83 28 OFFCURVE",
"98 10 OFFCURVE",
"127 10 CURVE SMOOTH"
);
}
);
width = 467;
}
);
note = k;
unicode = 006B;
},
{
glyphname = l;
lastChange = "2021-12-30 14:02:16 +0000";
layers = (
{
hints = (
{
horizontal = 1;
place = "{4, 50}";
type = Stem;
},
{
place = "{76, 77}";
type = Stem;
}
);
layerId = "C933835C-79FD-43B5-B38E-78217E13301A";
paths = (
{
closed = 1;
nodes = (
"194 4 OFFCURVE",
"240 32 OFFCURVE",
"299 83 CURVE SMOOTH",
"315 98 OFFCURVE",
"322 106 OFFCURVE",
"320 106 CURVE SMOOTH",
"319 106 OFFCURVE",
"313 102 OFFCURVE",
"301 95 CURVE SMOOTH",
"262 68 OFFCURVE",
"235 54 OFFCURVE",
"220 54 CURVE SMOOTH",
"164 54 OFFCURVE",
"153 99 OFFCURVE",
"153 196 CURVE SMOOTH",
"153 258 LINE",
"154 301 LINE SMOOTH",
"155 340 OFFCURVE",
"156 368 OFFCURVE",
"156 387 CURVE SMOOTH",
"156 420 LINE SMOOTH",
"156 501 OFFCURVE",
"159 601 OFFCURVE",
"165 720 CURVE SMOOTH",
"171 831 LINE SMOOTH",
"171 869 OFFCURVE",
"173 896 OFFCURVE",
"193 928 CURVE SMOOTH",
"204 948 OFFCURVE",
"209 956 OFFCURVE",
"209 971 CURVE SMOOTH",
"209 976 OFFCURVE",
"200 974 OFFCURVE",
"183 967 CURVE SMOOTH",
"166 960 OFFCURVE",
"150 953 OFFCURVE",
"137 946 CURVE SMOOTH",
"125 940 OFFCURVE",
"112 934 OFFCURVE",
"99 929 CURVE SMOOTH",
"31 898 OFFCURVE",
"-5 880 OFFCURVE",
"-5 871 CURVE SMOOTH",
"-5 868 OFFCURVE",
"-2 866 OFFCURVE",
"4 865 CURVE SMOOTH",
"68 853 OFFCURVE",
"80 832 OFFCURVE",
"82 712 CURVE SMOOTH",
"83 683 OFFCURVE",
"83 644 OFFCURVE",
"83 593 CURVE SMOOTH",
"83 516 OFFCURVE",
"81 425 OFFCURVE",
"78 320 CURVE SMOOTH",
"77 277 OFFCURVE",
"76 218 OFFCURVE",
"76 141 CURVE SMOOTH",
"76 50 OFFCURVE",
"101 4 OFFCURVE",
"151 4 CURVE SMOOTH"
);
}
);
width = 270;
}
);
note = l;
unicode = 006C;
},
{
glyphname = m;
lastChange = "2021-12-30 14:02:16 +0000";
layers = (
{
hints = (
{
horizontal = 1;
place = "{2, 66}";
type = Stem;
},
{
horizontal = 1;
place = "{-2, 21}";
target = up;
type = BottomGhost;
},
{
horizontal = 1;
place = "{409, 65}";
type = Stem;
},
{
horizontal = 1;
place = "{499, -20}";
target = down;
type = TopGhost;
},
{
place = "{78, 77}";
type = Stem;
},
{
place = "{275, 77}";
type = Stem;
},
{
place = "{489, 83}";
type = Stem;
},
{
horizontal = 1;
place = "{5, 61}";
type = Stem;
},
{
horizontal = 1;
place = "{396, 74}";
type = Stem;
}
);
layerId = "C933835C-79FD-43B5-B38E-78217E13301A";
paths = (
{
closed = 1;
nodes = (
"151 2 OFFCURVE",
"195 25 OFFCURVE",
"234 68 CURVE",
"241 80 OFFCURVE",
"230 77 OFFCURVE",
"213 66 CURVE SMOOTH",
"209 63 OFFCURVE",
"197 57 OFFCURVE",
"193 57 CURVE SMOOTH",
"172 57 OFFCURVE",
"162 85 OFFCURVE",
"159 126 CURVE SMOOTH",
"158 149 OFFCURVE",
"156 184 OFFCURVE",
"155 231 CURVE SMOOTH",
"155 249 OFFCURVE",
"154 277 OFFCURVE",
"153 314 CURVE SMOOTH",
"152 331 OFFCURVE",
"151 347 OFFCURVE",
"151 360 CURVE SMOOTH",
"151 369 OFFCURVE",
"152 375 OFFCURVE",
"153 377 CURVE",
"168 389 OFFCURVE",
"208 409 OFFCURVE",
"228 409 CURVE SMOOTH",
"260 409 OFFCURVE",
"277 374 OFFCURVE",
"277 322 CURVE SMOOTH",
"275 161 LINE SMOOTH",
"275 90 OFFCURVE",
"265 59 OFFCURVE",
"265 52 CURVE SMOOTH",
"265 23 OFFCURVE",
"289 2 OFFCURVE",
"313 2 CURVE SMOOTH",
"352 2 OFFCURVE",
"399 27 OFFCURVE",
"436 72 CURVE SMOOTH",
"443 81 OFFCURVE",
"446 85 OFFCURVE",
"446 86 CURVE",
"445 87 LINE",
"444 87 OFFCURVE",
"436 84 OFFCURVE",
"423 78 CURVE SMOOTH",
"409 71 OFFCURVE",
"398 68 OFFCURVE",
"390 68 CURVE SMOOTH",
"358 68 OFFCURVE",
"350 91 OFFCURVE",
"351 128 CURVE SMOOTH",
"352 163 OFFCURVE",
"352 200 OFFCURVE",
"352 240 CURVE SMOOTH",
"354 330 LINE SMOOTH",
"354 349 OFFCURVE",
"355 360 OFFCURVE",
"357 365 CURVE SMOOTH",
"365 382 OFFCURVE",
"408 396 OFFCURVE",
"436 396 CURVE SMOOTH",
"481 396 OFFCURVE",
"493 345 OFFCURVE",
"493 309 CURVE SMOOTH",
"493 298 OFFCURVE",
"493 289 OFFCURVE",
"492 284 CURVE SMOOTH",
"490 266 OFFCURVE",
"489 238 OFFCURVE",
"489 201 CURVE SMOOTH",
"487 137 LINE SMOOTH",
"487 125 OFFCURVE",
"488 99 OFFCURVE",
"483 82 CURVE",
"480 76 OFFCURVE",
"479 69 OFFCURVE",
"479 61 CURVE SMOOTH",
"479 30 OFFCURVE",
"500 5 OFFCURVE",
"528 5 CURVE SMOOTH",
"559 5 OFFCURVE",
"592 32 OFFCURVE",
"632 71 CURVE SMOOTH",
"647 85 OFFCURVE",
"654 92 OFFCURVE",
"653 92 CURVE",
"651 91 OFFCURVE",
"642 87 OFFCURVE",
"627 79 CURVE SMOOTH",
"611 70 OFFCURVE",
"595 66 OFFCURVE",
"580 66 CURVE SMOOTH",
"563 66 OFFCURVE",
"555 83 OFFCURVE",
"555 116 CURVE SMOOTH",
"555 129 OFFCURVE",
"555 138 OFFCURVE",
"556 144 CURVE SMOOTH",
"557 155 OFFCURVE",
"558 168 OFFCURVE",
"561 185 CURVE SMOOTH",
"567 236 OFFCURVE",
"572 289 OFFCURVE",
"572 340 CURVE SMOOTH",
"572 403 OFFCURVE",
"562 452 OFFCURVE",
"519 467 CURVE SMOOTH",
"512 469 OFFCURVE",
"505 470 OFFCURVE",
"499 470 CURVE SMOOTH",
"482 470 OFFCURVE",
"467 464 OFFCURVE",
"442 451 CURVE SMOOTH",
"427 444 OFFCURVE",
"405 429 OFFCURVE",
"394 422 CURVE SMOOTH",
"386 417 OFFCURVE",
"378 406 OFFCURVE",
"363 405 CURVE",
"356 402 OFFCURVE",
"359 419 OFFCURVE",
"359 422 CURVE SMOOTH",
"359 453 OFFCURVE",
"348 474 OFFCURVE",
"317 474 CURVE SMOOTH",
"284 474 OFFCURVE",
"253 465 OFFCURVE",
"223 446 CURVE SMOOTH",
"203 434 LINE SMOOTH",
"176 417 OFFCURVE",
"160 408 OFFCURVE",
"154 408 CURVE SMOOTH",
"151 408 OFFCURVE",
"150 410 OFFCURVE",
"150 413 CURVE SMOOTH",
"150 438 OFFCURVE",
"151 463 OFFCURVE",
"153 487 CURVE SMOOTH",
"154 495 OFFCURVE",
"153 499 OFFCURVE",
"148 499 CURVE SMOOTH",
"140 499 OFFCURVE",
"108 484 OFFCURVE",
"97 480 CURVE SMOOTH",
"80 473 OFFCURVE",
"49 469 OFFCURVE",
"40 466 CURVE SMOOTH",
"21 462 OFFCURVE",
"-6 444 OFFCURVE",
"-15 439 CURVE SMOOTH",
"-22 436 OFFCURVE",
"-25 432 OFFCURVE",
"-25 428 CURVE SMOOTH",
"-25 424 OFFCURVE",
"-20 421 OFFCURVE",
"-11 419 CURVE SMOOTH",
"41 410 OFFCURVE",
"78 402 OFFCURVE",
"78 342 CURVE SMOOTH",
"78 166 LINE SMOOTH",
"78 136 OFFCURVE",
"76 96 OFFCURVE",
"71 47 CURVE SMOOTH",
"68 19 OFFCURVE",
"79 -3 OFFCURVE",
"104 -2 CURVE SMOOTH"
);
}
);
width = 636;
}
);
note = m;
unicode = 006D;
},
{
glyphname = n;
lastChange = "2021-12-30 14:02:22 +0000";
layers = (
{
hints = (
{
horizontal = 1;
place = "{13, 43}";
type = Stem;
},
{
horizontal = 1;
place = "{410, 73}";
type = Stem;
},
{
place = "{84, 67}";
type = Stem;
},
{
place = "{341, 77}";
type = Stem;
},
{
place = "{332, 62}";
type = Stem;
}
);
layerId = "C933835C-79FD-43B5-B38E-78217E13301A";
paths = (
{
closed = 1;
nodes = (
"137 6 OFFCURVE",
"198 55 OFFCURVE",
"225 77 CURVE",
"228 82 OFFCURVE",
"226 83 OFFCURVE",
"219 80 CURVE SMOOTH",
"203 72 OFFCURVE",
"189 66 OFFCURVE",
"170 65 CURVE",
"157 66 OFFCURVE",
"153 77 OFFCURVE",
"152 102 CURVE SMOOTH",
"151 124 OFFCURVE",
"151 150 OFFCURVE",
"151 181 CURVE SMOOTH",
"151 224 LINE",
"153 285 LINE",
"153 318 LINE SMOOTH",
"153 347 OFFCURVE",
"155 366 OFFCURVE",
"168 374 CURVE SMOOTH",
"211 401 OFFCURVE",
"233 410 OFFCURVE",
"265 410 CURVE SMOOTH",
"325 410 OFFCURVE",
"341 353 OFFCURVE",
"341 270 CURVE SMOOTH",
"341 252 OFFCURVE",
"340 231 OFFCURVE",
"339 207 CURVE SMOOTH",
"339 198 OFFCURVE",
"339 191 OFFCURVE",
"338 186 CURVE",
"338 165 OFFCURVE",
"337 142 OFFCURVE",
"335 118 CURVE SMOOTH",
"330 67 LINE SMOOTH",
"326 31 OFFCURVE",
"337 13 OFFCURVE",
"363 13 CURVE SMOOTH",
"404 13 OFFCURVE",
"463 52 OFFCURVE",
"488 85 CURVE",
"489 88 OFFCURVE",
"489 90 OFFCURVE",
"488 91 CURVE",
"485 91 OFFCURVE",
"471 81 OFFCURVE",
"468 80 CURVE",
"451 69 OFFCURVE",
"427 56 OFFCURVE",
"414 56 CURVE SMOOTH",
"399 56 OFFCURVE",
"394 79 OFFCURVE",
"395 99 CURVE SMOOTH",
"400 168 OFFCURVE",
"409 225 OFFCURVE",
"410 240 CURVE SMOOTH",
"415 279 OFFCURVE",
"418 313 OFFCURVE",
"418 341 CURVE SMOOTH",
"418 394 OFFCURVE",
"418 483 OFFCURVE",
"345 483 CURVE SMOOTH",
"317 483 OFFCURVE",
"290 467 OFFCURVE",
"245 438 CURVE SMOOTH",
"236 432 OFFCURVE",
"194 404 OFFCURVE",
"161 394 CURVE SMOOTH",
"158 393 OFFCURVE",
"157 398 OFFCURVE",
"157 408 CURVE SMOOTH",
"157 421 OFFCURVE",
"158 436 OFFCURVE",
"161 453 CURVE",
"163 481 LINE",
"165 488 OFFCURVE",
"163 491 OFFCURVE",
"157 491 CURVE SMOOTH",
"149 491 OFFCURVE",
"137 487 OFFCURVE",
"121 478 CURVE SMOOTH",
"104 469 OFFCURVE",
"95 464 OFFCURVE",
"92 463 CURVE SMOOTH",
"66 451 LINE",
"38 437 LINE SMOOTH",
"21 428 OFFCURVE",
"7 419 OFFCURVE",
"-6 409 CURVE SMOOTH",
"-19 399 OFFCURVE",
"-20 394 OFFCURVE",
"-11 394 CURVE SMOOTH",
"29 395 LINE SMOOTH",
"43 395 OFFCURVE",
"53 393 OFFCURVE",
"59 390 CURVE SMOOTH",
"71 383 OFFCURVE",
"75 368 OFFCURVE",
"80 316 CURVE SMOOTH",
"83 258 OFFCURVE",
"84 200 OFFCURVE",
"84 142 CURVE SMOOTH",
"84 124 OFFCURVE",
"82 102 OFFCURVE",
"78 77 CURVE SMOOTH",
"75 58 OFFCURVE",
"74 47 OFFCURVE",
"74 42 CURVE SMOOTH",
"74 18 OFFCURVE",
"83 6 OFFCURVE",
"100 6 CURVE SMOOTH"
);
}
);
width = 470;
}
);
note = n;
unicode = 006E;
},
{
glyphname = o;
lastChange = "2021-12-30 14:02:22 +0000";
layers = (
{
hints = (
{
horizontal = 1;
place = "{11, 60}";
type = Stem;
},
{
horizontal = 1;
place = "{407, 72}";
type = Stem;
},
{
place = "{16, 67}";
type = Stem;
},
{
place = "{358, 54}";
type = Stem;
}
);
layerId = "C933835C-79FD-43B5-B38E-78217E13301A";
paths = (
{
closed = 1;
nodes = (
"323 11 OFFCURVE",
"412 140 OFFCURVE",
"412 299 CURVE SMOOTH",
"412 399 OFFCURVE",
"347 479 OFFCURVE",
"245 479 CURVE SMOOTH",
"220 479 OFFCURVE",
"195 475 OFFCURVE",
"170 468 CURVE",
"60 411 OFFCURVE",
"16 377 OFFCURVE",
"16 240 CURVE SMOOTH",
"16 151 OFFCURVE",
"73 23 OFFCURVE",
"170 12 CURVE SMOOTH",
"175 11 OFFCURVE",
"182 11 OFFCURVE",
"192 11 CURVE SMOOTH"
);
},
{
closed = 1;
nodes = (
"189 63 OFFCURVE",
"139 112 OFFCURVE",
"116 176 CURVE SMOOTH",
"95 236 OFFCURVE",
"83 268 OFFCURVE",
"83 308 CURVE SMOOTH",
"83 370 OFFCURVE",
"131 407 OFFCURVE",
"189 407 CURVE SMOOTH",
"272 407 OFFCURVE",
"358 315 OFFCURVE",
"358 234 CURVE SMOOTH",
"358 146 OFFCURVE",
"335 82 OFFCURVE",
"248 71 CURVE SMOOTH"
);
}
);
width = 427;
}
);
note = o;
unicode = 006F;
},
{
glyphname = oacute;
lastChange = "2021-12-30 14:02:16 +0000";
layers = (
{
hints = (
{
horizontal = 1;
place = "{11, 60}";
type = Stem;
},
{
horizontal = 1;
place = "{407, 72}";
type = Stem;
},
{
horizontal = 1;
place = "{913, 52}";
type = Stem;
},
{
horizontal = 1;
place = "{965, -20}";
target = down;
type = TopGhost;
},
{
place = "{16, 67}";
type = Stem;
},
{
place = "{358, 54}";
type = Stem;
}
);
layerId = "C933835C-79FD-43B5-B38E-78217E13301A";
paths = (
{
closed = 1;
nodes = (
"-280 752 OFFCURVE",
"-179 779 OFFCURVE",
"-113 800 CURVE SMOOTH",
"-31 826 OFFCURVE",
"52 849 OFFCURVE",
"135 871 CURVE SMOOTH",
"205 890 OFFCURVE",
"276 908 OFFCURVE",
"348 913 CURVE SMOOTH",
"377 915 OFFCURVE",
"374 883 OFFCURVE",
"383 882 CURVE SMOOTH",
"395 881 OFFCURVE",
"409 889 OFFCURVE",
"419 893 CURVE SMOOTH",
"432 898 OFFCURVE",
"493 923 OFFCURVE",
"493 946 CURVE SMOOTH",
"493 960 OFFCURVE",
"476 965 OFFCURVE",
"454 965 CURVE SMOOTH",
"404 965 OFFCURVE",
"320 937 OFFCURVE",
"299 933 CURVE SMOOTH",
"214 917 OFFCURVE",
"132 892 OFFCURVE",
"49 865 CURVE SMOOTH",
"-36 837 OFFCURVE",
"-122 815 OFFCURVE",
"-208 788 CURVE SMOOTH",
"-234 780 OFFCURVE",
"-352 757 OFFCURVE",
"-362 722 CURVE"
);
},
{
closed = 1;
nodes = (
"185 63 OFFCURVE",
"137 117 OFFCURVE",
"116 176 CURVE SMOOTH",
"104 209 OFFCURVE",
"83 261 OFFCURVE",
"83 308 CURVE SMOOTH",
"83 370 OFFCURVE",
"131 407 OFFCURVE",
"189 407 CURVE SMOOTH",
"281 407 OFFCURVE",
"358 304 OFFCURVE",
"358 234 CURVE SMOOTH",
"358 164 OFFCURVE",
"345 83 OFFCURVE",
"248 71 CURVE SMOOTH"
);
},
{
closed = 1;
nodes = (
"326 11 OFFCURVE",
"412 141 OFFCURVE",
"412 299 CURVE SMOOTH",
"412 355 OFFCURVE",
"389 411 OFFCURVE",
"345 447 CURVE SMOOTH",
"317 471 OFFCURVE",
"281 479 OFFCURVE",
"245 479 CURVE SMOOTH",
"218 479 OFFCURVE",
"191 474 OFFCURVE",
"170 468 CURVE",
"56 411 OFFCURVE",
"16 375 OFFCURVE",
"16 240 CURVE SMOOTH",
"16 152 OFFCURVE",
"73 22 OFFCURVE",
"170 12 CURVE SMOOTH",
"177 11 OFFCURVE",
"185 11 OFFCURVE",
"192 11 CURVE SMOOTH"
);
}
);
width = 427;
}
);
note = oacute;
unicode = 00F3;
},
{
glyphname = odieresis;
lastChange = "2021-12-30 14:02:22 +0000";
layers = (
{
hints = (
{
horizontal = 1;
place = "{11, 60}";
type = Stem;
},
{
horizontal = 1;
place = "{407, 72}";
type = Stem;
},
{
horizontal = 1;
place = "{539, 92}";
type = Stem;
},
{
place = "{16, 67}";
type = Stem;
},
{
place = "{105, 66}";
type = Stem;
},
{
place = "{251, 67}";
type = Stem;
},
{
place = "{358, 54}";
type = Stem;
}
);
layerId = "C933835C-79FD-43B5-B38E-78217E13301A";
paths = (
{
closed = 1;
nodes = (
"323 11 OFFCURVE",
"412 140 OFFCURVE",
"412 299 CURVE SMOOTH",
"412 399 OFFCURVE",
"347 479 OFFCURVE",
"245 479 CURVE SMOOTH",
"220 479 OFFCURVE",
"195 475 OFFCURVE",
"170 468 CURVE",
"60 411 OFFCURVE",
"16 377 OFFCURVE",
"16 240 CURVE SMOOTH",
"16 151 OFFCURVE",
"73 23 OFFCURVE",
"170 12 CURVE SMOOTH",
"175 11 OFFCURVE",
"182 11 OFFCURVE",
"192 11 CURVE SMOOTH"
);
},
{
closed = 1;
nodes = (
"189 63 OFFCURVE",
"139 112 OFFCURVE",
"116 176 CURVE SMOOTH",
"95 236 OFFCURVE",
"83 268 OFFCURVE",
"83 308 CURVE SMOOTH",
"83 370 OFFCURVE",
"131 407 OFFCURVE",
"189 407 CURVE SMOOTH",
"272 407 OFFCURVE",
"358 315 OFFCURVE",
"358 234 CURVE SMOOTH",
"358 146 OFFCURVE",
"335 82 OFFCURVE",
"248 71 CURVE SMOOTH"
);
},
{
closed = 1;
nodes = (
"159 533 OFFCURVE",
"171 562 OFFCURVE",
"171 597 CURVE SMOOTH",
"171 609 OFFCURVE",
"157 624 OFFCURVE",
"144 627 CURVE",
"113 627 OFFCURVE",
"105 609 OFFCURVE",
"105 581 CURVE SMOOTH",
"105 564 OFFCURVE",
"116 548 OFFCURVE",
"139 540 CURVE SMOOTH"
);
},
{
closed = 1;
nodes = (
"305 539 OFFCURVE",
"318 570 OFFCURVE",
"318 593 CURVE SMOOTH",
"318 616 OFFCURVE",
"303 631 OFFCURVE",
"286 631 CURVE SMOOTH",
"267 631 OFFCURVE",
"251 613 OFFCURVE",
"251 580 CURVE SMOOTH",
"251 557 OFFCURVE",
"267 539 OFFCURVE",
"288 539 CURVE SMOOTH"
);
}
);
width = 427;
}
);
note = odieresis;
unicode = 00F6;
},
{
glyphname = ograve;
lastChange = "2021-12-30 14:02:22 +0000";
layers = (
{
hints = (
{
horizontal = 1;
place = "{8, 55}";
type = Stem;
},
{
horizontal = 1;
place = "{423, 65}";
type = Stem;
},
{
horizontal = 1;
place = "{732, 31}";
type = Stem;
},
{
place = "{38, 79}";
type = Stem;
},
{
place = "{337, 80}";
type = Stem;
},
{
horizontal = 1;
place = "{738, 33}";
type = Stem;
}
);
layerId = "C933835C-79FD-43B5-B38E-78217E13301A";
paths = (
{
closed = 1;
nodes = (
"310 8 OFFCURVE",
"399 145 OFFCURVE",
"413 252 CURVE SMOOTH",
"416 275 OFFCURVE",
"417 293 OFFCURVE",
"417 307 CURVE SMOOTH",
"417 376 OFFCURVE",
"397 426 OFFCURVE",
"357 457 CURVE SMOOTH",
"332 478 OFFCURVE",
"304 488 OFFCURVE",
"273 488 CURVE SMOOTH",
"246 488 OFFCURVE",
"220 481 OFFCURVE",
"197 467 CURVE",
"186 462 OFFCURVE",
"169 456 OFFCURVE",
"148 449 CURVE SMOOTH",
"96 432 OFFCURVE",
"72 419 OFFCURVE",
"57 371 CURVE SMOOTH",
"44 328 OFFCURVE",
"38 286 OFFCURVE",
"38 245 CURVE SMOOTH",
"38 163 OFFCURVE",
"68 35 OFFCURVE",
"159 12 CURVE SMOOTH",
"168 9 OFFCURVE",
"178 8 OFFCURVE",
"190 8 CURVE SMOOTH"
);
},
{
closed = 1;
nodes = (
"225 63 OFFCURVE",
"209 73 OFFCURVE",
"185 97 CURVE SMOOTH",
"137 148 OFFCURVE",
"117 266 OFFCURVE",
"117 334 CURVE SMOOTH",
"117 386 OFFCURVE",
"135 423 OFFCURVE",
"191 423 CURVE SMOOTH",
"207 423 OFFCURVE",
"221 421 OFFCURVE",
"233 417 CURVE SMOOTH",
"265 409 OFFCURVE",
"293 376 OFFCURVE",
"313 341 CURVE SMOOTH",
"329 314 OFFCURVE",
"337 281 OFFCURVE",
"337 242 CURVE SMOOTH",
"337 206 OFFCURVE",
"330 166 OFFCURVE",
"317 123 CURVE SMOOTH",
"306 83 OFFCURVE",
"278 63 OFFCURVE",
"245 63 CURVE SMOOTH"
);
},
{
closed = 1;
nodes = (
"474 692 OFFCURVE",
"519 724 OFFCURVE",
"523 734 CURVE SMOOTH",
"528 746 OFFCURVE",
"531 754 OFFCURVE",
"531 759 CURVE SMOOTH",
"531 764 OFFCURVE",
"528 769 OFFCURVE",
"523 774 CURVE",
"517 778 OFFCURVE",
"500 780 OFFCURVE",
"472 780 CURVE SMOOTH",
"452 780 OFFCURVE",
"421 779 OFFCURVE",
"378 776 CURVE SMOOTH",
"208 766 LINE SMOOTH",
"191 765 OFFCURVE",
"169 763 OFFCURVE",
"144 763 CURVE SMOOTH",
"108 763 OFFCURVE",
"89 769 OFFCURVE",
"89 786 CURVE SMOOTH",
"89 792 OFFCURVE",
"88 795 OFFCURVE",
"85 795 CURVE SMOOTH",
"73 795 OFFCURVE",
"38 738 OFFCURVE",
"47 733 CURVE",
"52 729 OFFCURVE",
"59 727 OFFCURVE",
"67 727 CURVE SMOOTH",
"76 727 OFFCURVE",
"107 732 OFFCURVE",
"156 732 CURVE SMOOTH",
"178 732 OFFCURVE",
"205 733 OFFCURVE",
"237 735 CURVE SMOOTH",
"262 736 OFFCURVE",
"304 738 OFFCURVE",
"357 738 CURVE SMOOTH",
"433 738 OFFCURVE",
"475 731 OFFCURVE",
"464 711 CURVE SMOOTH",
"460 704 OFFCURVE",
"458 699 OFFCURVE",
"458 696 CURVE SMOOTH",
"458 693 OFFCURVE",
"460 692 OFFCURVE",
"463 692 CURVE SMOOTH"
);
}
);
width = 435;
}
);
note = ograve;
unicode = 00F2;
},
{
glyphname = p;
lastChange = "2021-12-30 14:02:22 +0000";
layers = (
{
hints = (
{
horizontal = 1;
place = "{94, 93}";
type = Stem;
},
{
horizontal = 1;
place = "{427, 66}";
type = Stem;
},
{
place = "{109, 51}";
type = Stem;
},
{
place = "{181, 28}";
type = Stem;
},
{
place = "{450, 77}";
type = Stem;
},
{
place = "{93, 75}";
type = Stem;
},
{
place = "{113, 69}";
type = Stem;
},
{
place = "{108, 82}";
type = Stem;
}
);
layerId = "C933835C-79FD-43B5-B38E-78217E13301A";
paths = (
{
closed = 1;
nodes = (
"105 -607 OFFCURVE",
"108 -607 OFFCURVE",
"110 -606 CURVE",
"139 -600 OFFCURVE",
"170 -549 OFFCURVE",
"166 -524 CURVE SMOOTH",
"162 -506 OFFCURVE",
"160 -489 OFFCURVE",
"160 -473 CURVE SMOOTH",
"160 -458 OFFCURVE",
"163 -433 OFFCURVE",
"168 -400 CURVE SMOOTH",
"173 -366 LINE SMOOTH",
"179 -338 OFFCURVE",
"182 -300 OFFCURVE",
"182 -251 CURVE SMOOTH",
"182 -208 LINE SMOOTH",
"182 -172 OFFCURVE",
"183 -145 OFFCURVE",
"185 -128 CURVE SMOOTH",
"188 -105 OFFCURVE",
"190 -58 OFFCURVE",
"190 15 CURVE SMOOTH",
"190 46 OFFCURVE",
"193 86 OFFCURVE",
"199 135 CURVE SMOOTH",
"206 216 LINE",
"209 274 LINE SMOOTH",
"209 336 OFFCURVE",
"210 427 OFFCURVE",
"293 427 CURVE SMOOTH",
"342 427 OFFCURVE",
"431 355 OFFCURVE",
"443 311 CURVE SMOOTH",
"448 286 OFFCURVE",
"450 264 OFFCURVE",
"450 247 CURVE SMOOTH",
"450 196 OFFCURVE",
"434 162 OFFCURVE",
"401 162 CURVE SMOOTH",
"388 162 OFFCURVE",
"371 166 OFFCURVE",
"350 175 CURVE SMOOTH",
"329 183 OFFCURVE",
"313 187 OFFCURVE",
"303 187 CURVE SMOOTH",
"282 187 OFFCURVE",
"265 176 OFFCURVE",
"244 155 CURVE SMOOTH",
"223 134 OFFCURVE",
"212 120 OFFCURVE",
"212 114 CURVE SMOOTH",
"212 106 OFFCURVE",
"219 105 OFFCURVE",
"248 101 CURVE SMOOTH",
"282 97 LINE SMOOTH",
"295 95 OFFCURVE",
"308 94 OFFCURVE",
"321 94 CURVE SMOOTH",
"364 94 OFFCURVE",
"401 109 OFFCURVE",
"431 139 CURVE SMOOTH",
"508 216 OFFCURVE",
"527 279 OFFCURVE",
"527 339 CURVE SMOOTH",
"527 380 OFFCURVE",
"492 424 OFFCURVE",
"444 456 CURVE SMOOTH",
"411 481 OFFCURVE",
"392 493 OFFCURVE",
"364 493 CURVE SMOOTH",
"340 493 OFFCURVE",
"307 478 OFFCURVE",
"287 466 CURVE",
"235 442 OFFCURVE",
"182 399 OFFCURVE",
"181 354 CURVE SMOOTH",
"178 271 OFFCURVE",
"175 214 OFFCURVE",
"172 214 CURVE SMOOTH",
"169 214 OFFCURVE",
"168 283 OFFCURVE",
"168 422 CURVE SMOOTH",
"168 462 OFFCURVE",
"141 491 OFFCURVE",
"100 486 CURVE SMOOTH",
"89 485 OFFCURVE",
"73 479 OFFCURVE",
"52 468 CURVE SMOOTH",
"10 445 OFFCURVE",
"-25 417 OFFCURVE",
"-10 410 CURVE",
"23 403 OFFCURVE",
"46 396 OFFCURVE",
"57 389 CURVE SMOOTH",
"68 382 OFFCURVE",
"76 369 OFFCURVE",
"81 350 CURVE SMOOTH",
"90 315 OFFCURVE",
"92 290 OFFCURVE",
"93 230 CURVE SMOOTH",
"93 209 OFFCURVE",
"93 193 OFFCURVE",
"94 182 CURVE SMOOTH",
"103 -21 LINE",
"108 -116 LINE SMOOTH",
"111 -170 OFFCURVE",
"113 -225 OFFCURVE",
"113 -279 CURVE SMOOTH",
"113 -296 OFFCURVE",
"112 -322 OFFCURVE",
"111 -357 CURVE SMOOTH",
"110 -392 OFFCURVE",
"109 -417 OFFCURVE",
"109 -434 CURVE SMOOTH",
"110 -465 LINE SMOOTH",
"111 -472 OFFCURVE",
"111 -481 OFFCURVE",
"111 -494 CURVE SMOOTH",
"111 -503 OFFCURVE",
"111 -510 OFFCURVE",
"110 -515 CURVE SMOOTH",
"106 -556 OFFCURVE",
"96 -596 OFFCURVE",
"96 -601 CURVE SMOOTH",
"96 -605 OFFCURVE",
"98 -607 OFFCURVE",
"102 -607 CURVE SMOOTH"
);
}
);
width = 561;
}
);
note = p;
unicode = 0070;
},
{
glyphname = thorn;
lastChange = "2021-12-30 14:02:16 +0000";
layers = (
{
hints = (
{
horizontal = 1;
place = "{-554, 1520}";
type = Stem;
},
{
place = "{86, 71}";
type = Stem;
},
{
place = "{275, 91}";
type = Stem;
},
{
horizontal = 1;
place = "{406, 79}";
type = Stem;
},
{
place = "{74, 90}";
type = Stem;
}
);
layerId = "C933835C-79FD-43B5-B38E-78217E13301A";
paths = (
{
closed = 1;
nodes = (
"87 -542 OFFCURVE",
"106 -519 OFFCURVE",
"130 -464 CURVE SMOOTH",
"147 -427 OFFCURVE",
"150 -392 OFFCURVE",
"153 -332 CURVE SMOOTH",
"154 -309 OFFCURVE",
"156 -277 OFFCURVE",
"157 -234 CURVE SMOOTH",
"160 -156 OFFCURVE",
"163 -98 OFFCURVE",
"167 -59 CURVE",
"168 -55 OFFCURVE",
"168 -42 OFFCURVE",
"169 -20 CURVE SMOOTH",
"170 3 OFFCURVE",
"171 14 OFFCURVE",
"173 15 CURVE SMOOTH",
"187 22 OFFCURVE",
"238 41 OFFCURVE",
"257 79 CURVE SMOOTH",
"265 95 OFFCURVE",
"276 114 OFFCURVE",
"291 136 CURVE SMOOTH",
"308 161 OFFCURVE",
"324 187 OFFCURVE",
"334 216 CURVE SMOOTH",
"351 264 OFFCURVE",
"366 325 OFFCURVE",
"366 373 CURVE SMOOTH",
"366 383 OFFCURVE",
"366 390 OFFCURVE",
"365 395 CURVE SMOOTH",
"361 440 OFFCURVE",
"322 485 OFFCURVE",
"275 485 CURVE SMOOTH",
"266 485 OFFCURVE",
"259 484 OFFCURVE",
"253 481 CURVE SMOOTH",
"247 479 OFFCURVE",
"230 472 OFFCURVE",
"202 459 CURVE SMOOTH",
"174 446 OFFCURVE",
"160 438 OFFCURVE",
"160 437 CURVE SMOOTH",
"163 470 OFFCURVE",
"164 518 OFFCURVE",
"164 534 CURVE SMOOTH",
"164 583 OFFCURVE",
"166 624 OFFCURVE",
"170 657 CURVE SMOOTH",
"173 692 OFFCURVE",
"174 726 OFFCURVE",
"176 761 CURVE SMOOTH",
"178 799 OFFCURVE",
"187 835 OFFCURVE",
"198 871 CURVE SMOOTH",
"207 903 OFFCURVE",
"213 926 OFFCURVE",
"215 941 CURVE SMOOTH",
"216 948 OFFCURVE",
"224 954 OFFCURVE",
"224 957 CURVE SMOOTH",
"224 960 OFFCURVE",
"222 963 OFFCURVE",
"217 965 CURVE",
"209 970 OFFCURVE",
"183 961 OFFCURVE",
"182 961 CURVE",
"157 954 OFFCURVE",
"130 941 OFFCURVE",
"106 928 CURVE SMOOTH",
"89 919 OFFCURVE",
"75 912 OFFCURVE",
"66 908 CURVE SMOOTH",
"38 897 LINE SMOOTH",
"-2 882 OFFCURVE",
"-27 871 OFFCURVE",
"-39 848 CURVE",
"-44 841 OFFCURVE",
"-33 844 OFFCURVE",
"-18 849 CURVE SMOOTH",
"3 858 OFFCURVE",
"20 862 OFFCURVE",
"31 862 CURVE SMOOTH",
"35 862 OFFCURVE",
"38 862 OFFCURVE",
"40 861 CURVE",
"72 852 OFFCURVE",
"77 780 OFFCURVE",
"77 647 CURVE SMOOTH",
"77 607 OFFCURVE",
"76 568 OFFCURVE",
"75 529 CURVE SMOOTH",
"74 520 OFFCURVE",
"74 510 OFFCURVE",
"74 499 CURVE SMOOTH",
"74 352 OFFCURVE",
"75 205 OFFCURVE",
"77 57 CURVE SMOOTH",
"77 18 LINE SMOOTH",
"78 -85 OFFCURVE",
"81 -160 OFFCURVE",
"84 -209 CURVE SMOOTH",
"85 -229 OFFCURVE",
"86 -243 OFFCURVE",
"86 -251 CURVE SMOOTH",
"86 -314 OFFCURVE",
"84 -428 OFFCURVE",
"67 -488 CURVE SMOOTH",
"54 -529 OFFCURVE",
"37 -553 OFFCURVE",
"48 -554 CURVE"
);
},
{
closed = 1;
nodes = (
"171 47 OFFCURVE",
"169 52 OFFCURVE",
"169 64 CURVE SMOOTH",
"169 76 LINE SMOOTH",
"169 113 OFFCURVE",
"169 141 OFFCURVE",
"168 159 CURVE SMOOTH",
"165 322 LINE SMOOTH",
"165 329 OFFCURVE",
"163 344 OFFCURVE",
"163 372 CURVE SMOOTH",
"163 405 OFFCURVE",
"162 406 OFFCURVE",
"195 406 CURVE SMOOTH",
"258 406 OFFCURVE",
"275 349 OFFCURVE",
"275 274 CURVE SMOOTH",
"275 201 OFFCURVE",
"261 95 OFFCURVE",
"193 53 CURVE SMOOTH",
"185 49 OFFCURVE",
"179 47 OFFCURVE",
"176 47 CURVE SMOOTH"
);
}
);
width = 408;
}
);
note = thorn;
unicode = 00FE;
},
{
glyphname = q;
lastChange = "2021-12-30 14:02:16 +0000";
layers = (
{
hints = (
{
horizontal = 1;
place = "{87, 50}";
type = Stem;
},
{
horizontal = 1;
place = "{419, 66}";
type = Stem;
},
{
place = "{13, 76}";
type = Stem;
},
{
place = "{341, 101}";
type = Stem;
},
{
place = "{342, 69}";
type = Stem;
},
{
place = "{339, 87}";
type = Stem;
}
);
layerId = "C933835C-79FD-43B5-B38E-78217E13301A";
paths = (
{
closed = 1;
nodes = (
"354 -591 OFFCURVE",
"375 -571 OFFCURVE",
"390 -554 CURVE",
"394 -548 OFFCURVE",
"452 -482 OFFCURVE",
"435 -482 CURVE",
"425 -486 LINE SMOOTH",
"413 -489 OFFCURVE",
"407 -476 OFFCURVE",
"407 -449 CURVE SMOOTH",
"407 -430 OFFCURVE",
"411 -400 OFFCURVE",
"411 -391 CURVE SMOOTH",
"411 -352 OFFCURVE",
"414 -297 OFFCURVE",
"419 -225 CURVE SMOOTH",
"420 -204 OFFCURVE",
"424 -173 OFFCURVE",
"425 -132 CURVE SMOOTH",
"427 -87 LINE SMOOTH",
"437 100 OFFCURVE",
"442 250 OFFCURVE",
"442 362 CURVE SMOOTH",
"442 369 OFFCURVE",
"444 381 OFFCURVE",
"448 400 CURVE SMOOTH",
"452 420 OFFCURVE",
"454 434 OFFCURVE",
"454 443 CURVE SMOOTH",
"454 471 OFFCURVE",
"442 487 OFFCURVE",
"418 492 CURVE SMOOTH",
"415 493 OFFCURVE",
"412 493 OFFCURVE",
"407 493 CURVE SMOOTH",
"395 493 OFFCURVE",
"373 488 OFFCURVE",
"361 487 CURVE SMOOTH",
"273 484 LINE SMOOTH",
"247 483 OFFCURVE",
"209 477 OFFCURVE",
"160 466 CURVE SMOOTH",
"127 459 LINE SMOOTH",
"102 454 OFFCURVE",
"84 450 OFFCURVE",
"73 447 CURVE SMOOTH",
"14 432 OFFCURVE",
"13 402 OFFCURVE",
"13 352 CURVE SMOOTH",
"13 281 OFFCURVE",
"26 179 OFFCURVE",
"64 120 CURVE SMOOTH",
"83 92 OFFCURVE",
"113 78 OFFCURVE",
"148 78 CURVE SMOOTH",
"157 78 OFFCURVE",
"167 80 OFFCURVE",
"177 83 CURVE SMOOTH",
"190 86 OFFCURVE",
"200 87 OFFCURVE",
"206 87 CURVE SMOOTH",
"227 87 LINE SMOOTH",
"230 87 OFFCURVE",
"237 88 OFFCURVE",
"246 89 CURVE",
"261 93 OFFCURVE",
"281 100 OFFCURVE",
"306 110 CURVE SMOOTH",
"337 123 LINE SMOOTH",
"340 124 OFFCURVE",
"341 109 OFFCURVE",
"341 80 CURVE SMOOTH",
"341 27 OFFCURVE",
"339 -4 OFFCURVE",
"339 -12 CURVE SMOOTH",
"339 -120 LINE SMOOTH",
"339 -141 OFFCURVE",
"340 -172 OFFCURVE",
"341 -213 CURVE SMOOTH",
"342 -305 LINE SMOOTH",
"342 -340 OFFCURVE",
"341 -367 OFFCURVE",
"340 -384 CURVE SMOOTH",
"331 -506 LINE",
"330 -537 LINE SMOOTH",
"330 -566 OFFCURVE",
"334 -583 OFFCURVE",
"341 -586 CURVE SMOOTH"
);
},
{
closed = 1;
nodes = (
"234 138 LINE SMOOTH",
"209 141 OFFCURVE",
"193 144 OFFCURVE",
"184 148 CURVE SMOOTH",
"153 162 OFFCURVE",
"116 230 OFFCURVE",
"108 261 CURVE SMOOTH",
"107 268 OFFCURVE",
"104 277 OFFCURVE",
"101 286 CURVE SMOOTH",
"93 310 OFFCURVE",
"89 328 OFFCURVE",
"89 341 CURVE SMOOTH",
"89 350 OFFCURVE",
"90 356 OFFCURVE",
"91 361 CURVE SMOOTH",
"102 404 OFFCURVE",
"125 412 OFFCURVE",
"176 416 CURVE SMOOTH",
"196 418 OFFCURVE",
"218 419 OFFCURVE",
"241 419 CURVE SMOOTH",
"280 419 OFFCURVE",
"315 415 OFFCURVE",
"344 408 CURVE SMOOTH",
"357 405 OFFCURVE",
"363 388 OFFCURVE",
"363 355 CURVE SMOOTH",
"363 309 OFFCURVE",
"355 257 OFFCURVE",
"341 213 CURVE SMOOTH",
"328 169 OFFCURVE",
"290 137 OFFCURVE",
"246 137 CURVE SMOOTH"
);
}
);
width = 490;
}
);
note = q;
unicode = 0071;
},
{
glyphname = r;
lastChange = "2021-12-30 14:02:22 +0000";
layers = (
{
hints = (
{
horizontal = 1;
place = "{419, 62}";
type = Stem;
},
{
place = "{52, 89}";
type = Stem;
},
{
horizontal = 1;
place = "{403, 73}";
type = Stem;
}
);
layerId = "C933835C-79FD-43B5-B38E-78217E13301A";
paths = (
{
closed = 1;
nodes = (
"111 5 OFFCURVE",
"177 47 OFFCURVE",
"200 70 CURVE SMOOTH",
"211 81 OFFCURVE",
"217 88 OFFCURVE",
"217 90 CURVE SMOOTH",
"217 91 OFFCURVE",
"216 91 OFFCURVE",
"215 91 CURVE SMOOTH",
"212 91 OFFCURVE",
"199 85 OFFCURVE",
"175 72 CURVE SMOOTH",
"168 68 OFFCURVE",
"162 66 OFFCURVE",
"156 66 CURVE SMOOTH",
"137 66 OFFCURVE",
"131 89 OFFCURVE",
"131 134 CURVE SMOOTH",
"131 147 OFFCURVE",
"132 177 OFFCURVE",
"135 222 CURVE SMOOTH",
"138 263 OFFCURVE",
"140 309 OFFCURVE",
"141 361 CURVE SMOOTH",
"141 398 OFFCURVE",
"158 419 OFFCURVE",
"194 419 CURVE SMOOTH",
"205 419 OFFCURVE",
"222 416 OFFCURVE",
"245 410 CURVE SMOOTH",
"269 405 LINE",
"280 404 OFFCURVE",
"288 403 OFFCURVE",
"293 403 CURVE SMOOTH",
"322 403 OFFCURVE",
"344 414 OFFCURVE",
"364 441 CURVE SMOOTH",
"377 460 OFFCURVE",
"387 474 OFFCURVE",
"387 478 CURVE SMOOTH",
"387 481 OFFCURVE",
"384 483 OFFCURVE",
"378 483 CURVE SMOOTH",
"355 481 LINE SMOOTH",
"328 478 OFFCURVE",
"306 476 OFFCURVE",
"288 476 CURVE SMOOTH",
"263 476 OFFCURVE",
"241 478 OFFCURVE",
"220 481 CURVE SMOOTH",
"209 483 OFFCURVE",
"198 481 OFFCURVE",
"189 474 CURVE SMOOTH",
"169 461 OFFCURVE",
"150 432 OFFCURVE",
"143 424 CURVE SMOOTH",
"138 418 OFFCURVE",
"135 420 OFFCURVE",
"135 431 CURVE SMOOTH",
"135 442 OFFCURVE",
"138 466 OFFCURVE",
"137 482 CURVE SMOOTH",
"137 487 OFFCURVE",
"134 489 OFFCURVE",
"127 489 CURVE SMOOTH",
"112 489 OFFCURVE",
"83 476 OFFCURVE",
"55 459 CURVE SMOOTH",
"50 456 OFFCURVE",
"42 451 OFFCURVE",
"31 445 CURVE SMOOTH",
"10 432 OFFCURVE",
"-20 413 OFFCURVE",
"-20 406 CURVE SMOOTH",
"-20 403 OFFCURVE",
"-15 401 OFFCURVE",
"-4 401 CURVE SMOOTH",
"11 401 OFFCURVE",
"22 403 OFFCURVE",
"29 403 CURVE SMOOTH",
"51 403 OFFCURVE",
"50 398 OFFCURVE",
"52 348 CURVE SMOOTH",
"52 334 OFFCURVE",
"52 323 OFFCURVE",
"53 314 CURVE SMOOTH",
"54 305 OFFCURVE",
"53 278 OFFCURVE",
"52 235 CURVE SMOOTH",
"51 132 LINE SMOOTH",
"51 68 OFFCURVE",
"54 29 OFFCURVE",
"59 16 CURVE SMOOTH",
"62 9 OFFCURVE",
"68 5 OFFCURVE",
"78 5 CURVE SMOOTH"
);
}
);
width = 387;
}
);
note = r;
unicode = 0072;
},
{
glyphname = s;
lastChange = "2021-12-30 14:02:22 +0000";
layers = (
{
hints = (
{
horizontal = 1;
place = "{2, 69}";
type = Stem;
},
{
horizontal = 1;
place = "{249, 42}";
type = Stem;
},
{
horizontal = 1;
place = "{443, 40}";
type = Stem;
},
{
place = "{7, 81}";
type = Stem;
},
{
place = "{301, 73}";
type = Stem;
},
{
horizontal = 1;
place = "{215, 49}";
type = Stem;
}
);
layerId = "C933835C-79FD-43B5-B38E-78217E13301A";
paths = (
{
closed = 1;
nodes = (
"203 2 OFFCURVE",
"208 3 OFFCURVE",
"212 5 CURVE SMOOTH",
"261 28 OFFCURVE",
"302 64 OFFCURVE",
"335 112 CURVE SMOOTH",
"361 151 OFFCURVE",
"374 182 OFFCURVE",
"374 207 CURVE SMOOTH",
"374 260 OFFCURVE",
"325 291 OFFCURVE",
"276 291 CURVE SMOOTH",
"255 291 OFFCURVE",
"234 285 OFFCURVE",
"214 274 CURVE SMOOTH",
"201 267 OFFCURVE",
"184 264 OFFCURVE",
"161 264 CURVE SMOOTH",
"109 264 OFFCURVE",
"88 333 OFFCURVE",
"88 375 CURVE SMOOTH",
"88 420 OFFCURVE",
"119 443 OFFCURVE",
"166 443 CURVE SMOOTH",
"195 443 OFFCURVE",
"207 441 OFFCURVE",
"223 421 CURVE SMOOTH",
"235 406 OFFCURVE",
"246 377 OFFCURVE",
"251 377 CURVE SMOOTH",
"254 377 OFFCURVE",
"259 381 OFFCURVE",
"265 389 CURVE SMOOTH",
"280 409 OFFCURVE",
"287 429 OFFCURVE",
"287 449 CURVE SMOOTH",
"287 469 OFFCURVE",
"277 479 OFFCURVE",
"257 480 CURVE SMOOTH",
"226 482 OFFCURVE",
"201 483 OFFCURVE",
"183 483 CURVE SMOOTH",
"128 483 OFFCURVE",
"92 472 OFFCURVE",
"44 429 CURVE SMOOTH",
"15 402 OFFCURVE",
"7 368 OFFCURVE",
"7 325 CURVE SMOOTH",
"7 278 OFFCURVE",
"47 215 OFFCURVE",
"97 215 CURVE SMOOTH",
"117 215 OFFCURVE",
"132 221 OFFCURVE",
"171 234 CURVE SMOOTH",
"211 248 LINE SMOOTH",
"213 249 OFFCURVE",
"216 249 OFFCURVE",
"221 249 CURVE SMOOTH",
"259 249 OFFCURVE",
"301 189 OFFCURVE",
"301 151 CURVE SMOOTH",
"301 108 OFFCURVE",
"262 71 OFFCURVE",
"235 71 CURVE SMOOTH",
"218 71 OFFCURVE",
"202 80 OFFCURVE",
"181 97 CURVE SMOOTH",
"163 111 OFFCURVE",
"149 118 OFFCURVE",
"140 118 CURVE SMOOTH",
"117 118 OFFCURVE",
"64 75 OFFCURVE",
"64 63 CURVE SMOOTH",
"64 60 OFFCURVE",
"66 58 OFFCURVE",
"70 57 CURVE SMOOTH",
"98 50 OFFCURVE",
"135 29 OFFCURVE",
"140 26 CURVE SMOOTH",
"167 10 OFFCURVE",
"183 2 OFFCURVE",
"198 2 CURVE SMOOTH"
);
}
);
width = 394;
}
);
note = s;
unicode = 0073;
},
{
glyphname = germandbls;
lastChange = "2021-12-30 14:02:22 +0000";
layers = (
{
hints = (
{
horizontal = 1;
place = "{44, 103}";
type = Stem;
},
{
horizontal = 1;
place = "{886, 80}";
type = Stem;
},
{
place = "{51, 83}";
type = Stem;
},
{
place = "{197, 121}";
type = Stem;
},
{
place = "{356, 74}";
type = Stem;
},
{
place = "{463, 88}";
type = Stem;
}
);
layerId = "C933835C-79FD-43B5-B38E-78217E13301A";
paths = (
{
closed = 1;
nodes = (
"75 -471 OFFCURVE",
"85 -462 OFFCURVE",
"98 -442 CURVE SMOOTH",
"144 -374 OFFCURVE",
"134 -182 OFFCURVE",
"134 -101 CURVE SMOOTH",
"134 -49 OFFCURVE",
"147 291 OFFCURVE",
"152 376 CURVE SMOOTH",
"164 619 OFFCURVE",
"173 858 OFFCURVE",
"292 858 CURVE SMOOTH",
"305 858 OFFCURVE",
"320 855 OFFCURVE",
"337 848 CURVE SMOOTH",
"489 788 OFFCURVE",
"440 645 OFFCURVE",
"268 434 CURVE SMOOTH",
"231 389 OFFCURVE",
"197 343 OFFCURVE",
"197 321 CURVE SMOOTH",
"197 290 OFFCURVE",
"239 301 OFFCURVE",
"282 284 CURVE SMOOTH",
"362 252 OFFCURVE",
"365 183 OFFCURVE",
"304 123 CURVE SMOOTH",
"294 114 OFFCURVE",
"263 147 OFFCURVE",
"241 147 CURVE SMOOTH",
"232 147 OFFCURVE",
"214 135 OFFCURVE",
"207 123 CURVE SMOOTH",
"197 107 OFFCURVE",
"167 84 OFFCURVE",
"167 72 CURVE SMOOTH",
"167 64 OFFCURVE",
"196 40 OFFCURVE",
"247 44 CURVE SMOOTH",
"334 51 OFFCURVE",
"424 165 OFFCURVE",
"430 219 CURVE SMOOTH",
"440 319 OFFCURVE",
"371 250 OFFCURVE",
"282 339 CURVE SMOOTH",
"265 356 OFFCURVE",
"316 415 OFFCURVE",
"343 442 CURVE SMOOTH",
"545 645 OFFCURVE",
"653 836 OFFCURVE",
"393 950 CURVE SMOOTH",
"377 957 OFFCURVE",
"356 961 OFFCURVE",
"335 961 CURVE SMOOTH",
"291 961 OFFCURVE",
"243 946 OFFCURVE",
"217 914 CURVE SMOOTH",
"137 817 OFFCURVE",
"64 691 OFFCURVE",
"69 400 CURVE SMOOTH",
"77 -77 OFFCURVE",
"51 -417 OFFCURVE",
"51 -417 CURVE",
"51 -452 OFFCURVE",
"56 -471 OFFCURVE",
"67 -471 CURVE SMOOTH"
);
}
);
width = 487;
}
);
note = germandbls;
unicode = 00DF;
},
